<?xml version="1.0" encoding="UTF-8" standalone="no"?><svg xmlns="http://www.w3.org/2000/svg" xmlns:xlink="http://www.w3.org/1999/xlink" contentScriptType="application/ecmascript" contentStyleType="text/css" height="258px" preserveAspectRatio="none" style="width:521px;height:258px;" version="1.1" viewBox="0 0 521 258" width="521px" zoomAndPan="magnify"><defs><filter height="300%" id="fb1x94d4e5ezp" width="300%" x="-1" y="-1"><feGaussianBlur result="blurOut" stdDeviation="2.0"/><feColorMatrix in="blurOut" result="blurOut2" type="matrix" values="0 0 0 0 0 0 0 0 0 0 0 0 0 0 0 0 0 0 .4 0"/><feOffset dx="4.0" dy="4.0" in="blurOut2" result="blurOut3"/><feBlend in="SourceGraphic" in2="blurOut3" mode="normal"/></filter></defs><g><!--cluster de.interactive_instruments.etf.dal.dao.exceptions--><polygon fill="#FFFFFF" filter="url(#fb1x94d4e5ezp)" points="14,124,368,124,375,146.4883,499,146.4883,499,246,14,246,14,124" style="stroke: #000000; stroke-width: 1.5;"/><line style="stroke: #000000; stroke-width: 1.5;" x1="14" x2="375" y1="146.4883" y2="146.4883"/><text fill="#000000" font-family="sans-serif" font-size="14" font-weight="bold" lengthAdjust="spacingAndGlyphs" textLength="348" x="18" y="139.5352">de.interactive_instruments.etf.dal.dao.exceptions</text><!--cluster de.interactive_instruments.exceptions--><polygon fill="#FFFFFF" filter="url(#fb1x94d4e5ezp)" points="124,16,401,16,408,38.4883,411,38.4883,411,99,124,99,124,16" style="stroke: #000000; stroke-width: 1.5;"/><line style="stroke: #000000; stroke-width: 1.5;" x1="124" x2="408" y1="38.4883" y2="38.4883"/><text fill="#000000" font-family="sans-serif" font-size="14" font-weight="bold" lengthAdjust="spacingAndGlyphs" textLength="271" x="128" y="31.5352">de.interactive_instruments.exceptions</text><!--class de.interactive_instruments.etf.dal.dao.exceptions.StoreException--><a target="_top" xlink:actuate="onRequest" xlink:href="StoreException.html" xlink:show="new" xlink:title="StoreException.html" xlink:type="simple"><rect fill="#FEFECE" filter="url(#fb1x94d4e5ezp)" height="86.8652" id="de.interactive_instruments.etf.dal.dao.exceptions.StoreException" style="stroke: #A80036; stroke-width: 1.5;" width="209" x="281.5" y="151"/><ellipse cx="339.25" cy="167" fill="#ADD1B2" rx="11" ry="11" style="stroke: #A80036; stroke-width: 1.0;"/><path d="M342.2231,172.6431 Q341.6421,172.9419 341.0029,173.0913 Q340.3638,173.2407 339.6582,173.2407 Q337.1514,173.2407 335.8315,171.5889 Q334.5117,169.937 334.5117,166.8159 Q334.5117,163.6865 335.8315,162.0347 Q337.1514,160.3828 339.6582,160.3828 Q340.3638,160.3828 341.0112,160.5322 Q341.6587,160.6816 342.2231,160.9805 L342.2231,163.7031 Q341.5923,163.1221 340.9988,162.8523 Q340.4053,162.5825 339.7744,162.5825 Q338.4297,162.5825 337.7449,163.6492 Q337.0601,164.7158 337.0601,166.8159 Q337.0601,168.9077 337.7449,169.9744 Q338.4297,171.041 339.7744,171.041 Q340.4053,171.041 340.9988,170.7712 Q341.5923,170.5015 342.2231,169.9204 Z "/><text fill="#000000" font-family="sans-serif" font-size="12" lengthAdjust="spacingAndGlyphs" textLength="85" x="359.75" y="171.5352">StoreException</text><line style="stroke: #A80036; stroke-width: 1.5;" x1="282.5" x2="489.5" y1="183" y2="183"/><line style="stroke: #A80036; stroke-width: 1.5;" x1="282.5" x2="489.5" y1="191" y2="191"/><ellipse cx="292.5" cy="202.9775" fill="#84BE84" rx="3" ry="3" style="stroke: #038048; stroke-width: 1.0;"/><text fill="#000000" font-family="sans-serif" font-size="11" lengthAdjust="spacingAndGlyphs" textLength="121" x="301.5" y="205.6348">StoreException(String)</text><ellipse cx="292.5" cy="215.9326" fill="#84BE84" rx="3" ry="3" style="stroke: #038048; stroke-width: 1.0;"/><text fill="#000000" font-family="sans-serif" font-size="11" lengthAdjust="spacingAndGlyphs" textLength="145" x="301.5" y="218.5898">StoreException(Throwable)</text><ellipse cx="292.5" cy="228.8877" fill="#84BE84" rx="3" ry="3" style="stroke: #038048; stroke-width: 1.0;"/><text fill="#000000" font-family="sans-serif" font-size="11" lengthAdjust="spacingAndGlyphs" textLength="183" x="301.5" y="231.5449">StoreException(String, Throwable)</text></a><!--class de.interactive_instruments.etf.dal.dao.exceptions.RetrieveException--><a target="_top" xlink:actuate="onRequest" xlink:href="RetrieveException.html" xlink:show="new" xlink:title="RetrieveException.html" xlink:type="simple"><rect fill="#FEFECE" filter="url(#fb1x94d4e5ezp)" height="86.8652" id="de.interactive_instruments.etf.dal.dao.exceptions.RetrieveException" style="stroke: #A80036; stroke-width: 1.5;" width="224" x="22" y="151"/><ellipse cx="78.25" cy="167" fill="#ADD1B2" rx="11" ry="11" style="stroke: #A80036; stroke-width: 1.0;"/><path d="M81.2231,172.6431 Q80.6421,172.9419 80.0029,173.0913 Q79.3638,173.2407 78.6582,173.2407 Q76.1514,173.2407 74.8315,171.5889 Q73.5117,169.937 73.5117,166.8159 Q73.5117,163.6865 74.8315,162.0347 Q76.1514,160.3828 78.6582,160.3828 Q79.3638,160.3828 80.0112,160.5322 Q80.6587,160.6816 81.2231,160.9805 L81.2231,163.7031 Q80.5923,163.1221 79.9988,162.8523 Q79.4053,162.5825 78.7744,162.5825 Q77.4297,162.5825 76.7449,163.6492 Q76.0601,164.7158 76.0601,166.8159 Q76.0601,168.9077 76.7449,169.9744 Q77.4297,171.041 78.7744,171.041 Q79.4053,171.041 79.9988,170.7712 Q80.5923,170.5015 81.2231,169.9204 Z "/><text fill="#000000" font-family="sans-serif" font-size="12" lengthAdjust="spacingAndGlyphs" textLength="103" x="98.75" y="171.5352">RetrieveException</text><line style="stroke: #A80036; stroke-width: 1.5;" x1="23" x2="245" y1="183" y2="183"/><line style="stroke: #A80036; stroke-width: 1.5;" x1="23" x2="245" y1="191" y2="191"/><ellipse cx="33" cy="202.9775" fill="#84BE84" rx="3" ry="3" style="stroke: #038048; stroke-width: 1.0;"/><text fill="#000000" font-family="sans-serif" font-size="11" lengthAdjust="spacingAndGlyphs" textLength="136" x="42" y="205.6348">RetrieveException(String)</text><ellipse cx="33" cy="215.9326" fill="#84BE84" rx="3" ry="3" style="stroke: #038048; stroke-width: 1.0;"/><text fill="#000000" font-family="sans-serif" font-size="11" lengthAdjust="spacingAndGlyphs" textLength="160" x="42" y="218.5898">RetrieveException(Throwable)</text><ellipse cx="33" cy="228.8877" fill="#84BE84" rx="3" ry="3" style="stroke: #038048; stroke-width: 1.0;"/><text fill="#000000" font-family="sans-serif" font-size="11" lengthAdjust="spacingAndGlyphs" textLength="198" x="42" y="231.5449">RetrieveException(String, Throwable)</text></a><!--class de.interactive_instruments.exceptions.StorageException--><rect fill="#FEFECE" filter="url(#fb1x94d4e5ezp)" height="48" id="de.interactive_instruments.exceptions.StorageException" style="stroke: #A80036; stroke-width: 1.5;" width="131" x="155.5" y="43"/><ellipse cx="170.5" cy="59" fill="#ADD1B2" rx="11" ry="11" style="stroke: #A80036; stroke-width: 1.0;"/><path d="M173.4731,64.6431 Q172.8921,64.9419 172.2529,65.0913 Q171.6138,65.2407 170.9082,65.2407 Q168.4014,65.2407 167.0815,63.5889 Q165.7617,61.937 165.7617,58.8159 Q165.7617,55.6865 167.0815,54.0347 Q168.4014,52.3828 170.9082,52.3828 Q171.6138,52.3828 172.2612,52.5322 Q172.9087,52.6816 173.4731,52.9805 L173.4731,55.7031 Q172.8423,55.1221 172.2488,54.8523 Q171.6553,54.5825 171.0244,54.5825 Q169.6797,54.5825 168.9949,55.6492 Q168.3101,56.7158 168.3101,58.8159 Q168.3101,60.9077 168.9949,61.9744 Q169.6797,63.041 171.0244,63.041 Q171.6553,63.041 172.2488,62.7712 Q172.8423,62.5015 173.4731,61.9204 Z "/><text fill="#000000" font-family="sans-serif" font-size="12" lengthAdjust="spacingAndGlyphs" textLength="99" x="184.5" y="63.5352">StorageException</text><line style="stroke: #A80036; stroke-width: 1.5;" x1="156.5" x2="285.5" y1="75" y2="75"/><line style="stroke: #A80036; stroke-width: 1.5;" x1="156.5" x2="285.5" y1="83" y2="83"/><!--link de.interactive_instruments.exceptions.StorageException to de.interactive_instruments.etf.dal.dao.exceptions.StoreException--><path d="M268.3024,103.5518 C287.436,118.3369 309.6783,135.5242 329.6427,150.9512 " fill="none" id="de.interactive_instruments.exceptions.StorageException-de.interactive_instruments.etf.dal.dao.exceptions.StoreException" style="stroke: #A80036; stroke-width: 1.0;"/><polygon fill="none" points="263.9692,109.0499,252.4236,91.2819,272.5295,97.9719,263.9692,109.0499" style="stroke: #A80036; stroke-width: 1.0;"/><!--link de.interactive_instruments.exceptions.StorageException to de.interactive_instruments.etf.dal.dao.exceptions.RetrieveException--><path d="M192.9543,108.1014 C183.6131,121.7911 173.179,137.0824 163.7157,150.9512 " fill="none" id="de.interactive_instruments.exceptions.StorageException-de.interactive_instruments.etf.dal.dao.exceptions.RetrieveException" style="stroke: #A80036; stroke-width: 1.0;"/><polygon fill="none" points="187.3762,103.8569,204.4312,91.2819,198.9405,111.7478,187.3762,103.8569" style="stroke: #A80036; stroke-width: 1.0;"/><!--
@startuml

    namespace de.interactive_instruments.etf.dal.dao.exceptions {

        class StoreException [[StoreException.html]] {
            +StoreException(String)
            +StoreException(Throwable)
            +StoreException(String, Throwable)
        }

        class RetrieveException [[RetrieveException.html]] {
            +RetrieveException(String)
            +RetrieveException(Throwable)
            +RetrieveException(String, Throwable)
        }

        class de.interactive_instruments.exceptions.StorageException
        de.interactive_instruments.exceptions.StorageException <|- - StoreException

        de.interactive_instruments.exceptions.StorageException <|- - RetrieveException

    }

@enduml

PlantUML version 1.2018.08(Sun Jun 24 14:31:00 CEST 2018)
(APACHE source distribution)
Java Runtime: Java(TM) SE Runtime Environment
JVM: Java HotSpot(TM) 64-Bit Server VM
Java Version: 1.8.0_151-b12
Operating System: Mac OS X
OS Version: 10.13.6
Default Encoding: UTF-8
Language: en
Country: US
--></g></svg>