<?xml version="1.0" encoding="UTF-8" standalone="no"?><svg xmlns="http://www.w3.org/2000/svg" xmlns:xlink="http://www.w3.org/1999/xlink" contentScriptType="application/ecmascript" contentStyleType="text/css" height="105px" preserveAspectRatio="none" style="width:226px;height:105px;" version="1.1" viewBox="0 0 226 105" width="226px" zoomAndPan="magnify"><defs><filter height="300%" id="fwh486b2lyo38" width="300%" x="-1" y="-1"><feGaussianBlur result="blurOut" stdDeviation="2.0"/><feColorMatrix in="blurOut" result="blurOut2" type="matrix" values="0 0 0 0 0 0 0 0 0 0 0 0 0 0 0 0 0 0 .4 0"/><feOffset dx="4.0" dy="4.0" in="blurOut2" result="blurOut3"/><feBlend in="SourceGraphic" in2="blurOut3" mode="normal"/></filter></defs><g><!--class StoreException--><a target="_top" xlink:actuate="onRequest" xlink:href="StoreException.html" xlink:show="new" xlink:title="StoreException.html" xlink:type="simple"><rect fill="#FEFECE" filter="url(#fwh486b2lyo38)" height="86.8652" id="StoreException" style="stroke: #A80036; stroke-width: 1.5;" width="209" x="6" y="8"/><ellipse cx="63.75" cy="24" fill="#ADD1B2" rx="11" ry="11" style="stroke: #A80036; stroke-width: 1.0;"/><path d="M66.7231,29.6431 Q66.1421,29.9419 65.5029,30.0913 Q64.8638,30.2407 64.1582,30.2407 Q61.6514,30.2407 60.3315,28.5889 Q59.0117,26.937 59.0117,23.8159 Q59.0117,20.6865 60.3315,19.0347 Q61.6514,17.3828 64.1582,17.3828 Q64.8638,17.3828 65.5112,17.5322 Q66.1587,17.6816 66.7231,17.9805 L66.7231,20.7031 Q66.0923,20.1221 65.4988,19.8523 Q64.9053,19.5825 64.2744,19.5825 Q62.9297,19.5825 62.2449,20.6492 Q61.5601,21.7158 61.5601,23.8159 Q61.5601,25.9077 62.2449,26.9744 Q62.9297,28.041 64.2744,28.041 Q64.9053,28.041 65.4988,27.7712 Q66.0923,27.5015 66.7231,26.9204 Z "/><text fill="#000000" font-family="sans-serif" font-size="12" lengthAdjust="spacingAndGlyphs" textLength="85" x="84.25" y="28.5352">StoreException</text><line style="stroke: #A80036; stroke-width: 1.5;" x1="7" x2="214" y1="40" y2="40"/><line style="stroke: #A80036; stroke-width: 1.5;" x1="7" x2="214" y1="48" y2="48"/><ellipse cx="17" cy="59.9775" fill="#84BE84" rx="3" ry="3" style="stroke: #038048; stroke-width: 1.0;"/><text fill="#000000" font-family="sans-serif" font-size="11" lengthAdjust="spacingAndGlyphs" textLength="121" x="26" y="62.6348">StoreException(String)</text><ellipse cx="17" cy="72.9326" fill="#84BE84" rx="3" ry="3" style="stroke: #038048; stroke-width: 1.0;"/><text fill="#000000" font-family="sans-serif" font-size="11" lengthAdjust="spacingAndGlyphs" textLength="145" x="26" y="75.5898">StoreException(Throwable)</text><ellipse cx="17" cy="85.8877" fill="#84BE84" rx="3" ry="3" style="stroke: #038048; stroke-width: 1.0;"/><text fill="#000000" font-family="sans-serif" font-size="11" lengthAdjust="spacingAndGlyphs" textLength="183" x="26" y="88.5449">StoreException(String, Throwable)</text></a><!--
@startuml

    class StoreException [[StoreException.html]] {
        +StoreException(String)
        +StoreException(Throwable)
        +StoreException(String, Throwable)
    }

@enduml

PlantUML version 1.2018.08(Sun Jun 24 14:31:00 CEST 2018)
(APACHE source distribution)
Java Runtime: Java(TM) SE Runtime Environment
JVM: Java HotSpot(TM) 64-Bit Server VM
Java Version: 1.8.0_151-b12
Operating System: Mac OS X
OS Version: 10.13.6
Default Encoding: UTF-8
Language: en
Country: US
--></g></svg>