<?xml version="1.0" encoding="UTF-8" standalone="no"?><svg xmlns="http://www.w3.org/2000/svg" xmlns:xlink="http://www.w3.org/1999/xlink" contentScriptType="application/ecmascript" contentStyleType="text/css" height="105px" preserveAspectRatio="none" style="width:478px;height:105px;" version="1.1" viewBox="0 0 478 105" width="478px" zoomAndPan="magnify"><defs><filter height="300%" id="fbnuynrrf0j2y" width="300%" x="-1" y="-1"><feGaussianBlur result="blurOut" stdDeviation="2.0"/><feColorMatrix in="blurOut" result="blurOut2" type="matrix" values="0 0 0 0 0 0 0 0 0 0 0 0 0 0 0 0 0 0 .4 0"/><feOffset dx="4.0" dy="4.0" in="blurOut2" result="blurOut3"/><feBlend in="SourceGraphic" in2="blurOut3" mode="normal"/></filter></defs><g><!--class IncompatibleTestObjectTypeException--><a target="_top" xlink:actuate="onRequest" xlink:href="IncompatibleTestObjectTypeException.html" xlink:show="new" xlink:title="IncompatibleTestObjectTypeException.html" xlink:type="simple"><rect fill="#FEFECE" filter="url(#fbnuynrrf0j2y)" height="86.8652" id="IncompatibleTestObjectTypeException" style="stroke: #A80036; stroke-width: 1.5;" width="461" x="6" y="8"/><ellipse cx="121.25" cy="24" fill="#ADD1B2" rx="11" ry="11" style="stroke: #A80036; stroke-width: 1.0;"/><path d="M124.2231,29.6431 Q123.6421,29.9419 123.0029,30.0913 Q122.3638,30.2407 121.6582,30.2407 Q119.1514,30.2407 117.8315,28.5889 Q116.5117,26.937 116.5117,23.8159 Q116.5117,20.6865 117.8315,19.0347 Q119.1514,17.3828 121.6582,17.3828 Q122.3638,17.3828 123.0112,17.5322 Q123.6587,17.6816 124.2231,17.9805 L124.2231,20.7031 Q123.5923,20.1221 122.9988,19.8523 Q122.4053,19.5825 121.7744,19.5825 Q120.4297,19.5825 119.7449,20.6492 Q119.0601,21.7158 119.0601,23.8159 Q119.0601,25.9077 119.7449,26.9744 Q120.4297,28.041 121.7744,28.041 Q122.4053,28.041 122.9988,27.7712 Q123.5923,27.5015 124.2231,26.9204 Z "/><text fill="#000000" font-family="sans-serif" font-size="12" lengthAdjust="spacingAndGlyphs" textLength="222" x="141.75" y="28.5352">IncompatibleTestObjectTypeException</text><line style="stroke: #A80036; stroke-width: 1.5;" x1="7" x2="466" y1="40" y2="40"/><line style="stroke: #A80036; stroke-width: 1.5;" x1="7" x2="466" y1="48" y2="48"/><ellipse cx="17" cy="59.9775" fill="#84BE84" rx="3" ry="3" style="stroke: #038048; stroke-width: 1.0;"/><text fill="#000000" font-family="sans-serif" font-size="11" lengthAdjust="spacingAndGlyphs" textLength="435" x="26" y="62.6348">IncompatibleTestObjectTypeException(TestObjectType, DetectedTestObjectType)</text><ellipse cx="17" cy="72.9326" fill="#84BE84" rx="3" ry="3" style="stroke: #038048; stroke-width: 1.0;"/><text fill="#000000" font-family="sans-serif" font-size="11" lengthAdjust="spacingAndGlyphs" textLength="428" x="26" y="75.5898">IncompatibleTestObjectTypeException(Collection&lt;?&gt;, DetectedTestObjectType)</text><ellipse cx="17" cy="85.8877" fill="#84BE84" rx="3" ry="3" style="stroke: #038048; stroke-width: 1.0;"/><text fill="#000000" font-family="sans-serif" font-size="11" lengthAdjust="spacingAndGlyphs" textLength="246" x="26" y="88.5449">getDetectedTestObjectType(): TestObjectType</text></a><!--
@startuml

    class IncompatibleTestObjectTypeException [[IncompatibleTestObjectTypeException.html]] {
        +IncompatibleTestObjectTypeException(TestObjectType, DetectedTestObjectType)
        +IncompatibleTestObjectTypeException(Collection<?>, DetectedTestObjectType)
        +getDetectedTestObjectType(): TestObjectType
    }

@enduml

PlantUML version 1.2018.08(Sun Jun 24 14:31:00 CEST 2018)
(APACHE source distribution)
Java Runtime: Java(TM) SE Runtime Environment
JVM: Java HotSpot(TM) 64-Bit Server VM
Java Version: 1.8.0_151-b12
Operating System: Mac OS X
OS Version: 10.13.6
Default Encoding: UTF-8
Language: en
Country: US
--></g></svg>