<?xml version="1.0" encoding="UTF-8" standalone="no"?><svg xmlns="http://www.w3.org/2000/svg" xmlns:xlink="http://www.w3.org/1999/xlink" contentScriptType="application/ecmascript" contentStyleType="text/css" height="601px" preserveAspectRatio="none" style="width:2221px;height:601px;" version="1.1" viewBox="0 0 2221 601" width="2221px" zoomAndPan="magnify"><defs><filter height="300%" id="fbjjfumw7ukyn" width="300%" x="-1" y="-1"><feGaussianBlur result="blurOut" stdDeviation="2.0"/><feColorMatrix in="blurOut" result="blurOut2" type="matrix" values="0 0 0 0 0 0 0 0 0 0 0 0 0 0 0 0 0 0 .4 0"/><feOffset dx="4.0" dy="4.0" in="blurOut2" result="blurOut3"/><feBlend in="SourceGraphic" in2="blurOut3" mode="normal"/></filter></defs><g><!--cluster de.interactive_instruments.etf.detector--><polygon fill="#FFFFFF" filter="url(#fbjjfumw7ukyn)" points="14,156,296,156,303,178.4883,2199,178.4883,2199,304,14,304,14,156" style="stroke: #000000; stroke-width: 1.5;"/><line style="stroke: #000000; stroke-width: 1.5;" x1="14" x2="303" y1="178.4883" y2="178.4883"/><text fill="#000000" font-family="sans-serif" font-size="14" font-weight="bold" lengthAdjust="spacingAndGlyphs" textLength="276" x="18" y="171.5352">de.interactive_instruments.etf.detector</text><!--cluster java.lang--><polygon fill="#FFFFFF" filter="url(#fbjjfumw7ukyn)" points="504,22.5,573,22.5,580,44.9883,765,44.9883,765,118.5,504,118.5,504,22.5" style="stroke: #000000; stroke-width: 1.5;"/><line style="stroke: #000000; stroke-width: 1.5;" x1="504" x2="580" y1="44.9883" y2="44.9883"/><text fill="#000000" font-family="sans-serif" font-size="14" font-weight="bold" lengthAdjust="spacingAndGlyphs" textLength="63" x="508" y="38.0352">java.lang</text><!--cluster de.interactive_instruments--><polygon fill="#FFFFFF" filter="url(#fbjjfumw7ukyn)" points="1858,16,2055,16,2062,38.4883,2154,38.4883,2154,125,1858,125,1858,16" style="stroke: #000000; stroke-width: 1.5;"/><line style="stroke: #000000; stroke-width: 1.5;" x1="1858" x2="2062" y1="38.4883" y2="38.4883"/><text fill="#000000" font-family="sans-serif" font-size="14" font-weight="bold" lengthAdjust="spacingAndGlyphs" textLength="191" x="1862" y="31.5352">de.interactive_instruments</text><!--cluster de.interactive_instruments.etf.model.capabilities--><polygon fill="#FFFFFF" filter="url(#fbjjfumw7ukyn)" points="597,351,951,351,958,373.4883,961,373.4883,961,589,597,589,597,351" style="stroke: #000000; stroke-width: 1.5;"/><line style="stroke: #000000; stroke-width: 1.5;" x1="597" x2="958" y1="373.4883" y2="373.4883"/><text fill="#000000" font-family="sans-serif" font-size="14" font-weight="bold" lengthAdjust="spacingAndGlyphs" textLength="348" x="601" y="366.5352">de.interactive_instruments.etf.model.capabilities</text><!--class de.interactive_instruments.etf.detector.TestObjectTypeNotDetected--><a target="_top" xlink:actuate="onRequest" xlink:href="TestObjectTypeNotDetected.html" xlink:show="new" xlink:title="TestObjectTypeNotDetected.html" xlink:type="simple"><rect fill="#FEFECE" filter="url(#fbjjfumw7ukyn)" height="73.9102" id="de.interactive_instruments.etf.detector.TestObjectTypeNotDetected" style="stroke: #A80036; stroke-width: 1.5;" width="268" x="22" y="202.5"/><ellipse cx="69.75" cy="218.5" fill="#ADD1B2" rx="11" ry="11" style="stroke: #A80036; stroke-width: 1.0;"/><path d="M72.7231,224.1431 Q72.1421,224.4419 71.5029,224.5913 Q70.8638,224.7407 70.1582,224.7407 Q67.6514,224.7407 66.3315,223.0889 Q65.0117,221.437 65.0117,218.3159 Q65.0117,215.1865 66.3315,213.5347 Q67.6514,211.8828 70.1582,211.8828 Q70.8638,211.8828 71.5112,212.0322 Q72.1587,212.1816 72.7231,212.4805 L72.7231,215.2031 Q72.0923,214.6221 71.4988,214.3523 Q70.9053,214.0825 70.2744,214.0825 Q68.9297,214.0825 68.2449,215.1492 Q67.5601,216.2158 67.5601,218.3159 Q67.5601,220.4077 68.2449,221.4744 Q68.9297,222.541 70.2744,222.541 Q70.9053,222.541 71.4988,222.2712 Q72.0923,222.0015 72.7231,221.4204 Z "/><text fill="#000000" font-family="sans-serif" font-size="12" lengthAdjust="spacingAndGlyphs" textLength="164" x="90.25" y="223.0352">TestObjectTypeNotDetected</text><line style="stroke: #A80036; stroke-width: 1.5;" x1="23" x2="289" y1="234.5" y2="234.5"/><line style="stroke: #A80036; stroke-width: 1.5;" x1="23" x2="289" y1="242.5" y2="242.5"/><ellipse cx="33" cy="254.4775" fill="#84BE84" rx="3" ry="3" style="stroke: #038048; stroke-width: 1.0;"/><text fill="#000000" font-family="sans-serif" font-size="11" lengthAdjust="spacingAndGlyphs" textLength="242" x="42" y="257.1348">TestObjectTypeNotDetected(TestObjectType)</text><ellipse cx="33" cy="267.4326" fill="#84BE84" rx="3" ry="3" style="stroke: #038048; stroke-width: 1.0;"/><text fill="#000000" font-family="sans-serif" font-size="11" lengthAdjust="spacingAndGlyphs" textLength="158" x="42" y="270.0898">TestObjectTypeNotDetected()</text></a><!--class de.interactive_instruments.etf.detector.TestObjectTypeDetectorManager--><a target="_top" xlink:actuate="onRequest" xlink:href="TestObjectTypeDetectorManager.html" xlink:show="new" xlink:title="TestObjectTypeDetectorManager.html" xlink:type="simple"><rect fill="#FEFECE" filter="url(#fbjjfumw7ukyn)" height="112.7754" id="de.interactive_instruments.etf.detector.TestObjectTypeDetectorManager" style="stroke: #A80036; stroke-width: 1.5;" width="337" x="1481.5" y="183"/><ellipse cx="1550.25" cy="199" fill="#ADD1B2" rx="11" ry="11" style="stroke: #A80036; stroke-width: 1.0;"/><path d="M1553.2231,204.6431 Q1552.6421,204.9419 1552.0029,205.0913 Q1551.3638,205.2407 1550.6582,205.2407 Q1548.1514,205.2407 1546.8315,203.5889 Q1545.5117,201.937 1545.5117,198.8159 Q1545.5117,195.6865 1546.8315,194.0347 Q1548.1514,192.3828 1550.6582,192.3828 Q1551.3638,192.3828 1552.0112,192.5322 Q1552.6587,192.6816 1553.2231,192.9805 L1553.2231,195.7031 Q1552.5923,195.1221 1551.9988,194.8523 Q1551.4053,194.5825 1550.7744,194.5825 Q1549.4297,194.5825 1548.7449,195.6492 Q1548.0601,196.7158 1548.0601,198.8159 Q1548.0601,200.9077 1548.7449,201.9744 Q1549.4297,203.041 1550.7744,203.041 Q1551.4053,203.041 1551.9988,202.7712 Q1552.5923,202.5015 1553.2231,201.9204 Z "/><text fill="#000000" font-family="sans-serif" font-size="12" lengthAdjust="spacingAndGlyphs" textLength="191" x="1570.75" y="203.5352">TestObjectTypeDetectorManager</text><line style="stroke: #A80036; stroke-width: 1.5;" x1="1482.5" x2="1817.5" y1="215" y2="215"/><line style="stroke: #A80036; stroke-width: 1.5;" x1="1482.5" x2="1817.5" y1="223" y2="223"/><ellipse cx="1492.5" cy="234.9775" fill="#84BE84" rx="3" ry="3" style="stroke: #038048; stroke-width: 1.0;"/><text fill="#000000" font-family="sans-serif" font-size="11" lengthAdjust="spacingAndGlyphs" text-decoration="underline" textLength="262" x="1501.5" y="237.6348">getTypes(String[]): EidMap&lt;TestObjectTypeDto&gt;</text><line style="stroke: #000000; stroke-width: 1.0;" x1="1501.5" x2="1763.5" y1="239.6348" y2="239.6348"/><ellipse cx="1492.5" cy="247.9326" fill="#84BE84" rx="3" ry="3" style="stroke: #038048; stroke-width: 1.0;"/><text fill="#000000" font-family="sans-serif" font-size="11" lengthAdjust="spacingAndGlyphs" text-decoration="underline" textLength="311" x="1501.5" y="250.5898">getTypes(Collection&lt;EID&gt;): EidMap&lt;TestObjectTypeDto&gt;</text><line style="stroke: #000000; stroke-width: 1.0;" x1="1501.5" x2="1812.5" y1="252.5898" y2="252.5898"/><ellipse cx="1492.5" cy="260.8877" fill="#84BE84" rx="3" ry="3" style="stroke: #038048; stroke-width: 1.0;"/><text fill="#000000" font-family="sans-serif" font-size="11" lengthAdjust="spacingAndGlyphs" text-decoration="underline" textLength="278" x="1501.5" y="263.5449">getSupportedTypes(): EidMap&lt;TestObjectTypeDto&gt;</text><line style="stroke: #000000; stroke-width: 1.0;" x1="1501.5" x2="1779.5" y1="265.5449" y2="265.5449"/><ellipse cx="1492.5" cy="273.8428" fill="#84BE84" rx="3" ry="3" style="stroke: #038048; stroke-width: 1.0;"/><text fill="#000000" font-family="sans-serif" font-size="11" lengthAdjust="spacingAndGlyphs" text-decoration="underline" textLength="228" x="1501.5" y="276.5">detect(Resource): DetectedTestObjectType</text><line style="stroke: #000000; stroke-width: 1.0;" x1="1501.5" x2="1729.5" y1="278.5" y2="278.5"/><ellipse cx="1492.5" cy="286.7979" fill="#84BE84" rx="3" ry="3" style="stroke: #038048; stroke-width: 1.0;"/><text fill="#000000" font-family="sans-serif" font-size="11" lengthAdjust="spacingAndGlyphs" text-decoration="underline" textLength="285" x="1501.5" y="289.4551">detect(Resource, Set&lt;EID&gt;): DetectedTestObjectType</text><line style="stroke: #000000; stroke-width: 1.0;" x1="1501.5" x2="1786.5" y1="291.4551" y2="291.4551"/></a><!--class de.interactive_instruments.etf.detector.TestObjectTypeDetectionNotUnambiguousException--><a target="_top" xlink:actuate="onRequest" xlink:href="TestObjectTypeDetectionNotUnambiguousException.html" xlink:show="new" xlink:title="TestObjectTypeDetectionNotUnambiguousException.html" xlink:type="simple"><rect fill="#FEFECE" filter="url(#fbjjfumw7ukyn)" height="48" id="de.interactive_instruments.etf.detector.TestObjectTypeDetectionNotUnambiguousException" style="stroke: #A80036; stroke-width: 1.5;" width="332" x="1114" y="215.5"/><ellipse cx="1129" cy="231.5" fill="#ADD1B2" rx="11" ry="11" style="stroke: #A80036; stroke-width: 1.0;"/><path d="M1131.9731,237.1431 Q1131.3921,237.4419 1130.7529,237.5913 Q1130.1138,237.7407 1129.4082,237.7407 Q1126.9014,237.7407 1125.5815,236.0889 Q1124.2617,234.437 1124.2617,231.3159 Q1124.2617,228.1865 1125.5815,226.5347 Q1126.9014,224.8828 1129.4082,224.8828 Q1130.1138,224.8828 1130.7612,225.0322 Q1131.4087,225.1816 1131.9731,225.4805 L1131.9731,228.2031 Q1131.3423,227.6221 1130.7488,227.3523 Q1130.1553,227.0825 1129.5244,227.0825 Q1128.1797,227.0825 1127.4949,228.1492 Q1126.8101,229.2158 1126.8101,231.3159 Q1126.8101,233.4077 1127.4949,234.4744 Q1128.1797,235.541 1129.5244,235.541 Q1130.1553,235.541 1130.7488,235.2712 Q1131.3423,235.0015 1131.9731,234.4204 Z "/><text fill="#000000" font-family="sans-serif" font-size="12" lengthAdjust="spacingAndGlyphs" textLength="300" x="1143" y="236.0352">TestObjectTypeDetectionNotUnambiguousException</text><line style="stroke: #A80036; stroke-width: 1.5;" x1="1115" x2="1445" y1="247.5" y2="247.5"/><line style="stroke: #A80036; stroke-width: 1.5;" x1="1115" x2="1445" y1="255.5" y2="255.5"/></a><!--class de.interactive_instruments.etf.detector.TestObjectTypeDetector--><a target="_top" xlink:actuate="onRequest" xlink:href="TestObjectTypeDetector.html" xlink:show="new" xlink:title="TestObjectTypeDetector.html" xlink:type="simple"><rect fill="#FEFECE" filter="url(#fbjjfumw7ukyn)" height="112.7754" id="de.interactive_instruments.etf.detector.TestObjectTypeDetector" style="stroke: #A80036; stroke-width: 1.5;" width="337" x="1853.5" y="183"/><ellipse cx="1947.25" cy="199" fill="#B4A7E5" rx="11" ry="11" style="stroke: #A80036; stroke-width: 1.0;"/><path d="M1943.1777,194.7651 L1943.1777,192.6069 L1950.5571,192.6069 L1950.5571,194.7651 L1948.0918,194.7651 L1948.0918,202.8418 L1950.5571,202.8418 L1950.5571,205 L1943.1777,205 L1943.1777,202.8418 L1945.6431,202.8418 L1945.6431,194.7651 Z "/><text fill="#000000" font-family="sans-serif" font-size="12" font-style="italic" lengthAdjust="spacingAndGlyphs" textLength="141" x="1967.75" y="203.5352">TestObjectTypeDetector</text><line style="stroke: #A80036; stroke-width: 1.5;" x1="1854.5" x2="2189.5" y1="215" y2="215"/><line style="stroke: #A80036; stroke-width: 1.5;" x1="1854.5" x2="2189.5" y1="223" y2="223"/><ellipse cx="1864.5" cy="234.9775" fill="#84BE84" rx="3" ry="3" style="stroke: #038048; stroke-width: 1.0;"/><text fill="#000000" font-family="sans-serif" font-size="11" lengthAdjust="spacingAndGlyphs" textLength="254" x="1873.5" y="237.6348">detectType(Resource): DetectedTestObjectType</text><ellipse cx="1864.5" cy="247.9326" fill="#84BE84" rx="3" ry="3" style="stroke: #038048; stroke-width: 1.0;"/><text fill="#000000" font-family="sans-serif" font-size="11" lengthAdjust="spacingAndGlyphs" textLength="84" x="1873.5" y="250.5898">getPriority(): int</text><ellipse cx="1864.5" cy="260.8877" fill="#84BE84" rx="3" ry="3" style="stroke: #038048; stroke-width: 1.0;"/><text fill="#000000" font-family="sans-serif" font-size="11" lengthAdjust="spacingAndGlyphs" textLength="219" x="1873.5" y="263.5449">compareTo(TestObjectTypeDetector): int</text><ellipse cx="1864.5" cy="273.8428" fill="#84BE84" rx="3" ry="3" style="stroke: #038048; stroke-width: 1.0;"/><text fill="#000000" font-family="sans-serif" font-size="11" font-style="italic" lengthAdjust="spacingAndGlyphs" textLength="311" x="1873.5" y="276.5">detectType(Resource, Set&lt;EID&gt;): DetectedTestObjectType</text><ellipse cx="1864.5" cy="286.7979" fill="#84BE84" rx="3" ry="3" style="stroke: #038048; stroke-width: 1.0;"/><text fill="#000000" font-family="sans-serif" font-size="11" font-style="italic" lengthAdjust="spacingAndGlyphs" textLength="261" x="1873.5" y="289.4551">supportedTypes(): EidMap&lt;TestObjectTypeDto&gt;</text></a><!--class de.interactive_instruments.etf.detector.DetectedTestObjectType--><a target="_top" xlink:actuate="onRequest" xlink:href="DetectedTestObjectType.html" xlink:show="new" xlink:title="DetectedTestObjectType.html" xlink:type="simple"><rect fill="#FEFECE" filter="url(#fbjjfumw7ukyn)" height="86.8652" id="de.interactive_instruments.etf.detector.DetectedTestObjectType" style="stroke: #A80036; stroke-width: 1.5;" width="257" x="821.5" y="196"/><ellipse cx="873.75" cy="212" fill="#B4A7E5" rx="11" ry="11" style="stroke: #A80036; stroke-width: 1.0;"/><path d="M869.6777,207.7651 L869.6777,205.6069 L877.0571,205.6069 L877.0571,207.7651 L874.5918,207.7651 L874.5918,215.8418 L877.0571,215.8418 L877.0571,218 L869.6777,218 L869.6777,215.8418 L872.1431,215.8418 L872.1431,207.7651 Z "/><text fill="#000000" font-family="sans-serif" font-size="12" font-style="italic" lengthAdjust="spacingAndGlyphs" textLength="144" x="894.25" y="216.5352">DetectedTestObjectType</text><line style="stroke: #A80036; stroke-width: 1.5;" x1="822.5" x2="1077.5" y1="228" y2="228"/><line style="stroke: #A80036; stroke-width: 1.5;" x1="822.5" x2="1077.5" y1="236" y2="236"/><ellipse cx="832.5" cy="247.9775" fill="#84BE84" rx="3" ry="3" style="stroke: #038048; stroke-width: 1.0;"/><text fill="#000000" font-family="sans-serif" font-size="11" font-style="italic" lengthAdjust="spacingAndGlyphs" textLength="224" x="841.5" y="250.6348">enrichAndNormalize(TestObjectDto): void</text><ellipse cx="832.5" cy="260.9326" fill="#84BE84" rx="3" ry="3" style="stroke: #038048; stroke-width: 1.0;"/><text fill="#000000" font-family="sans-serif" font-size="11" font-style="italic" lengthAdjust="spacingAndGlyphs" textLength="192" x="841.5" y="263.5898">getNormalizedResource(): Resource</text><ellipse cx="832.5" cy="273.8877" fill="#84BE84" rx="3" ry="3" style="stroke: #038048; stroke-width: 1.0;"/><text fill="#000000" font-family="sans-serif" font-size="11" font-style="italic" lengthAdjust="spacingAndGlyphs" textLength="231" x="841.5" y="276.5449">toTestObjectTypeDto(): TestObjectTypeDto</text></a><!--class de.interactive_instruments.etf.detector.IncompatibleTestObjectTypeException--><a target="_top" xlink:actuate="onRequest" xlink:href="IncompatibleTestObjectTypeException.html" xlink:show="new" xlink:title="IncompatibleTestObjectTypeException.html" xlink:type="simple"><rect fill="#FEFECE" filter="url(#fbjjfumw7ukyn)" height="73.9102" id="de.interactive_instruments.etf.detector.IncompatibleTestObjectTypeException" style="stroke: #A80036; stroke-width: 1.5;" width="461" x="325.5" y="202.5"/><ellipse cx="440.75" cy="218.5" fill="#ADD1B2" rx="11" ry="11" style="stroke: #A80036; stroke-width: 1.0;"/><path d="M443.7231,224.1431 Q443.1421,224.4419 442.5029,224.5913 Q441.8638,224.7407 441.1582,224.7407 Q438.6514,224.7407 437.3315,223.0889 Q436.0117,221.437 436.0117,218.3159 Q436.0117,215.1865 437.3315,213.5347 Q438.6514,211.8828 441.1582,211.8828 Q441.8638,211.8828 442.5112,212.0322 Q443.1587,212.1816 443.7231,212.4805 L443.7231,215.2031 Q443.0923,214.6221 442.4988,214.3523 Q441.9053,214.0825 441.2744,214.0825 Q439.9297,214.0825 439.2449,215.1492 Q438.5601,216.2158 438.5601,218.3159 Q438.5601,220.4077 439.2449,221.4744 Q439.9297,222.541 441.2744,222.541 Q441.9053,222.541 442.4988,222.2712 Q443.0923,222.0015 443.7231,221.4204 Z "/><text fill="#000000" font-family="sans-serif" font-size="12" lengthAdjust="spacingAndGlyphs" textLength="222" x="461.25" y="223.0352">IncompatibleTestObjectTypeException</text><line style="stroke: #A80036; stroke-width: 1.5;" x1="326.5" x2="785.5" y1="234.5" y2="234.5"/><line style="stroke: #A80036; stroke-width: 1.5;" x1="326.5" x2="785.5" y1="242.5" y2="242.5"/><ellipse cx="336.5" cy="254.4775" fill="#84BE84" rx="3" ry="3" style="stroke: #038048; stroke-width: 1.0;"/><text fill="#000000" font-family="sans-serif" font-size="11" lengthAdjust="spacingAndGlyphs" textLength="435" x="345.5" y="257.1348">IncompatibleTestObjectTypeException(TestObjectType, DetectedTestObjectType)</text><ellipse cx="336.5" cy="267.4326" fill="#84BE84" rx="3" ry="3" style="stroke: #038048; stroke-width: 1.0;"/><text fill="#000000" font-family="sans-serif" font-size="11" lengthAdjust="spacingAndGlyphs" textLength="428" x="345.5" y="270.0898">IncompatibleTestObjectTypeException(Collection&lt;?&gt;, DetectedTestObjectType)</text></a><!--class java.lang.Exception--><rect fill="#FEFECE" filter="url(#fbjjfumw7ukyn)" height="48" id="java.lang.Exception" style="stroke: #A80036; stroke-width: 1.5;" width="88" x="512" y="56"/><ellipse cx="527" cy="72" fill="#ADD1B2" rx="11" ry="11" style="stroke: #A80036; stroke-width: 1.0;"/><path d="M529.9731,77.6431 Q529.3921,77.9419 528.7529,78.0913 Q528.1138,78.2407 527.4082,78.2407 Q524.9014,78.2407 523.5815,76.5889 Q522.2617,74.937 522.2617,71.8159 Q522.2617,68.6865 523.5815,67.0347 Q524.9014,65.3828 527.4082,65.3828 Q528.1138,65.3828 528.7612,65.5322 Q529.4087,65.6816 529.9731,65.9805 L529.9731,68.7031 Q529.3423,68.1221 528.7488,67.8523 Q528.1553,67.5825 527.5244,67.5825 Q526.1797,67.5825 525.4949,68.6492 Q524.8101,69.7158 524.8101,71.8159 Q524.8101,73.9077 525.4949,74.9744 Q526.1797,76.041 527.5244,76.041 Q528.1553,76.041 528.7488,75.7712 Q529.3423,75.5015 529.9731,74.9204 Z "/><text fill="#000000" font-family="sans-serif" font-size="12" lengthAdjust="spacingAndGlyphs" textLength="56" x="541" y="76.5352">Exception</text><line style="stroke: #A80036; stroke-width: 1.5;" x1="513" x2="599" y1="88" y2="88"/><line style="stroke: #A80036; stroke-width: 1.5;" x1="513" x2="599" y1="96" y2="96"/><!--class java.lang.Comparable--><rect fill="#FEFECE" filter="url(#fbjjfumw7ukyn)" height="60.9551" id="java.lang.Comparable" style="stroke: #A80036; stroke-width: 1.5;" width="122" x="635" y="49.5"/><ellipse cx="653.15" cy="65.5" fill="#B4A7E5" rx="11" ry="11" style="stroke: #A80036; stroke-width: 1.0;"/><path d="M649.0777,61.2651 L649.0777,59.1069 L656.4571,59.1069 L656.4571,61.2651 L653.9918,61.2651 L653.9918,69.3418 L656.4571,69.3418 L656.4571,71.5 L649.0777,71.5 L649.0777,69.3418 L651.5431,69.3418 L651.5431,61.2651 Z "/><text fill="#000000" font-family="sans-serif" font-size="12" font-style="italic" lengthAdjust="spacingAndGlyphs" textLength="71" x="667.85" y="70.0352">Comparable</text><rect fill="#FFFFFF" height="16.1328" style="stroke: #000000; stroke-width: 1.0; stroke-dasharray: 2.0,2.0;" width="10" x="750" y="46.5"/><text fill="#000000" font-family="sans-serif" font-size="12" font-style="italic" lengthAdjust="spacingAndGlyphs" textLength="8" x="751" y="59.1016">T</text><line style="stroke: #A80036; stroke-width: 1.5;" x1="636" x2="756" y1="81.5" y2="81.5"/><line style="stroke: #A80036; stroke-width: 1.5;" x1="636" x2="756" y1="89.5" y2="89.5"/><ellipse cx="646" cy="101.4775" fill="#84BE84" rx="3" ry="3" style="stroke: #038048; stroke-width: 1.0;"/><text fill="#000000" font-family="sans-serif" font-size="11" font-style="italic" lengthAdjust="spacingAndGlyphs" textLength="96" x="655" y="104.1348">compareTo(T): int</text><!--class de.interactive_instruments.Initializable--><rect fill="#FEFECE" filter="url(#fbjjfumw7ukyn)" height="73.9102" id="de.interactive_instruments.Initializable" style="stroke: #A80036; stroke-width: 1.5;" width="143" x="1866.5" y="43"/><ellipse cx="1902.2" cy="59" fill="#B4A7E5" rx="11" ry="11" style="stroke: #A80036; stroke-width: 1.0;"/><path d="M1898.1277,54.7651 L1898.1277,52.6069 L1905.5071,52.6069 L1905.5071,54.7651 L1903.0418,54.7651 L1903.0418,62.8418 L1905.5071,62.8418 L1905.5071,65 L1898.1277,65 L1898.1277,62.8418 L1900.5931,62.8418 L1900.5931,54.7651 Z "/><text fill="#000000" font-family="sans-serif" font-size="12" font-style="italic" lengthAdjust="spacingAndGlyphs" textLength="65" x="1920.8" y="63.5352">Initializable</text><line style="stroke: #A80036; stroke-width: 1.5;" x1="1867.5" x2="2008.5" y1="75" y2="75"/><line style="stroke: #A80036; stroke-width: 1.5;" x1="1867.5" x2="2008.5" y1="83" y2="83"/><ellipse cx="1877.5" cy="94.9775" fill="#84BE84" rx="3" ry="3" style="stroke: #038048; stroke-width: 1.0;"/><text fill="#000000" font-family="sans-serif" font-size="11" font-style="italic" lengthAdjust="spacingAndGlyphs" textLength="54" x="1886.5" y="97.6348">init(): void</text><ellipse cx="1877.5" cy="107.9326" fill="#84BE84" rx="3" ry="3" style="stroke: #038048; stroke-width: 1.0;"/><text fill="#000000" font-family="sans-serif" font-size="11" font-style="italic" lengthAdjust="spacingAndGlyphs" textLength="117" x="1886.5" y="110.5898">isInitialized(): boolean</text><!--class de.interactive_instruments.Releasable--><rect fill="#FEFECE" filter="url(#fbjjfumw7ukyn)" height="60.9551" id="de.interactive_instruments.Releasable" style="stroke: #A80036; stroke-width: 1.5;" width="101" x="2044.5" y="49.5"/><ellipse cx="2062.2" cy="65.5" fill="#B4A7E5" rx="11" ry="11" style="stroke: #A80036; stroke-width: 1.0;"/><path d="M2058.1277,61.2651 L2058.1277,59.1069 L2065.5071,59.1069 L2065.5071,61.2651 L2063.0418,61.2651 L2063.0418,69.3418 L2065.5071,69.3418 L2065.5071,71.5 L2058.1277,71.5 L2058.1277,69.3418 L2060.5931,69.3418 L2060.5931,61.2651 Z "/><text fill="#000000" font-family="sans-serif" font-size="12" font-style="italic" lengthAdjust="spacingAndGlyphs" textLength="63" x="2076.8" y="70.0352">Releasable</text><line style="stroke: #A80036; stroke-width: 1.5;" x1="2045.5" x2="2144.5" y1="81.5" y2="81.5"/><line style="stroke: #A80036; stroke-width: 1.5;" x1="2045.5" x2="2144.5" y1="89.5" y2="89.5"/><ellipse cx="2055.5" cy="101.4775" fill="#84BE84" rx="3" ry="3" style="stroke: #038048; stroke-width: 1.0;"/><text fill="#000000" font-family="sans-serif" font-size="11" font-style="italic" lengthAdjust="spacingAndGlyphs" textLength="75" x="2064.5" y="104.1348">release(): void</text><!--class de.interactive_instruments.etf.model.capabilities.TestObjectType--><rect fill="#FEFECE" filter="url(#fbjjfumw7ukyn)" height="203.4609" id="de.interactive_instruments.etf.model.capabilities.TestObjectType" style="stroke: #A80036; stroke-width: 1.5;" width="291" x="633.5" y="378"/><ellipse cx="728.75" cy="394" fill="#B4A7E5" rx="11" ry="11" style="stroke: #A80036; stroke-width: 1.0;"/><path d="M724.6777,389.7651 L724.6777,387.6069 L732.0571,387.6069 L732.0571,389.7651 L729.5918,389.7651 L729.5918,397.8418 L732.0571,397.8418 L732.0571,400 L724.6777,400 L724.6777,397.8418 L727.1431,397.8418 L727.1431,389.7651 Z "/><text fill="#000000" font-family="sans-serif" font-size="12" font-style="italic" lengthAdjust="spacingAndGlyphs" textLength="92" x="749.25" y="398.5352">TestObjectType</text><line style="stroke: #A80036; stroke-width: 1.5;" x1="634.5" x2="923.5" y1="410" y2="410"/><line style="stroke: #A80036; stroke-width: 1.5;" x1="634.5" x2="923.5" y1="418" y2="418"/><ellipse cx="644.5" cy="429.9775" fill="#84BE84" rx="3" ry="3" style="stroke: #038048; stroke-width: 1.0;"/><text fill="#000000" font-family="sans-serif" font-size="11" font-style="italic" lengthAdjust="spacingAndGlyphs" textLength="91" x="653.5" y="432.6348">getLabel(): String</text><ellipse cx="644.5" cy="442.9326" fill="#84BE84" rx="3" ry="3" style="stroke: #038048; stroke-width: 1.0;"/><text fill="#000000" font-family="sans-serif" font-size="11" font-style="italic" lengthAdjust="spacingAndGlyphs" textLength="125" x="653.5" y="445.5898">getDescription(): String</text><ellipse cx="644.5" cy="455.8877" fill="#84BE84" rx="3" ry="3" style="stroke: #038048; stroke-width: 1.0;"/><text fill="#000000" font-family="sans-serif" font-size="11" font-style="italic" lengthAdjust="spacingAndGlyphs" textLength="149" x="653.5" y="458.5449">getParent(): TestObjectType</text><ellipse cx="644.5" cy="468.8428" fill="#84BE84" rx="3" ry="3" style="stroke: #038048; stroke-width: 1.0;"/><text fill="#000000" font-family="sans-serif" font-size="11" font-style="italic" lengthAdjust="spacingAndGlyphs" textLength="223" x="653.5" y="471.5">getSubTypes(): List&lt;TestObjectTypeDto&gt;</text><ellipse cx="644.5" cy="481.7979" fill="#84BE84" rx="3" ry="3" style="stroke: #038048; stroke-width: 1.0;"/><text fill="#000000" font-family="sans-serif" font-size="11" font-style="italic" lengthAdjust="spacingAndGlyphs" textLength="206" x="653.5" y="484.4551">getFilenameExtensions(): List&lt;String&gt;</text><ellipse cx="644.5" cy="494.7529" fill="#84BE84" rx="3" ry="3" style="stroke: #038048; stroke-width: 1.0;"/><text fill="#000000" font-family="sans-serif" font-size="11" font-style="italic" lengthAdjust="spacingAndGlyphs" textLength="160" x="653.5" y="497.4102">getMimeTypes(): List&lt;String&gt;</text><ellipse cx="644.5" cy="507.708" fill="#84BE84" rx="3" ry="3" style="stroke: #038048; stroke-width: 1.0;"/><text fill="#000000" font-family="sans-serif" font-size="11" font-style="italic" lengthAdjust="spacingAndGlyphs" textLength="174" x="653.5" y="510.3652">getDetectionExpression(): String</text><ellipse cx="644.5" cy="520.6631" fill="#84BE84" rx="3" ry="3" style="stroke: #038048; stroke-width: 1.0;"/><text fill="#000000" font-family="sans-serif" font-size="11" font-style="italic" lengthAdjust="spacingAndGlyphs" textLength="254" x="653.5" y="523.3203">getDetectionExpressionType(): ExpressionType</text><ellipse cx="644.5" cy="533.6182" fill="#84BE84" rx="3" ry="3" style="stroke: #038048; stroke-width: 1.0;"/><text fill="#000000" font-family="sans-serif" font-size="11" font-style="italic" lengthAdjust="spacingAndGlyphs" textLength="151" x="653.5" y="536.2754">getLabelExpression(): String</text><ellipse cx="644.5" cy="546.5732" fill="#84BE84" rx="3" ry="3" style="stroke: #038048; stroke-width: 1.0;"/><text fill="#000000" font-family="sans-serif" font-size="11" font-style="italic" lengthAdjust="spacingAndGlyphs" textLength="231" x="653.5" y="549.2305">getLabelExpressionType(): ExpressionType</text><ellipse cx="644.5" cy="559.5283" fill="#84BE84" rx="3" ry="3" style="stroke: #038048; stroke-width: 1.0;"/><text fill="#000000" font-family="sans-serif" font-size="11" font-style="italic" lengthAdjust="spacingAndGlyphs" textLength="185" x="653.5" y="562.1855">getDescriptionExpression(): String</text><ellipse cx="644.5" cy="572.4834" fill="#84BE84" rx="3" ry="3" style="stroke: #038048; stroke-width: 1.0;"/><text fill="#000000" font-family="sans-serif" font-size="11" font-style="italic" lengthAdjust="spacingAndGlyphs" textLength="265" x="653.5" y="575.1406">getDescriptionExpressionType(): ExpressionType</text><!--link java.lang.Exception to de.interactive_instruments.etf.detector.TestObjectTypeNotDetected--><path d="M492.219,95.6784 C441.3633,109.094 368.8355,130.2898 308,156 C276.9385,169.1272 243.962,186.7505 216.6916,202.4232 " fill="none" id="java.lang.Exception-de.interactive_instruments.etf.detector.TestObjectTypeNotDetected" style="stroke: #A80036; stroke-width: 1.0;"/><polygon fill="none" points="490.4668,88.9014,511.5825,90.67,493.9727,102.4553,490.4668,88.9014" style="stroke: #A80036; stroke-width: 1.0;"/><!--link de.interactive_instruments.Initializable to de.interactive_instruments.etf.detector.TestObjectTypeDetector--><path d="M1967.146,135.3427 C1975.2587,150.7472 1984.0796,167.4963 1992.2277,182.9681 " fill="none" id="de.interactive_instruments.Initializable-de.interactive_instruments.etf.detector.TestObjectTypeDetector" style="stroke: #A80036; stroke-width: 1.0; stroke-dasharray: 7.0,7.0;"/><polygon fill="none" points="1960.8202,138.3535,1957.6943,117.3957,1973.2074,131.8298,1960.8202,138.3535" style="stroke: #A80036; stroke-width: 1.0;"/><!--link de.interactive_instruments.Releasable to de.interactive_instruments.etf.detector.TestObjectTypeDetector--><path d="M2072.5315,129.0922 C2064.7733,146.0432 2056.0176,165.1739 2048.0005,182.6907 " fill="none" id="de.interactive_instruments.Releasable-de.interactive_instruments.etf.detector.TestObjectTypeDetector" style="stroke: #A80036; stroke-width: 1.0; stroke-dasharray: 7.0,7.0;"/><polygon fill="none" points="2066.2365,126.0258,2080.9249,110.7532,2078.9666,131.8522,2066.2365,126.0258" style="stroke: #A80036; stroke-width: 1.0;"/><!--link java.lang.Comparable to de.interactive_instruments.etf.detector.TestObjectTypeDetector--><path d="M777.6411,81.6944 C1003.8306,86.983 1635.1119,105.9305 1836,156 C1861.7592,162.4202 1888.3897,172.2455 1913.1699,182.9296 " fill="none" id="java.lang.Comparable-de.interactive_instruments.etf.detector.TestObjectTypeDetector" style="stroke: #A80036; stroke-width: 1.0; stroke-dasharray: 7.0,7.0;"/><polygon fill="none" points="777.1907,88.686,757.3556,81.2315,777.5101,74.6896,777.1907,88.686" style="stroke: #A80036; stroke-width: 1.0;"/><!--link de.interactive_instruments.etf.model.capabilities.TestObjectType to de.interactive_instruments.etf.detector.DetectedTestObjectType--><path d="M863.146,361.4003 C883.0498,333.4653 903.0513,305.3929 918.8348,283.2406 " fill="none" id="de.interactive_instruments.etf.model.capabilities.TestObjectType-de.interactive_instruments.etf.detector.DetectedTestObjectType" style="stroke: #A80036; stroke-width: 1.0; stroke-dasharray: 7.0,7.0;"/><polygon fill="none" points="868.7775,365.5599,851.471,377.7863,857.3756,357.436,868.7775,365.5599" style="stroke: #A80036; stroke-width: 1.0;"/><!--link java.lang.Exception to de.interactive_instruments.etf.detector.IncompatibleTestObjectTypeException--><path d="M556,124.4092 C556,148.9172 556,179.0069 556,202.2726 " fill="none" id="java.lang.Exception-de.interactive_instruments.etf.detector.IncompatibleTestObjectTypeException" style="stroke: #A80036; stroke-width: 1.0;"/><polygon fill="none" points="549.0001,124.2247,556,104.2246,563.0001,124.2246,549.0001,124.2247" style="stroke: #A80036; stroke-width: 1.0;"/><!--link de.interactive_instruments.etf.detector.IncompatibleTestObjectTypeException to de.interactive_instruments.etf.model.capabilities.TestObjectType--><path d="M590.5991,276.7367 C614.9145,302.9058 648.7432,339.3133 681.0348,374.0666 " fill="none" id="de.interactive_instruments.etf.detector.IncompatibleTestObjectTypeException-de.interactive_instruments.etf.model.capabilities.TestObjectType" style="stroke: #A80036; stroke-width: 1.0;"/><polygon fill="#A80036" points="684.558,377.8584,681.3621,368.5425,681.1546,374.1955,675.5015,373.988,684.558,377.8584" style="stroke: #A80036; stroke-width: 1.0;"/><text fill="#000000" font-family="sans-serif" font-size="13" lengthAdjust="spacingAndGlyphs" textLength="152" x="648" y="339.5684">detectedTestObjectType</text><!--
@startuml

    namespace de.interactive_instruments.etf.detector {

        class TestObjectTypeNotDetected [[TestObjectTypeNotDetected.html]] {
            +TestObjectTypeNotDetected(TestObjectType)
            +TestObjectTypeNotDetected()
        }

        class TestObjectTypeDetectorManager [[TestObjectTypeDetectorManager.html]] {
            {static} +getTypes(String[]): EidMap<TestObjectTypeDto>
            {static} +getTypes(Collection<EID>): EidMap<TestObjectTypeDto>
            {static} +getSupportedTypes(): EidMap<TestObjectTypeDto>
            {static} +detect(Resource): DetectedTestObjectType
            {static} +detect(Resource, Set<EID>): DetectedTestObjectType
        }

        class TestObjectTypeDetectionNotUnambiguousException [[TestObjectTypeDetectionNotUnambiguousException.html]] {
        }

        interface TestObjectTypeDetector [[TestObjectTypeDetector.html]] {
            +detectType(Resource): DetectedTestObjectType
            +getPriority(): int
            +compareTo(TestObjectTypeDetector): int
            {abstract} +detectType(Resource, Set<EID>): DetectedTestObjectType
            {abstract} +supportedTypes(): EidMap<TestObjectTypeDto>
        }

        interface DetectedTestObjectType [[DetectedTestObjectType.html]] {
            {abstract} +enrichAndNormalize(TestObjectDto): void
            {abstract} +getNormalizedResource(): Resource
            {abstract} +toTestObjectTypeDto(): TestObjectTypeDto
        }

        class IncompatibleTestObjectTypeException [[IncompatibleTestObjectTypeException.html]] {
            +IncompatibleTestObjectTypeException(TestObjectType, DetectedTestObjectType)
            +IncompatibleTestObjectTypeException(Collection<?>, DetectedTestObjectType)
        }

        class java.lang.Exception
        java.lang.Exception <|- - TestObjectTypeNotDetected

        interface de.interactive_instruments.Initializable {
            {abstract} +init(): void
            {abstract} +isInitialized(): boolean
        }
        de.interactive_instruments.Initializable <|.. TestObjectTypeDetector

        interface de.interactive_instruments.Releasable {
            {abstract} +release(): void
        }
        de.interactive_instruments.Releasable <|.. TestObjectTypeDetector

        interface java.lang.Comparable<T> {
            {abstract} +compareTo(T): int
        }
        java.lang.Comparable <|.. TestObjectTypeDetector

        interface de.interactive_instruments.etf.model.capabilities.TestObjectType {
            {abstract} +getLabel(): String
            {abstract} +getDescription(): String
            {abstract} +getParent(): TestObjectType
            {abstract} +getSubTypes(): List<TestObjectTypeDto>
            {abstract} +getFilenameExtensions(): List<String>
            {abstract} +getMimeTypes(): List<String>
            {abstract} +getDetectionExpression(): String
            {abstract} +getDetectionExpressionType(): ExpressionType
            {abstract} +getLabelExpression(): String
            {abstract} +getLabelExpressionType(): ExpressionType
            {abstract} +getDescriptionExpression(): String
            {abstract} +getDescriptionExpressionType(): ExpressionType
        }
        de.interactive_instruments.etf.model.capabilities.TestObjectType <|.. DetectedTestObjectType

        java.lang.Exception <|- - IncompatibleTestObjectTypeException

        IncompatibleTestObjectTypeException - -> de.interactive_instruments.etf.model.capabilities.TestObjectType: detectedTestObjectType

    }

@enduml

PlantUML version 1.2018.08(Sun Jun 24 14:31:00 CEST 2018)
(APACHE source distribution)
Java Runtime: Java(TM) SE Runtime Environment
JVM: Java HotSpot(TM) 64-Bit Server VM
Java Version: 1.8.0_151-b12
Operating System: Mac OS X
OS Version: 10.13.6
Default Encoding: UTF-8
Language: en
Country: US
--></g></svg>