<?xml version="1.0" encoding="UTF-8" standalone="no"?><svg xmlns="http://www.w3.org/2000/svg" xmlns:xlink="http://www.w3.org/1999/xlink" contentScriptType="application/ecmascript" contentStyleType="text/css" height="131px" preserveAspectRatio="none" style="width:354px;height:131px;" version="1.1" viewBox="0 0 354 131" width="354px" zoomAndPan="magnify"><defs><filter height="300%" id="f78uzqjmo32k2" width="300%" x="-1" y="-1"><feGaussianBlur result="blurOut" stdDeviation="2.0"/><feColorMatrix in="blurOut" result="blurOut2" type="matrix" values="0 0 0 0 0 0 0 0 0 0 0 0 0 0 0 0 0 0 .4 0"/><feOffset dx="4.0" dy="4.0" in="blurOut2" result="blurOut3"/><feBlend in="SourceGraphic" in2="blurOut3" mode="normal"/></filter></defs><g><!--class TestObjectTypeDetectorManager--><a target="_top" xlink:actuate="onRequest" xlink:href="TestObjectTypeDetectorManager.html" xlink:show="new" xlink:title="TestObjectTypeDetectorManager.html" xlink:type="simple"><rect fill="#FEFECE" filter="url(#f78uzqjmo32k2)" height="112.7754" id="TestObjectTypeDetectorManager" style="stroke: #A80036; stroke-width: 1.5;" width="337" x="6" y="8"/><ellipse cx="74.75" cy="24" fill="#ADD1B2" rx="11" ry="11" style="stroke: #A80036; stroke-width: 1.0;"/><path d="M77.7231,29.6431 Q77.1421,29.9419 76.5029,30.0913 Q75.8638,30.2407 75.1582,30.2407 Q72.6514,30.2407 71.3315,28.5889 Q70.0117,26.937 70.0117,23.8159 Q70.0117,20.6865 71.3315,19.0347 Q72.6514,17.3828 75.1582,17.3828 Q75.8638,17.3828 76.5112,17.5322 Q77.1587,17.6816 77.7231,17.9805 L77.7231,20.7031 Q77.0923,20.1221 76.4988,19.8523 Q75.9053,19.5825 75.2744,19.5825 Q73.9297,19.5825 73.2449,20.6492 Q72.5601,21.7158 72.5601,23.8159 Q72.5601,25.9077 73.2449,26.9744 Q73.9297,28.041 75.2744,28.041 Q75.9053,28.041 76.4988,27.7712 Q77.0923,27.5015 77.7231,26.9204 Z "/><text fill="#000000" font-family="sans-serif" font-size="12" lengthAdjust="spacingAndGlyphs" textLength="191" x="95.25" y="28.5352">TestObjectTypeDetectorManager</text><line style="stroke: #A80036; stroke-width: 1.5;" x1="7" x2="342" y1="40" y2="40"/><line style="stroke: #A80036; stroke-width: 1.5;" x1="7" x2="342" y1="48" y2="48"/><ellipse cx="17" cy="59.9775" fill="#84BE84" rx="3" ry="3" style="stroke: #038048; stroke-width: 1.0;"/><text fill="#000000" font-family="sans-serif" font-size="11" lengthAdjust="spacingAndGlyphs" text-decoration="underline" textLength="262" x="26" y="62.6348">getTypes(String[]): EidMap&lt;TestObjectTypeDto&gt;</text><line style="stroke: #000000; stroke-width: 1.0;" x1="26" x2="288" y1="64.6348" y2="64.6348"/><ellipse cx="17" cy="72.9326" fill="#84BE84" rx="3" ry="3" style="stroke: #038048; stroke-width: 1.0;"/><text fill="#000000" font-family="sans-serif" font-size="11" lengthAdjust="spacingAndGlyphs" text-decoration="underline" textLength="311" x="26" y="75.5898">getTypes(Collection&lt;EID&gt;): EidMap&lt;TestObjectTypeDto&gt;</text><line style="stroke: #000000; stroke-width: 1.0;" x1="26" x2="337" y1="77.5898" y2="77.5898"/><ellipse cx="17" cy="85.8877" fill="#84BE84" rx="3" ry="3" style="stroke: #038048; stroke-width: 1.0;"/><text fill="#000000" font-family="sans-serif" font-size="11" lengthAdjust="spacingAndGlyphs" text-decoration="underline" textLength="278" x="26" y="88.5449">getSupportedTypes(): EidMap&lt;TestObjectTypeDto&gt;</text><line style="stroke: #000000; stroke-width: 1.0;" x1="26" x2="304" y1="90.5449" y2="90.5449"/><ellipse cx="17" cy="98.8428" fill="#84BE84" rx="3" ry="3" style="stroke: #038048; stroke-width: 1.0;"/><text fill="#000000" font-family="sans-serif" font-size="11" lengthAdjust="spacingAndGlyphs" text-decoration="underline" textLength="228" x="26" y="101.5">detect(Resource): DetectedTestObjectType</text><line style="stroke: #000000; stroke-width: 1.0;" x1="26" x2="254" y1="103.5" y2="103.5"/><ellipse cx="17" cy="111.7979" fill="#84BE84" rx="3" ry="3" style="stroke: #038048; stroke-width: 1.0;"/><text fill="#000000" font-family="sans-serif" font-size="11" lengthAdjust="spacingAndGlyphs" text-decoration="underline" textLength="285" x="26" y="114.4551">detect(Resource, Set&lt;EID&gt;): DetectedTestObjectType</text><line style="stroke: #000000; stroke-width: 1.0;" x1="26" x2="311" y1="116.4551" y2="116.4551"/></a><!--
@startuml

    class TestObjectTypeDetectorManager [[TestObjectTypeDetectorManager.html]] {
        {static} +getTypes(String[]): EidMap<TestObjectTypeDto>
        {static} +getTypes(Collection<EID>): EidMap<TestObjectTypeDto>
        {static} +getSupportedTypes(): EidMap<TestObjectTypeDto>
        {static} +detect(Resource): DetectedTestObjectType
        {static} +detect(Resource, Set<EID>): DetectedTestObjectType
    }

@enduml

PlantUML version 1.2018.08(Sun Jun 24 14:31:00 CEST 2018)
(APACHE source distribution)
Java Runtime: Java(TM) SE Runtime Environment
JVM: Java HotSpot(TM) 64-Bit Server VM
Java Version: 1.8.0_151-b12
Operating System: Mac OS X
OS Version: 10.13.6
Default Encoding: UTF-8
Language: en
Country: US
--></g></svg>