<?xml version="1.0" encoding="UTF-8" standalone="no"?><svg xmlns="http://www.w3.org/2000/svg" xmlns:xlink="http://www.w3.org/1999/xlink" contentScriptType="application/ecmascript" contentStyleType="text/css" height="105px" preserveAspectRatio="none" style="width:299px;height:105px;" version="1.1" viewBox="0 0 299 105" width="299px" zoomAndPan="magnify"><defs><filter height="300%" id="f1eoydoo0n3wnw" width="300%" x="-1" y="-1"><feGaussianBlur result="blurOut" stdDeviation="2.0"/><feColorMatrix in="blurOut" result="blurOut2" type="matrix" values="0 0 0 0 0 0 0 0 0 0 0 0 0 0 0 0 0 0 .4 0"/><feOffset dx="4.0" dy="4.0" in="blurOut2" result="blurOut3"/><feBlend in="SourceGraphic" in2="blurOut3" mode="normal"/></filter></defs><g><!--class LangTranslationTemplateCollectionDto--><a target="_top" xlink:actuate="onRequest" xlink:href="LangTranslationTemplateCollectionDto.html" xlink:show="new" xlink:title="LangTranslationTemplateCollectionDto.html" xlink:type="simple"><rect fill="#FEFECE" filter="url(#f1eoydoo0n3wnw)" height="86.8652" id="LangTranslationTemplateCollectionDto" style="stroke: #A80036; stroke-width: 1.5;" width="282" x="6" y="8"/><ellipse cx="34.05" cy="24" fill="#ADD1B2" rx="11" ry="11" style="stroke: #A80036; stroke-width: 1.0;"/><path d="M37.0231,29.6431 Q36.4421,29.9419 35.8029,30.0913 Q35.1638,30.2407 34.4582,30.2407 Q31.9514,30.2407 30.6315,28.5889 Q29.3117,26.937 29.3117,23.8159 Q29.3117,20.6865 30.6315,19.0347 Q31.9514,17.3828 34.4582,17.3828 Q35.1638,17.3828 35.8112,17.5322 Q36.4587,17.6816 37.0231,17.9805 L37.0231,20.7031 Q36.3923,20.1221 35.7988,19.8523 Q35.2053,19.5825 34.5744,19.5825 Q33.2297,19.5825 32.5449,20.6492 Q31.8601,21.7158 31.8601,23.8159 Q31.8601,25.9077 32.5449,26.9744 Q33.2297,28.041 34.5744,28.041 Q35.2053,28.041 35.7988,27.7712 Q36.3923,27.5015 37.0231,26.9204 Z "/><text fill="#000000" font-family="sans-serif" font-size="12" lengthAdjust="spacingAndGlyphs" textLength="221" x="50.95" y="28.5352">LangTranslationTemplateCollectionDto</text><line style="stroke: #A80036; stroke-width: 1.5;" x1="7" x2="287" y1="40" y2="40"/><line style="stroke: #A80036; stroke-width: 1.5;" x1="7" x2="287" y1="48" y2="48"/><ellipse cx="17" cy="59.9775" fill="#84BE84" rx="3" ry="3" style="stroke: #038048; stroke-width: 1.0;"/><text fill="#000000" font-family="sans-serif" font-size="11" lengthAdjust="spacingAndGlyphs" textLength="93" x="26" y="62.6348">getName(): String</text><ellipse cx="17" cy="72.9326" fill="#84BE84" rx="3" ry="3" style="stroke: #038048; stroke-width: 1.0;"/><text fill="#000000" font-family="sans-serif" font-size="11" lengthAdjust="spacingAndGlyphs" textLength="256" x="26" y="75.5898">getByLanguage(String): TranslationTemplateDto</text><ellipse cx="17" cy="85.8877" fill="#84BE84" rx="3" ry="3" style="stroke: #038048; stroke-width: 1.0;"/><text fill="#000000" font-family="sans-serif" font-size="11" lengthAdjust="spacingAndGlyphs" textLength="155" x="26" y="88.5449">getLanguages(): Set&lt;String&gt;</text></a><!--
@startuml

    class LangTranslationTemplateCollectionDto [[LangTranslationTemplateCollectionDto.html]] {
        +getName(): String
        +getByLanguage(String): TranslationTemplateDto
        +getLanguages(): Set<String>
    }

@enduml

PlantUML version 1.2018.08(Sun Jun 24 14:31:00 CEST 2018)
(APACHE source distribution)
Java Runtime: Java(TM) SE Runtime Environment
JVM: Java HotSpot(TM) 64-Bit Server VM
Java Version: 1.8.0_151-b12
Operating System: Mac OS X
OS Version: 10.13.6
Default Encoding: UTF-8
Language: en
Country: US
--></g></svg>