<?xml version="1.0" encoding="UTF-8" standalone="no"?><svg xmlns="http://www.w3.org/2000/svg" xmlns:xlink="http://www.w3.org/1999/xlink" contentScriptType="application/ecmascript" contentStyleType="text/css" height="470px" preserveAspectRatio="none" style="width:1621px;height:470px;" version="1.1" viewBox="0 0 1621 470" width="1621px" zoomAndPan="magnify"><defs><filter height="300%" id="f1w3g9aabqoug4" width="300%" x="-1" y="-1"><feGaussianBlur result="blurOut" stdDeviation="2.0"/><feColorMatrix in="blurOut" result="blurOut2" type="matrix" values="0 0 0 0 0 0 0 0 0 0 0 0 0 0 0 0 0 0 .4 0"/><feOffset dx="4.0" dy="4.0" in="blurOut2" result="blurOut3"/><feBlend in="SourceGraphic" in2="blurOut3" mode="normal"/></filter></defs><g><!--cluster de.interactive_instruments.etf.dal.dto.translation--><polygon fill="#FFFFFF" filter="url(#f1w3g9aabqoug4)" points="14,124,368,124,375,146.4883,1599,146.4883,1599,458,14,458,14,124" style="stroke: #000000; stroke-width: 1.5;"/><line style="stroke: #000000; stroke-width: 1.5;" x1="14" x2="375" y1="146.4883" y2="146.4883"/><text fill="#000000" font-family="sans-serif" font-size="14" font-weight="bold" lengthAdjust="spacingAndGlyphs" textLength="348" x="18" y="139.5352">de.interactive_instruments.etf.dal.dto.translation</text><!--cluster de.interactive_instruments.etf.dal.dto--><polygon fill="#FFFFFF" filter="url(#f1w3g9aabqoug4)" points="368,16,640,16,647,38.4883,650,38.4883,650,99,368,99,368,16" style="stroke: #000000; stroke-width: 1.5;"/><line style="stroke: #000000; stroke-width: 1.5;" x1="368" x2="647" y1="38.4883" y2="38.4883"/><text fill="#000000" font-family="sans-serif" font-size="14" font-weight="bold" lengthAdjust="spacingAndGlyphs" textLength="266" x="372" y="31.5352">de.interactive_instruments.etf.dal.dto</text><!--class de.interactive_instruments.etf.dal.dto.translation.LangTranslationTemplateCollectionDto--><a target="_top" xlink:actuate="onRequest" xlink:href="LangTranslationTemplateCollectionDto.html" xlink:show="new" xlink:title="LangTranslationTemplateCollectionDto.html" xlink:type="simple"><rect fill="#FEFECE" filter="url(#f1w3g9aabqoug4)" height="86.8652" id="de.interactive_instruments.etf.dal.dto.translation.LangTranslationTemplateCollectionDto" style="stroke: #A80036; stroke-width: 1.5;" width="282" x="1309" y="177"/><ellipse cx="1337.05" cy="193" fill="#ADD1B2" rx="11" ry="11" style="stroke: #A80036; stroke-width: 1.0;"/><path d="M1340.0231,198.6431 Q1339.4421,198.9419 1338.8029,199.0913 Q1338.1638,199.2407 1337.4582,199.2407 Q1334.9514,199.2407 1333.6315,197.5889 Q1332.3117,195.937 1332.3117,192.8159 Q1332.3117,189.6865 1333.6315,188.0347 Q1334.9514,186.3828 1337.4582,186.3828 Q1338.1638,186.3828 1338.8112,186.5322 Q1339.4587,186.6816 1340.0231,186.9805 L1340.0231,189.7031 Q1339.3923,189.1221 1338.7988,188.8523 Q1338.2053,188.5825 1337.5744,188.5825 Q1336.2297,188.5825 1335.5449,189.6492 Q1334.8601,190.7158 1334.8601,192.8159 Q1334.8601,194.9077 1335.5449,195.9744 Q1336.2297,197.041 1337.5744,197.041 Q1338.2053,197.041 1338.7988,196.7712 Q1339.3923,196.5015 1340.0231,195.9204 Z "/><text fill="#000000" font-family="sans-serif" font-size="12" lengthAdjust="spacingAndGlyphs" textLength="221" x="1353.95" y="197.5352">LangTranslationTemplateCollectionDto</text><line style="stroke: #A80036; stroke-width: 1.5;" x1="1310" x2="1590" y1="209" y2="209"/><line style="stroke: #A80036; stroke-width: 1.5;" x1="1310" x2="1590" y1="217" y2="217"/><ellipse cx="1320" cy="228.9775" fill="#84BE84" rx="3" ry="3" style="stroke: #038048; stroke-width: 1.0;"/><text fill="#000000" font-family="sans-serif" font-size="11" lengthAdjust="spacingAndGlyphs" textLength="93" x="1329" y="231.6348">getName(): String</text><ellipse cx="1320" cy="241.9326" fill="#84BE84" rx="3" ry="3" style="stroke: #038048; stroke-width: 1.0;"/><text fill="#000000" font-family="sans-serif" font-size="11" lengthAdjust="spacingAndGlyphs" textLength="256" x="1329" y="244.5898">getByLanguage(String): TranslationTemplateDto</text><ellipse cx="1320" cy="254.8877" fill="#84BE84" rx="3" ry="3" style="stroke: #038048; stroke-width: 1.0;"/><text fill="#000000" font-family="sans-serif" font-size="11" lengthAdjust="spacingAndGlyphs" textLength="155" x="1329" y="257.5449">getLanguages(): Set&lt;String&gt;</text></a><!--class de.interactive_instruments.etf.dal.dto.translation.TranslationTemplateDto--><a target="_top" xlink:actuate="onRequest" xlink:href="TranslationTemplateDto.html" xlink:show="new" xlink:title="TranslationTemplateDto.html" xlink:type="simple"><rect fill="#FEFECE" filter="url(#f1w3g9aabqoug4)" height="99.8203" id="de.interactive_instruments.etf.dal.dto.translation.TranslationTemplateDto" style="stroke: #A80036; stroke-width: 1.5;" width="271" x="1002.5" y="170.5"/><ellipse cx="1064.25" cy="186.5" fill="#ADD1B2" rx="11" ry="11" style="stroke: #A80036; stroke-width: 1.0;"/><path d="M1067.2231,192.1431 Q1066.6421,192.4419 1066.0029,192.5913 Q1065.3638,192.7407 1064.6582,192.7407 Q1062.1514,192.7407 1060.8315,191.0889 Q1059.5117,189.437 1059.5117,186.3159 Q1059.5117,183.1865 1060.8315,181.5347 Q1062.1514,179.8828 1064.6582,179.8828 Q1065.3638,179.8828 1066.0112,180.0322 Q1066.6587,180.1816 1067.2231,180.4805 L1067.2231,183.2031 Q1066.5923,182.6221 1065.9988,182.3523 Q1065.4053,182.0825 1064.7744,182.0825 Q1063.4297,182.0825 1062.7449,183.1492 Q1062.0601,184.2158 1062.0601,186.3159 Q1062.0601,188.4077 1062.7449,189.4744 Q1063.4297,190.541 1064.7744,190.541 Q1065.4053,190.541 1065.9988,190.2712 Q1066.5923,190.0015 1067.2231,189.4204 Z "/><text fill="#000000" font-family="sans-serif" font-size="12" lengthAdjust="spacingAndGlyphs" textLength="139" x="1084.75" y="191.0352">TranslationTemplateDto</text><line style="stroke: #A80036; stroke-width: 1.5;" x1="1003.5" x2="1272.5" y1="202.5" y2="202.5"/><line style="stroke: #A80036; stroke-width: 1.5;" x1="1003.5" x2="1272.5" y1="210.5" y2="210.5"/><ellipse cx="1013.5" cy="222.4775" fill="#84BE84" rx="3" ry="3" style="stroke: #038048; stroke-width: 1.0;"/><text fill="#000000" font-family="sans-serif" font-size="11" lengthAdjust="spacingAndGlyphs" textLength="245" x="1022.5" y="225.1348">TranslationTemplateDto(String, String, String)</text><ellipse cx="1013.5" cy="235.4326" fill="#84BE84" rx="3" ry="3" style="stroke: #038048; stroke-width: 1.0;"/><text fill="#000000" font-family="sans-serif" font-size="11" lengthAdjust="spacingAndGlyphs" textLength="93" x="1022.5" y="238.0898">getName(): String</text><ellipse cx="1013.5" cy="248.3877" fill="#84BE84" rx="3" ry="3" style="stroke: #038048; stroke-width: 1.0;"/><text fill="#000000" font-family="sans-serif" font-size="11" lengthAdjust="spacingAndGlyphs" textLength="115" x="1022.5" y="251.0449">getLanguage(): String</text><ellipse cx="1013.5" cy="261.3428" fill="#84BE84" rx="3" ry="3" style="stroke: #038048; stroke-width: 1.0;"/><text fill="#000000" font-family="sans-serif" font-size="11" lengthAdjust="spacingAndGlyphs" textLength="140" x="1022.5" y="264">getStrWithTokens(): String</text></a><!--class de.interactive_instruments.etf.dal.dto.translation.TranslationTemplateBundleDto--><a target="_top" xlink:actuate="onRequest" xlink:href="TranslationTemplateBundleDto.html" xlink:show="new" xlink:title="TranslationTemplateBundleDto.html" xlink:type="simple"><rect fill="#FEFECE" filter="url(#f1w3g9aabqoug4)" height="138.6855" id="de.interactive_instruments.etf.dal.dto.translation.TranslationTemplateBundleDto" style="stroke: #A80036; stroke-width: 1.5;" width="462" x="505" y="151"/><ellipse cx="642.75" cy="167" fill="#ADD1B2" rx="11" ry="11" style="stroke: #A80036; stroke-width: 1.0;"/><path d="M645.7231,172.6431 Q645.1421,172.9419 644.5029,173.0913 Q643.8638,173.2407 643.1582,173.2407 Q640.6514,173.2407 639.3315,171.5889 Q638.0117,169.937 638.0117,166.8159 Q638.0117,163.6865 639.3315,162.0347 Q640.6514,160.3828 643.1582,160.3828 Q643.8638,160.3828 644.5112,160.5322 Q645.1587,160.6816 645.7231,160.9805 L645.7231,163.7031 Q645.0923,163.1221 644.4988,162.8523 Q643.9053,162.5825 643.2744,162.5825 Q641.9297,162.5825 641.2449,163.6492 Q640.5601,164.7158 640.5601,166.8159 Q640.5601,168.9077 641.2449,169.9744 Q641.9297,171.041 643.2744,171.041 Q643.9053,171.041 644.4988,170.7712 Q645.0923,170.5015 645.7231,169.9204 Z "/><text fill="#000000" font-family="sans-serif" font-size="12" lengthAdjust="spacingAndGlyphs" textLength="178" x="663.25" y="171.5352">TranslationTemplateBundleDto</text><line style="stroke: #A80036; stroke-width: 1.5;" x1="506" x2="966" y1="183" y2="183"/><line style="stroke: #A80036; stroke-width: 1.5;" x1="506" x2="966" y1="191" y2="191"/><ellipse cx="516" cy="202.9775" fill="#84BE84" rx="3" ry="3" style="stroke: #038048; stroke-width: 1.0;"/><text fill="#000000" font-family="sans-serif" font-size="11" lengthAdjust="spacingAndGlyphs" textLength="173" x="525" y="205.6348">TranslationTemplateBundleDto()</text><ellipse cx="516" cy="215.9326" fill="#84BE84" rx="3" ry="3" style="stroke: #038048; stroke-width: 1.0;"/><text fill="#000000" font-family="sans-serif" font-size="11" lengthAdjust="spacingAndGlyphs" textLength="374" x="525" y="218.5898">addTranslationTemplates(Collection&lt;TranslationTemplateDto&gt;): void</text><ellipse cx="516" cy="228.8877" fill="#84BE84" rx="3" ry="3" style="stroke: #038048; stroke-width: 1.0;"/><text fill="#000000" font-family="sans-serif" font-size="11" lengthAdjust="spacingAndGlyphs" textLength="436" x="525" y="231.5449">getTranslationTemplateCollection(String): LangTranslationTemplateCollectionDto</text><ellipse cx="516" cy="241.8428" fill="#84BE84" rx="3" ry="3" style="stroke: #038048; stroke-width: 1.0;"/><text fill="#000000" font-family="sans-serif" font-size="11" lengthAdjust="spacingAndGlyphs" textLength="340" x="525" y="244.5">getTranslationTemplate(String, String): TranslationTemplateDto</text><ellipse cx="516" cy="254.7979" fill="#84BE84" rx="3" ry="3" style="stroke: #038048; stroke-width: 1.0;"/><text fill="#000000" font-family="sans-serif" font-size="11" lengthAdjust="spacingAndGlyphs" textLength="86" x="525" y="257.4551">getSource(): URI</text><ellipse cx="516" cy="267.7529" fill="#84BE84" rx="3" ry="3" style="stroke: #038048; stroke-width: 1.0;"/><text fill="#000000" font-family="sans-serif" font-size="11" lengthAdjust="spacingAndGlyphs" textLength="108" x="525" y="270.4102">setSource(URI): void</text><ellipse cx="516" cy="280.708" fill="#84BE84" rx="3" ry="3" style="stroke: #038048; stroke-width: 1.0;"/><text fill="#000000" font-family="sans-serif" font-size="11" lengthAdjust="spacingAndGlyphs" textLength="240" x="525" y="283.3652">createCopy(): TranslationTemplateBundleDto</text></a><!--class de.interactive_instruments.etf.dal.dto.translation.TranslationArgumentCollectionDto--><a target="_top" xlink:actuate="onRequest" xlink:href="TranslationArgumentCollectionDto.html" xlink:show="new" xlink:title="TranslationArgumentCollectionDto.html" xlink:type="simple"><rect fill="#FEFECE" filter="url(#f1w3g9aabqoug4)" height="125.7305" id="de.interactive_instruments.etf.dal.dto.translation.TranslationArgumentCollectionDto" style="stroke: #A80036; stroke-width: 1.5;" width="448" x="22" y="157.5"/><ellipse cx="144.25" cy="173.5" fill="#ADD1B2" rx="11" ry="11" style="stroke: #A80036; stroke-width: 1.0;"/><path d="M147.2231,179.1431 Q146.6421,179.4419 146.0029,179.5913 Q145.3638,179.7407 144.6582,179.7407 Q142.1514,179.7407 140.8315,178.0889 Q139.5117,176.437 139.5117,173.3159 Q139.5117,170.1865 140.8315,168.5347 Q142.1514,166.8828 144.6582,166.8828 Q145.3638,166.8828 146.0112,167.0322 Q146.6587,167.1816 147.2231,167.4805 L147.2231,170.2031 Q146.5923,169.6221 145.9988,169.3523 Q145.4053,169.0825 144.7744,169.0825 Q143.4297,169.0825 142.7449,170.1492 Q142.0601,171.2158 142.0601,173.3159 Q142.0601,175.4077 142.7449,176.4744 Q143.4297,177.541 144.7744,177.541 Q145.4053,177.541 145.9988,177.2712 Q146.5923,177.0015 147.2231,176.4204 Z "/><text fill="#000000" font-family="sans-serif" font-size="12" lengthAdjust="spacingAndGlyphs" textLength="195" x="164.75" y="178.0352">TranslationArgumentCollectionDto</text><line style="stroke: #A80036; stroke-width: 1.5;" x1="23" x2="469" y1="189.5" y2="189.5"/><line style="stroke: #A80036; stroke-width: 1.5;" x1="23" x2="469" y1="197.5" y2="197.5"/><ellipse cx="33" cy="209.4775" fill="#84BE84" rx="3" ry="3" style="stroke: #038048; stroke-width: 1.0;"/><text fill="#000000" font-family="sans-serif" font-size="11" lengthAdjust="spacingAndGlyphs" textLength="196" x="42" y="212.1348">TranslationArgumentCollectionDto()</text><ellipse cx="33" cy="222.4326" fill="#84BE84" rx="3" ry="3" style="stroke: #038048; stroke-width: 1.0;"/><text fill="#000000" font-family="sans-serif" font-size="11" lengthAdjust="spacingAndGlyphs" textLength="422" x="42" y="225.0898">getTokenValues(): Map&lt;String, TranslationArgumentCollectionDto.Argument&gt;</text><ellipse cx="33" cy="235.3877" fill="#84BE84" rx="3" ry="3" style="stroke: #038048; stroke-width: 1.0;"/><text fill="#000000" font-family="sans-serif" font-size="11" lengthAdjust="spacingAndGlyphs" textLength="189" x="42" y="238.0449">addTokenValue(String, String): void</text><ellipse cx="33" cy="248.3428" fill="#84BE84" rx="3" ry="3" style="stroke: #038048; stroke-width: 1.0;"/><text fill="#000000" font-family="sans-serif" font-size="11" lengthAdjust="spacingAndGlyphs" textLength="159" x="42" y="251">getRefTemplateName(): String</text><ellipse cx="33" cy="261.2979" fill="#84BE84" rx="3" ry="3" style="stroke: #038048; stroke-width: 1.0;"/><text fill="#000000" font-family="sans-serif" font-size="11" lengthAdjust="spacingAndGlyphs" textLength="181" x="42" y="263.9551">setRefTemplateName(String): void</text><ellipse cx="33" cy="274.2529" fill="#84BE84" rx="3" ry="3" style="stroke: #038048; stroke-width: 1.0;"/><text fill="#000000" font-family="sans-serif" font-size="11" lengthAdjust="spacingAndGlyphs" textLength="263" x="42" y="276.9102">createCopy(): TranslationArgumentCollectionDto</text></a><!--class de.interactive_instruments.etf.dal.dto.translation.TranslationArgumentCollectionDto.Argument--><a target="_top" xlink:actuate="onRequest" xlink:href="TranslationArgumentCollectionDto.Argument.html" xlink:show="new" xlink:title="TranslationArgumentCollectionDto.Argument.html" xlink:type="simple"><rect fill="#FEFECE" filter="url(#f1w3g9aabqoug4)" height="99.8203" id="de.interactive_instruments.etf.dal.dto.translation.TranslationArgumentCollectionDto.Argument" style="stroke: #A80036; stroke-width: 1.5;" width="287" x="102.5" y="350"/><ellipse cx="117.5" cy="366" fill="#ADD1B2" rx="11" ry="11" style="stroke: #A80036; stroke-width: 1.0;"/><path d="M120.4731,371.6431 Q119.8921,371.9419 119.2529,372.0913 Q118.6138,372.2407 117.9082,372.2407 Q115.4014,372.2407 114.0815,370.5889 Q112.7617,368.937 112.7617,365.8159 Q112.7617,362.6865 114.0815,361.0347 Q115.4014,359.3828 117.9082,359.3828 Q118.6138,359.3828 119.2612,359.5322 Q119.9087,359.6816 120.4731,359.9805 L120.4731,362.7031 Q119.8423,362.1221 119.2488,361.8523 Q118.6553,361.5825 118.0244,361.5825 Q116.6797,361.5825 115.9949,362.6492 Q115.3101,363.7158 115.3101,365.8159 Q115.3101,367.9077 115.9949,368.9744 Q116.6797,370.041 118.0244,370.041 Q118.6553,370.041 119.2488,369.7712 Q119.8423,369.5015 120.4731,368.9204 Z "/><text fill="#000000" font-family="sans-serif" font-size="12" lengthAdjust="spacingAndGlyphs" textLength="255" x="131.5" y="370.5352">TranslationArgumentCollectionDto.Argument</text><line style="stroke: #A80036; stroke-width: 1.5;" x1="103.5" x2="388.5" y1="382" y2="382"/><line style="stroke: #A80036; stroke-width: 1.5;" x1="103.5" x2="388.5" y1="390" y2="390"/><ellipse cx="113.5" cy="401.9775" fill="#84BE84" rx="3" ry="3" style="stroke: #038048; stroke-width: 1.0;"/><text fill="#000000" font-family="sans-serif" font-size="11" lengthAdjust="spacingAndGlyphs" textLength="62" x="122.5" y="404.6348">Argument()</text><ellipse cx="113.5" cy="414.9326" fill="#84BE84" rx="3" ry="3" style="stroke: #038048; stroke-width: 1.0;"/><text fill="#000000" font-family="sans-serif" font-size="11" lengthAdjust="spacingAndGlyphs" textLength="132" x="122.5" y="417.5898">Argument(String, String)</text><ellipse cx="113.5" cy="427.8877" fill="#84BE84" rx="3" ry="3" style="stroke: #038048; stroke-width: 1.0;"/><text fill="#000000" font-family="sans-serif" font-size="11" lengthAdjust="spacingAndGlyphs" textLength="96" x="122.5" y="430.5449">getToken(): String</text><ellipse cx="113.5" cy="440.8428" fill="#84BE84" rx="3" ry="3" style="stroke: #038048; stroke-width: 1.0;"/><text fill="#000000" font-family="sans-serif" font-size="11" lengthAdjust="spacingAndGlyphs" textLength="92" x="122.5" y="443.5">getValue(): String</text></a><!--class de.interactive_instruments.etf.dal.dto.ModelItemDto--><rect fill="#FEFECE" filter="url(#f1w3g9aabqoug4)" height="48" id="de.interactive_instruments.etf.dal.dto.ModelItemDto" style="stroke: #A80036; stroke-width: 1.5;" width="124" x="518" y="43"/><ellipse cx="533" cy="59" fill="#A9DCDF" rx="11" ry="11" style="stroke: #A80036; stroke-width: 1.0;"/><path d="M533.1133,54.3481 L531.9595,59.4199 L534.2754,59.4199 Z M531.6191,52.1069 L534.6157,52.1069 L537.9609,64.5 L535.5122,64.5 L534.7485,61.437 L531.4697,61.437 L530.7227,64.5 L528.2739,64.5 Z "/><text fill="#000000" font-family="sans-serif" font-size="12" font-style="italic" lengthAdjust="spacingAndGlyphs" textLength="80" x="547" y="63.5352">ModelItemDto</text><rect fill="#FFFFFF" height="16.1328" style="stroke: #000000; stroke-width: 1.0; stroke-dasharray: 2.0,2.0;" width="10" x="635" y="40"/><text fill="#000000" font-family="sans-serif" font-size="12" font-style="italic" lengthAdjust="spacingAndGlyphs" textLength="8" x="636" y="52.6016">T</text><line style="stroke: #A80036; stroke-width: 1.5;" x1="519" x2="641" y1="75" y2="75"/><line style="stroke: #A80036; stroke-width: 1.5;" x1="519" x2="641" y1="83" y2="83"/><!--class de.interactive_instruments.etf.dal.dto.Dto--><rect fill="#FEFECE" filter="url(#f1w3g9aabqoug4)" height="48" id="de.interactive_instruments.etf.dal.dto.Dto" style="stroke: #A80036; stroke-width: 1.5;" width="52" x="376" y="43"/><ellipse cx="391" cy="59" fill="#A9DCDF" rx="11" ry="11" style="stroke: #A80036; stroke-width: 1.0;"/><path d="M391.1133,54.3481 L389.9595,59.4199 L392.2754,59.4199 Z M389.6191,52.1069 L392.6157,52.1069 L395.9609,64.5 L393.5122,64.5 L392.7485,61.437 L389.4697,61.437 L388.7227,64.5 L386.2739,64.5 Z "/><text fill="#000000" font-family="sans-serif" font-size="12" font-style="italic" lengthAdjust="spacingAndGlyphs" textLength="20" x="405" y="63.5352">Dto</text><line style="stroke: #A80036; stroke-width: 1.5;" x1="377" x2="427" y1="75" y2="75"/><line style="stroke: #A80036; stroke-width: 1.5;" x1="377" x2="427" y1="83" y2="83"/><!--link de.interactive_instruments.etf.dal.dto.ModelItemDto to de.interactive_instruments.etf.dal.dto.translation.TranslationTemplateBundleDto--><path d="M619.3928,105.7615 C633.3416,119.4867 649.4931,135.3795 665.247,150.8808 " fill="none" id="de.interactive_instruments.etf.dal.dto.ModelItemDto-de.interactive_instruments.etf.dal.dto.translation.TranslationTemplateBundleDto" style="stroke: #A80036; stroke-width: 1.0;"/><polygon fill="none" points="614.065,110.3396,604.7187,91.3225,623.8842,100.3604,614.065,110.3396" style="stroke: #A80036; stroke-width: 1.0;"/><!--link de.interactive_instruments.etf.dal.dto.Dto to de.interactive_instruments.etf.dal.dto.translation.TranslationArgumentCollectionDto--><path d="M363.0189,105.3564 C347.0729,121.0469 328.1965,139.6208 310.3113,157.2193 " fill="none" id="de.interactive_instruments.etf.dal.dto.Dto-de.interactive_instruments.etf.dal.dto.translation.TranslationArgumentCollectionDto" style="stroke: #A80036; stroke-width: 1.0;"/><polygon fill="none" points="358.1158,100.3604,377.2813,91.3225,367.935,110.3396,358.1158,100.3604" style="stroke: #A80036; stroke-width: 1.0;"/><!--link de.interactive_instruments.etf.dal.dto.translation.TranslationArgumentCollectionDto to de.interactive_instruments.etf.dal.dto.translation.TranslationArgumentCollectionDto.Argument--><path d="M246,298.5813 C246,315.9558 246,333.9237 246,349.8207 " fill="none" id="de.interactive_instruments.etf.dal.dto.translation.TranslationArgumentCollectionDto-de.interactive_instruments.etf.dal.dto.translation.TranslationArgumentCollectionDto.Argument" style="stroke: #A80036; stroke-width: 1.0;"/><ellipse cx="246.0001" cy="291.5326" fill="#FFFFFF" rx="8" ry="8" style="stroke: #A80036; stroke-width: 1.0;"/><line style="stroke: #A80036; stroke-width: 1.0;" x1="246.0002" x2="246" y1="299.5326" y2="283.5326"/><line style="stroke: #A80036; stroke-width: 1.0;" x1="238.0001" x2="254.0001" y1="291.5327" y2="291.5325"/><!--
@startuml

    namespace de.interactive_instruments.etf.dal.dto.translation {

        class LangTranslationTemplateCollectionDto [[LangTranslationTemplateCollectionDto.html]] {
            +getName(): String
            +getByLanguage(String): TranslationTemplateDto
            +getLanguages(): Set<String>
        }

        class TranslationTemplateDto [[TranslationTemplateDto.html]] {
            +TranslationTemplateDto(String, String, String)
            +getName(): String
            +getLanguage(): String
            +getStrWithTokens(): String
        }

        class TranslationTemplateBundleDto [[TranslationTemplateBundleDto.html]] {
            +TranslationTemplateBundleDto()
            +addTranslationTemplates(Collection<TranslationTemplateDto>): void
            +getTranslationTemplateCollection(String): LangTranslationTemplateCollectionDto
            +getTranslationTemplate(String, String): TranslationTemplateDto
            +getSource(): URI
            +setSource(URI): void
            +createCopy(): TranslationTemplateBundleDto
        }

        class TranslationArgumentCollectionDto [[TranslationArgumentCollectionDto.html]] {
            +TranslationArgumentCollectionDto()
            +getTokenValues(): Map<String, TranslationArgumentCollectionDto.Argument>
            +addTokenValue(String, String): void
            +getRefTemplateName(): String
            +setRefTemplateName(String): void
            +createCopy(): TranslationArgumentCollectionDto
        }

        class de.interactive_instruments.etf.dal.dto.translation.TranslationArgumentCollectionDto.Argument [[TranslationArgumentCollectionDto.Argument.html]] {
            +Argument()
            +Argument(String, String)
            +getToken(): String
            +getValue(): String
        }

        abstract class de.interactive_instruments.etf.dal.dto.ModelItemDto<T>
        de.interactive_instruments.etf.dal.dto.ModelItemDto <|- - TranslationTemplateBundleDto

        abstract class de.interactive_instruments.etf.dal.dto.Dto
        de.interactive_instruments.etf.dal.dto.Dto <|- - TranslationArgumentCollectionDto

        TranslationArgumentCollectionDto +- - de.interactive_instruments.etf.dal.dto.translation.TranslationArgumentCollectionDto.Argument

    }

@enduml

PlantUML version 1.2018.08(Sun Jun 24 14:31:00 CEST 2018)
(APACHE source distribution)
Java Runtime: Java(TM) SE Runtime Environment
JVM: Java HotSpot(TM) 64-Bit Server VM
Java Version: 1.8.0_151-b12
Operating System: Mac OS X
OS Version: 10.13.6
Default Encoding: UTF-8
Language: en
Country: US
--></g></svg>