<?xml version="1.0" encoding="UTF-8" standalone="no"?><svg xmlns="http://www.w3.org/2000/svg" xmlns:xlink="http://www.w3.org/1999/xlink" contentScriptType="application/ecmascript" contentStyleType="text/css" height="163px" preserveAspectRatio="none" style="width:305px;height:163px;" version="1.1" viewBox="0 0 305 163" width="305px" zoomAndPan="magnify"><defs><filter height="300%" id="fox5ncn1zshrl" width="300%" x="-1" y="-1"><feGaussianBlur result="blurOut" stdDeviation="2.0"/><feColorMatrix in="blurOut" result="blurOut2" type="matrix" values="0 0 0 0 0 0 0 0 0 0 0 0 0 0 0 0 0 0 .4 0"/><feOffset dx="4.0" dy="4.0" in="blurOut2" result="blurOut3"/><feBlend in="SourceGraphic" in2="blurOut3" mode="normal"/></filter></defs><g><!--cluster TranslationArgumentCollectionDto--><polygon fill="#FFFFFF" filter="url(#fox5ncn1zshrl)" points="14,16,273,16,280,38.4883,283,38.4883,283,151,14,151,14,16" style="stroke: #000000; stroke-width: 1.5;"/><line style="stroke: #000000; stroke-width: 1.5;" x1="14" x2="280" y1="38.4883" y2="38.4883"/><text fill="#000000" font-family="sans-serif" font-size="14" font-weight="bold" lengthAdjust="spacingAndGlyphs" textLength="253" x="18" y="31.5352">TranslationArgumentCollectionDto</text><!--class TranslationArgumentCollectionDto.Argument--><a target="_top" xlink:actuate="onRequest" xlink:href="TranslationArgumentCollectionDto.Argument.html" xlink:show="new" xlink:title="TranslationArgumentCollectionDto.Argument.html" xlink:type="simple"><rect fill="#FEFECE" filter="url(#fox5ncn1zshrl)" height="99.8203" id="TranslationArgumentCollectionDto.Argument" style="stroke: #A80036; stroke-width: 1.5;" width="158" x="69" y="43"/><ellipse cx="115.75" cy="59" fill="#ADD1B2" rx="11" ry="11" style="stroke: #A80036; stroke-width: 1.0;"/><path d="M118.7231,64.6431 Q118.1421,64.9419 117.5029,65.0913 Q116.8638,65.2407 116.1582,65.2407 Q113.6514,65.2407 112.3315,63.5889 Q111.0117,61.937 111.0117,58.8159 Q111.0117,55.6865 112.3315,54.0347 Q113.6514,52.3828 116.1582,52.3828 Q116.8638,52.3828 117.5112,52.5322 Q118.1587,52.6816 118.7231,52.9805 L118.7231,55.7031 Q118.0923,55.1221 117.4988,54.8523 Q116.9053,54.5825 116.2744,54.5825 Q114.9297,54.5825 114.2449,55.6492 Q113.5601,56.7158 113.5601,58.8159 Q113.5601,60.9077 114.2449,61.9744 Q114.9297,63.041 116.2744,63.041 Q116.9053,63.041 117.4988,62.7712 Q118.0923,62.5015 118.7231,61.9204 Z "/><text fill="#000000" font-family="sans-serif" font-size="12" lengthAdjust="spacingAndGlyphs" textLength="56" x="136.25" y="63.5352">Argument</text><line style="stroke: #A80036; stroke-width: 1.5;" x1="70" x2="226" y1="75" y2="75"/><line style="stroke: #A80036; stroke-width: 1.5;" x1="70" x2="226" y1="83" y2="83"/><ellipse cx="80" cy="94.9775" fill="#84BE84" rx="3" ry="3" style="stroke: #038048; stroke-width: 1.0;"/><text fill="#000000" font-family="sans-serif" font-size="11" lengthAdjust="spacingAndGlyphs" textLength="62" x="89" y="97.6348">Argument()</text><ellipse cx="80" cy="107.9326" fill="#84BE84" rx="3" ry="3" style="stroke: #038048; stroke-width: 1.0;"/><text fill="#000000" font-family="sans-serif" font-size="11" lengthAdjust="spacingAndGlyphs" textLength="132" x="89" y="110.5898">Argument(String, String)</text><ellipse cx="80" cy="120.8877" fill="#84BE84" rx="3" ry="3" style="stroke: #038048; stroke-width: 1.0;"/><text fill="#000000" font-family="sans-serif" font-size="11" lengthAdjust="spacingAndGlyphs" textLength="96" x="89" y="123.5449">getToken(): String</text><ellipse cx="80" cy="133.8428" fill="#84BE84" rx="3" ry="3" style="stroke: #038048; stroke-width: 1.0;"/><text fill="#000000" font-family="sans-serif" font-size="11" lengthAdjust="spacingAndGlyphs" textLength="92" x="89" y="136.5">getValue(): String</text></a><!--
@startuml

    class TranslationArgumentCollectionDto.Argument [[TranslationArgumentCollectionDto.Argument.html]] {
        +Argument()
        +Argument(String, String)
        +getToken(): String
        +getValue(): String
    }

@enduml

PlantUML version 1.2018.08(Sun Jun 24 14:31:00 CEST 2018)
(APACHE source distribution)
Java Runtime: Java(TM) SE Runtime Environment
JVM: Java HotSpot(TM) 64-Bit Server VM
Java Version: 1.8.0_151-b12
Operating System: Mac OS X
OS Version: 10.13.6
Default Encoding: UTF-8
Language: en
Country: US
--></g></svg>