<?xml version="1.0" encoding="UTF-8" standalone="no"?><svg xmlns="http://www.w3.org/2000/svg" xmlns:xlink="http://www.w3.org/1999/xlink" contentScriptType="application/ecmascript" contentStyleType="text/css" height="144px" preserveAspectRatio="none" style="width:465px;height:144px;" version="1.1" viewBox="0 0 465 144" width="465px" zoomAndPan="magnify"><defs><filter height="300%" id="f1gm7n6c1lp3h5" width="300%" x="-1" y="-1"><feGaussianBlur result="blurOut" stdDeviation="2.0"/><feColorMatrix in="blurOut" result="blurOut2" type="matrix" values="0 0 0 0 0 0 0 0 0 0 0 0 0 0 0 0 0 0 .4 0"/><feOffset dx="4.0" dy="4.0" in="blurOut2" result="blurOut3"/><feBlend in="SourceGraphic" in2="blurOut3" mode="normal"/></filter></defs><g><!--class TranslationArgumentCollectionDto--><a target="_top" xlink:actuate="onRequest" xlink:href="TranslationArgumentCollectionDto.html" xlink:show="new" xlink:title="TranslationArgumentCollectionDto.html" xlink:type="simple"><rect fill="#FEFECE" filter="url(#f1gm7n6c1lp3h5)" height="125.7305" id="TranslationArgumentCollectionDto" style="stroke: #A80036; stroke-width: 1.5;" width="448" x="6" y="8"/><ellipse cx="128.25" cy="24" fill="#ADD1B2" rx="11" ry="11" style="stroke: #A80036; stroke-width: 1.0;"/><path d="M131.2231,29.6431 Q130.6421,29.9419 130.0029,30.0913 Q129.3638,30.2407 128.6582,30.2407 Q126.1514,30.2407 124.8315,28.5889 Q123.5117,26.937 123.5117,23.8159 Q123.5117,20.6865 124.8315,19.0347 Q126.1514,17.3828 128.6582,17.3828 Q129.3638,17.3828 130.0112,17.5322 Q130.6587,17.6816 131.2231,17.9805 L131.2231,20.7031 Q130.5923,20.1221 129.9988,19.8523 Q129.4053,19.5825 128.7744,19.5825 Q127.4297,19.5825 126.7449,20.6492 Q126.0601,21.7158 126.0601,23.8159 Q126.0601,25.9077 126.7449,26.9744 Q127.4297,28.041 128.7744,28.041 Q129.4053,28.041 129.9988,27.7712 Q130.5923,27.5015 131.2231,26.9204 Z "/><text fill="#000000" font-family="sans-serif" font-size="12" lengthAdjust="spacingAndGlyphs" textLength="195" x="148.75" y="28.5352">TranslationArgumentCollectionDto</text><line style="stroke: #A80036; stroke-width: 1.5;" x1="7" x2="453" y1="40" y2="40"/><line style="stroke: #A80036; stroke-width: 1.5;" x1="7" x2="453" y1="48" y2="48"/><ellipse cx="17" cy="59.9775" fill="#84BE84" rx="3" ry="3" style="stroke: #038048; stroke-width: 1.0;"/><text fill="#000000" font-family="sans-serif" font-size="11" lengthAdjust="spacingAndGlyphs" textLength="196" x="26" y="62.6348">TranslationArgumentCollectionDto()</text><ellipse cx="17" cy="72.9326" fill="#84BE84" rx="3" ry="3" style="stroke: #038048; stroke-width: 1.0;"/><text fill="#000000" font-family="sans-serif" font-size="11" lengthAdjust="spacingAndGlyphs" textLength="422" x="26" y="75.5898">getTokenValues(): Map&lt;String, TranslationArgumentCollectionDto.Argument&gt;</text><ellipse cx="17" cy="85.8877" fill="#84BE84" rx="3" ry="3" style="stroke: #038048; stroke-width: 1.0;"/><text fill="#000000" font-family="sans-serif" font-size="11" lengthAdjust="spacingAndGlyphs" textLength="189" x="26" y="88.5449">addTokenValue(String, String): void</text><ellipse cx="17" cy="98.8428" fill="#84BE84" rx="3" ry="3" style="stroke: #038048; stroke-width: 1.0;"/><text fill="#000000" font-family="sans-serif" font-size="11" lengthAdjust="spacingAndGlyphs" textLength="159" x="26" y="101.5">getRefTemplateName(): String</text><ellipse cx="17" cy="111.7979" fill="#84BE84" rx="3" ry="3" style="stroke: #038048; stroke-width: 1.0;"/><text fill="#000000" font-family="sans-serif" font-size="11" lengthAdjust="spacingAndGlyphs" textLength="181" x="26" y="114.4551">setRefTemplateName(String): void</text><ellipse cx="17" cy="124.7529" fill="#84BE84" rx="3" ry="3" style="stroke: #038048; stroke-width: 1.0;"/><text fill="#000000" font-family="sans-serif" font-size="11" lengthAdjust="spacingAndGlyphs" textLength="263" x="26" y="127.4102">createCopy(): TranslationArgumentCollectionDto</text></a><!--
@startuml

    class TranslationArgumentCollectionDto [[TranslationArgumentCollectionDto.html]] {
        +TranslationArgumentCollectionDto()
        +getTokenValues(): Map<String, TranslationArgumentCollectionDto.Argument>
        +addTokenValue(String, String): void
        +getRefTemplateName(): String
        +setRefTemplateName(String): void
        +createCopy(): TranslationArgumentCollectionDto
    }

@enduml

PlantUML version 1.2018.08(Sun Jun 24 14:31:00 CEST 2018)
(APACHE source distribution)
Java Runtime: Java(TM) SE Runtime Environment
JVM: Java HotSpot(TM) 64-Bit Server VM
Java Version: 1.8.0_151-b12
Operating System: Mac OS X
OS Version: 10.13.6
Default Encoding: UTF-8
Language: en
Country: US
--></g></svg>