<?xml version="1.0" encoding="UTF-8" standalone="no"?><svg xmlns="http://www.w3.org/2000/svg" xmlns:xlink="http://www.w3.org/1999/xlink" contentScriptType="application/ecmascript" contentStyleType="text/css" height="157px" preserveAspectRatio="none" style="width:479px;height:157px;" version="1.1" viewBox="0 0 479 157" width="479px" zoomAndPan="magnify"><defs><filter height="300%" id="f1kkmcdacx2dap" width="300%" x="-1" y="-1"><feGaussianBlur result="blurOut" stdDeviation="2.0"/><feColorMatrix in="blurOut" result="blurOut2" type="matrix" values="0 0 0 0 0 0 0 0 0 0 0 0 0 0 0 0 0 0 .4 0"/><feOffset dx="4.0" dy="4.0" in="blurOut2" result="blurOut3"/><feBlend in="SourceGraphic" in2="blurOut3" mode="normal"/></filter></defs><g><!--class TranslationTemplateBundleDto--><a target="_top" xlink:actuate="onRequest" xlink:href="TranslationTemplateBundleDto.html" xlink:show="new" xlink:title="TranslationTemplateBundleDto.html" xlink:type="simple"><rect fill="#FEFECE" filter="url(#f1kkmcdacx2dap)" height="138.6855" id="TranslationTemplateBundleDto" style="stroke: #A80036; stroke-width: 1.5;" width="462" x="6" y="8"/><ellipse cx="143.75" cy="24" fill="#ADD1B2" rx="11" ry="11" style="stroke: #A80036; stroke-width: 1.0;"/><path d="M146.7231,29.6431 Q146.1421,29.9419 145.5029,30.0913 Q144.8638,30.2407 144.1582,30.2407 Q141.6514,30.2407 140.3315,28.5889 Q139.0117,26.937 139.0117,23.8159 Q139.0117,20.6865 140.3315,19.0347 Q141.6514,17.3828 144.1582,17.3828 Q144.8638,17.3828 145.5112,17.5322 Q146.1587,17.6816 146.7231,17.9805 L146.7231,20.7031 Q146.0923,20.1221 145.4988,19.8523 Q144.9053,19.5825 144.2744,19.5825 Q142.9297,19.5825 142.2449,20.6492 Q141.5601,21.7158 141.5601,23.8159 Q141.5601,25.9077 142.2449,26.9744 Q142.9297,28.041 144.2744,28.041 Q144.9053,28.041 145.4988,27.7712 Q146.0923,27.5015 146.7231,26.9204 Z "/><text fill="#000000" font-family="sans-serif" font-size="12" lengthAdjust="spacingAndGlyphs" textLength="178" x="164.25" y="28.5352">TranslationTemplateBundleDto</text><line style="stroke: #A80036; stroke-width: 1.5;" x1="7" x2="467" y1="40" y2="40"/><line style="stroke: #A80036; stroke-width: 1.5;" x1="7" x2="467" y1="48" y2="48"/><ellipse cx="17" cy="59.9775" fill="#84BE84" rx="3" ry="3" style="stroke: #038048; stroke-width: 1.0;"/><text fill="#000000" font-family="sans-serif" font-size="11" lengthAdjust="spacingAndGlyphs" textLength="173" x="26" y="62.6348">TranslationTemplateBundleDto()</text><ellipse cx="17" cy="72.9326" fill="#84BE84" rx="3" ry="3" style="stroke: #038048; stroke-width: 1.0;"/><text fill="#000000" font-family="sans-serif" font-size="11" lengthAdjust="spacingAndGlyphs" textLength="374" x="26" y="75.5898">addTranslationTemplates(Collection&lt;TranslationTemplateDto&gt;): void</text><ellipse cx="17" cy="85.8877" fill="#84BE84" rx="3" ry="3" style="stroke: #038048; stroke-width: 1.0;"/><text fill="#000000" font-family="sans-serif" font-size="11" lengthAdjust="spacingAndGlyphs" textLength="436" x="26" y="88.5449">getTranslationTemplateCollection(String): LangTranslationTemplateCollectionDto</text><ellipse cx="17" cy="98.8428" fill="#84BE84" rx="3" ry="3" style="stroke: #038048; stroke-width: 1.0;"/><text fill="#000000" font-family="sans-serif" font-size="11" lengthAdjust="spacingAndGlyphs" textLength="340" x="26" y="101.5">getTranslationTemplate(String, String): TranslationTemplateDto</text><ellipse cx="17" cy="111.7979" fill="#84BE84" rx="3" ry="3" style="stroke: #038048; stroke-width: 1.0;"/><text fill="#000000" font-family="sans-serif" font-size="11" lengthAdjust="spacingAndGlyphs" textLength="86" x="26" y="114.4551">getSource(): URI</text><ellipse cx="17" cy="124.7529" fill="#84BE84" rx="3" ry="3" style="stroke: #038048; stroke-width: 1.0;"/><text fill="#000000" font-family="sans-serif" font-size="11" lengthAdjust="spacingAndGlyphs" textLength="108" x="26" y="127.4102">setSource(URI): void</text><ellipse cx="17" cy="137.708" fill="#84BE84" rx="3" ry="3" style="stroke: #038048; stroke-width: 1.0;"/><text fill="#000000" font-family="sans-serif" font-size="11" lengthAdjust="spacingAndGlyphs" textLength="240" x="26" y="140.3652">createCopy(): TranslationTemplateBundleDto</text></a><!--
@startuml

    class TranslationTemplateBundleDto [[TranslationTemplateBundleDto.html]] {
        +TranslationTemplateBundleDto()
        +addTranslationTemplates(Collection<TranslationTemplateDto>): void
        +getTranslationTemplateCollection(String): LangTranslationTemplateCollectionDto
        +getTranslationTemplate(String, String): TranslationTemplateDto
        +getSource(): URI
        +setSource(URI): void
        +createCopy(): TranslationTemplateBundleDto
    }

@enduml

PlantUML version 1.2018.08(Sun Jun 24 14:31:00 CEST 2018)
(APACHE source distribution)
Java Runtime: Java(TM) SE Runtime Environment
JVM: Java HotSpot(TM) 64-Bit Server VM
Java Version: 1.8.0_151-b12
Operating System: Mac OS X
OS Version: 10.13.6
Default Encoding: UTF-8
Language: en
Country: US
--></g></svg>