<?xml version="1.0" encoding="UTF-8" standalone="no"?><svg xmlns="http://www.w3.org/2000/svg" xmlns:xlink="http://www.w3.org/1999/xlink" contentScriptType="application/ecmascript" contentStyleType="text/css" height="118px" preserveAspectRatio="none" style="width:288px;height:118px;" version="1.1" viewBox="0 0 288 118" width="288px" zoomAndPan="magnify"><defs><filter height="300%" id="fypary8p1haid" width="300%" x="-1" y="-1"><feGaussianBlur result="blurOut" stdDeviation="2.0"/><feColorMatrix in="blurOut" result="blurOut2" type="matrix" values="0 0 0 0 0 0 0 0 0 0 0 0 0 0 0 0 0 0 .4 0"/><feOffset dx="4.0" dy="4.0" in="blurOut2" result="blurOut3"/><feBlend in="SourceGraphic" in2="blurOut3" mode="normal"/></filter></defs><g><!--class TranslationTemplateDto--><a target="_top" xlink:actuate="onRequest" xlink:href="TranslationTemplateDto.html" xlink:show="new" xlink:title="TranslationTemplateDto.html" xlink:type="simple"><rect fill="#FEFECE" filter="url(#fypary8p1haid)" height="99.8203" id="TranslationTemplateDto" style="stroke: #A80036; stroke-width: 1.5;" width="271" x="6" y="8"/><ellipse cx="67.75" cy="24" fill="#ADD1B2" rx="11" ry="11" style="stroke: #A80036; stroke-width: 1.0;"/><path d="M70.7231,29.6431 Q70.1421,29.9419 69.5029,30.0913 Q68.8638,30.2407 68.1582,30.2407 Q65.6514,30.2407 64.3315,28.5889 Q63.0117,26.937 63.0117,23.8159 Q63.0117,20.6865 64.3315,19.0347 Q65.6514,17.3828 68.1582,17.3828 Q68.8638,17.3828 69.5112,17.5322 Q70.1587,17.6816 70.7231,17.9805 L70.7231,20.7031 Q70.0923,20.1221 69.4988,19.8523 Q68.9053,19.5825 68.2744,19.5825 Q66.9297,19.5825 66.2449,20.6492 Q65.5601,21.7158 65.5601,23.8159 Q65.5601,25.9077 66.2449,26.9744 Q66.9297,28.041 68.2744,28.041 Q68.9053,28.041 69.4988,27.7712 Q70.0923,27.5015 70.7231,26.9204 Z "/><text fill="#000000" font-family="sans-serif" font-size="12" lengthAdjust="spacingAndGlyphs" textLength="139" x="88.25" y="28.5352">TranslationTemplateDto</text><line style="stroke: #A80036; stroke-width: 1.5;" x1="7" x2="276" y1="40" y2="40"/><line style="stroke: #A80036; stroke-width: 1.5;" x1="7" x2="276" y1="48" y2="48"/><ellipse cx="17" cy="59.9775" fill="#84BE84" rx="3" ry="3" style="stroke: #038048; stroke-width: 1.0;"/><text fill="#000000" font-family="sans-serif" font-size="11" lengthAdjust="spacingAndGlyphs" textLength="245" x="26" y="62.6348">TranslationTemplateDto(String, String, String)</text><ellipse cx="17" cy="72.9326" fill="#84BE84" rx="3" ry="3" style="stroke: #038048; stroke-width: 1.0;"/><text fill="#000000" font-family="sans-serif" font-size="11" lengthAdjust="spacingAndGlyphs" textLength="93" x="26" y="75.5898">getName(): String</text><ellipse cx="17" cy="85.8877" fill="#84BE84" rx="3" ry="3" style="stroke: #038048; stroke-width: 1.0;"/><text fill="#000000" font-family="sans-serif" font-size="11" lengthAdjust="spacingAndGlyphs" textLength="115" x="26" y="88.5449">getLanguage(): String</text><ellipse cx="17" cy="98.8428" fill="#84BE84" rx="3" ry="3" style="stroke: #038048; stroke-width: 1.0;"/><text fill="#000000" font-family="sans-serif" font-size="11" lengthAdjust="spacingAndGlyphs" textLength="140" x="26" y="101.5">getStrWithTokens(): String</text></a><!--
@startuml

    class TranslationTemplateDto [[TranslationTemplateDto.html]] {
        +TranslationTemplateDto(String, String, String)
        +getName(): String
        +getLanguage(): String
        +getStrWithTokens(): String
    }

@enduml

PlantUML version 1.2018.08(Sun Jun 24 14:31:00 CEST 2018)
(APACHE source distribution)
Java Runtime: Java(TM) SE Runtime Environment
JVM: Java HotSpot(TM) 64-Bit Server VM
Java Version: 1.8.0_151-b12
Operating System: Mac OS X
OS Version: 10.13.6
Default Encoding: UTF-8
Language: en
Country: US
--></g></svg>