<?xml version="1.0" encoding="UTF-8" standalone="no"?><svg xmlns="http://www.w3.org/2000/svg" xmlns:xlink="http://www.w3.org/1999/xlink" contentScriptType="application/ecmascript" contentStyleType="text/css" height="183px" preserveAspectRatio="none" style="width:217px;height:183px;" version="1.1" viewBox="0 0 217 183" width="217px" zoomAndPan="magnify"><defs><filter height="300%" id="f5qle9n4i14k4" width="300%" x="-1" y="-1"><feGaussianBlur result="blurOut" stdDeviation="2.0"/><feColorMatrix in="blurOut" result="blurOut2" type="matrix" values="0 0 0 0 0 0 0 0 0 0 0 0 0 0 0 0 0 0 .4 0"/><feOffset dx="4.0" dy="4.0" in="blurOut2" result="blurOut3"/><feBlend in="SourceGraphic" in2="blurOut3" mode="normal"/></filter></defs><g><!--class ComponentDto--><a target="_top" xlink:actuate="onRequest" xlink:href="ComponentDto.html" xlink:show="new" xlink:title="ComponentDto.html" xlink:type="simple"><rect fill="#FEFECE" filter="url(#f5qle9n4i14k4)" height="164.5957" id="ComponentDto" style="stroke: #A80036; stroke-width: 1.5;" width="200" x="6" y="8"/><ellipse cx="58.75" cy="24" fill="#ADD1B2" rx="11" ry="11" style="stroke: #A80036; stroke-width: 1.0;"/><path d="M61.7231,29.6431 Q61.1421,29.9419 60.5029,30.0913 Q59.8638,30.2407 59.1582,30.2407 Q56.6514,30.2407 55.3315,28.5889 Q54.0117,26.937 54.0117,23.8159 Q54.0117,20.6865 55.3315,19.0347 Q56.6514,17.3828 59.1582,17.3828 Q59.8638,17.3828 60.5112,17.5322 Q61.1587,17.6816 61.7231,17.9805 L61.7231,20.7031 Q61.0923,20.1221 60.4988,19.8523 Q59.9053,19.5825 59.2744,19.5825 Q57.9297,19.5825 57.2449,20.6492 Q56.5601,21.7158 56.5601,23.8159 Q56.5601,25.9077 57.2449,26.9744 Q57.9297,28.041 59.2744,28.041 Q59.9053,28.041 60.4988,27.7712 Q61.0923,27.5015 61.7231,26.9204 Z "/><text fill="#000000" font-family="sans-serif" font-size="12" lengthAdjust="spacingAndGlyphs" textLength="86" x="79.25" y="28.5352">ComponentDto</text><line style="stroke: #A80036; stroke-width: 1.5;" x1="7" x2="205" y1="40" y2="40"/><polygon fill="none" points="17,46.9775,21,50.9775,17,54.9775,13,50.9775" style="stroke: #B38D22; stroke-width: 1.0;"/><text fill="#000000" font-family="sans-serif" font-size="11" lengthAdjust="spacingAndGlyphs" textLength="76" x="26" y="54.6348">vendor: String</text><polygon fill="none" points="17,59.9326,21,63.9326,17,67.9326,13,63.9326" style="stroke: #B38D22; stroke-width: 1.0;"/><text fill="#000000" font-family="sans-serif" font-size="11" lengthAdjust="spacingAndGlyphs" textLength="78" x="26" y="67.5898">version: String</text><line style="stroke: #A80036; stroke-width: 1.5;" x1="7" x2="205" y1="73.9102" y2="73.9102"/><ellipse cx="17" cy="85.8877" fill="#84BE84" rx="3" ry="3" style="stroke: #038048; stroke-width: 1.0;"/><text fill="#000000" font-family="sans-serif" font-size="11" lengthAdjust="spacingAndGlyphs" textLength="90" x="26" y="88.5449">ComponentDto()</text><ellipse cx="17" cy="98.8428" fill="#84BE84" rx="3" ry="3" style="stroke: #038048; stroke-width: 1.0;"/><text fill="#000000" font-family="sans-serif" font-size="11" lengthAdjust="spacingAndGlyphs" textLength="174" x="26" y="101.5">ComponentDto(ComponentInfo)</text><ellipse cx="17" cy="111.7979" fill="#84BE84" rx="3" ry="3" style="stroke: #038048; stroke-width: 1.0;"/><text fill="#000000" font-family="sans-serif" font-size="11" lengthAdjust="spacingAndGlyphs" textLength="102" x="26" y="114.4551">getVendor(): String</text><ellipse cx="17" cy="124.7529" fill="#84BE84" rx="3" ry="3" style="stroke: #038048; stroke-width: 1.0;"/><text fill="#000000" font-family="sans-serif" font-size="11" lengthAdjust="spacingAndGlyphs" textLength="124" x="26" y="127.4102">setVendor(String): void</text><ellipse cx="17" cy="137.708" fill="#84BE84" rx="3" ry="3" style="stroke: #038048; stroke-width: 1.0;"/><text fill="#000000" font-family="sans-serif" font-size="11" lengthAdjust="spacingAndGlyphs" textLength="104" x="26" y="140.3652">getVersion(): String</text><ellipse cx="17" cy="150.6631" fill="#84BE84" rx="3" ry="3" style="stroke: #038048; stroke-width: 1.0;"/><text fill="#000000" font-family="sans-serif" font-size="11" lengthAdjust="spacingAndGlyphs" textLength="126" x="26" y="153.3203">setVersion(String): void</text><ellipse cx="17" cy="163.6182" fill="#84BE84" rx="3" ry="3" style="stroke: #038048; stroke-width: 1.0;"/><text fill="#000000" font-family="sans-serif" font-size="11" lengthAdjust="spacingAndGlyphs" textLength="157" x="26" y="166.2754">createCopy(): ComponentDto</text></a><!--
@startuml

    class ComponentDto [[ComponentDto.html]] {
        #vendor: String
        #version: String
        +ComponentDto()
        +ComponentDto(ComponentInfo)
        +getVendor(): String
        +setVendor(String): void
        +getVersion(): String
        +setVersion(String): void
        +createCopy(): ComponentDto
    }

@enduml

PlantUML version 1.2018.08(Sun Jun 24 14:31:00 CEST 2018)
(APACHE source distribution)
Java Runtime: Java(TM) SE Runtime Environment
JVM: Java HotSpot(TM) 64-Bit Server VM
Java Version: 1.8.0_151-b12
Operating System: Mac OS X
OS Version: 10.13.6
Default Encoding: UTF-8
Language: en
Country: US
--></g></svg>