<?xml version="1.0" encoding="UTF-8" standalone="no"?><svg xmlns="http://www.w3.org/2000/svg" xmlns:xlink="http://www.w3.org/1999/xlink" contentScriptType="application/ecmascript" contentStyleType="text/css" height="170px" preserveAspectRatio="none" style="width:240px;height:170px;" version="1.1" viewBox="0 0 240 170" width="240px" zoomAndPan="magnify"><defs><filter height="300%" id="f1eotpksyo47bs" width="300%" x="-1" y="-1"><feGaussianBlur result="blurOut" stdDeviation="2.0"/><feColorMatrix in="blurOut" result="blurOut2" type="matrix" values="0 0 0 0 0 0 0 0 0 0 0 0 0 0 0 0 0 0 .4 0"/><feOffset dx="4.0" dy="4.0" in="blurOut2" result="blurOut3"/><feBlend in="SourceGraphic" in2="blurOut3" mode="normal"/></filter></defs><g><!--class CredentialDto--><a target="_top" xlink:actuate="onRequest" xlink:href="CredentialDto.html" xlink:show="new" xlink:title="CredentialDto.html" xlink:type="simple"><rect fill="#FEFECE" filter="url(#f1eotpksyo47bs)" height="151.6406" id="CredentialDto" style="stroke: #A80036; stroke-width: 1.5;" width="223" x="6" y="8"/><ellipse cx="73.75" cy="24" fill="#ADD1B2" rx="11" ry="11" style="stroke: #A80036; stroke-width: 1.0;"/><path d="M76.7231,29.6431 Q76.1421,29.9419 75.5029,30.0913 Q74.8638,30.2407 74.1582,30.2407 Q71.6514,30.2407 70.3315,28.5889 Q69.0117,26.937 69.0117,23.8159 Q69.0117,20.6865 70.3315,19.0347 Q71.6514,17.3828 74.1582,17.3828 Q74.8638,17.3828 75.5112,17.5322 Q76.1587,17.6816 76.7231,17.9805 L76.7231,20.7031 Q76.0923,20.1221 75.4988,19.8523 Q74.9053,19.5825 74.2744,19.5825 Q72.9297,19.5825 72.2449,20.6492 Q71.5601,21.7158 71.5601,23.8159 Q71.5601,25.9077 72.2449,26.9744 Q72.9297,28.041 74.2744,28.041 Q74.9053,28.041 75.4988,27.7712 Q76.0923,27.5015 76.7231,26.9204 Z "/><text fill="#000000" font-family="sans-serif" font-size="12" lengthAdjust="spacingAndGlyphs" textLength="79" x="94.25" y="28.5352">CredentialDto</text><line style="stroke: #A80036; stroke-width: 1.5;" x1="7" x2="228" y1="40" y2="40"/><line style="stroke: #A80036; stroke-width: 1.5;" x1="7" x2="228" y1="48" y2="48"/><ellipse cx="17" cy="59.9775" fill="#84BE84" rx="3" ry="3" style="stroke: #038048; stroke-width: 1.0;"/><text fill="#000000" font-family="sans-serif" font-size="11" lengthAdjust="spacingAndGlyphs" textLength="82" x="26" y="62.6348">CredentialDto()</text><ellipse cx="17" cy="72.9326" fill="#84BE84" rx="3" ry="3" style="stroke: #038048; stroke-width: 1.0;"/><text fill="#000000" font-family="sans-serif" font-size="11" lengthAdjust="spacingAndGlyphs" textLength="175" x="26" y="75.5898">getApplicableTo(): ModelItemDto</text><ellipse cx="17" cy="85.8877" fill="#84BE84" rx="3" ry="3" style="stroke: #038048; stroke-width: 1.0;"/><text fill="#000000" font-family="sans-serif" font-size="11" lengthAdjust="spacingAndGlyphs" textLength="197" x="26" y="88.5449">setApplicableTo(ModelItemDto): void</text><ellipse cx="17" cy="98.8428" fill="#84BE84" rx="3" ry="3" style="stroke: #038048; stroke-width: 1.0;"/><text fill="#000000" font-family="sans-serif" font-size="11" lengthAdjust="spacingAndGlyphs" textLength="135" x="26" y="101.5">getApplicableUri(): String</text><ellipse cx="17" cy="111.7979" fill="#84BE84" rx="3" ry="3" style="stroke: #038048; stroke-width: 1.0;"/><text fill="#000000" font-family="sans-serif" font-size="11" lengthAdjust="spacingAndGlyphs" textLength="157" x="26" y="114.4551">setApplicableUri(String): void</text><ellipse cx="17" cy="124.7529" fill="#84BE84" rx="3" ry="3" style="stroke: #038048; stroke-width: 1.0;"/><text fill="#000000" font-family="sans-serif" font-size="11" lengthAdjust="spacingAndGlyphs" textLength="98" x="26" y="127.4102">getCipher(): byte[]</text><ellipse cx="17" cy="137.708" fill="#84BE84" rx="3" ry="3" style="stroke: #038048; stroke-width: 1.0;"/><text fill="#000000" font-family="sans-serif" font-size="11" lengthAdjust="spacingAndGlyphs" textLength="120" x="26" y="140.3652">setCipher(byte[]): void</text><ellipse cx="17" cy="150.6631" fill="#84BE84" rx="3" ry="3" style="stroke: #038048; stroke-width: 1.0;"/><text fill="#000000" font-family="sans-serif" font-size="11" lengthAdjust="spacingAndGlyphs" textLength="149" x="26" y="153.3203">createCopy(): CredentialDto</text></a><!--
@startuml

    class CredentialDto [[CredentialDto.html]] {
        +CredentialDto()
        +getApplicableTo(): ModelItemDto
        +setApplicableTo(ModelItemDto): void
        +getApplicableUri(): String
        +setApplicableUri(String): void
        +getCipher(): byte[]
        +setCipher(byte[]): void
        +createCopy(): CredentialDto
    }

@enduml

PlantUML version 1.2018.08(Sun Jun 24 14:31:00 CEST 2018)
(APACHE source distribution)
Java Runtime: Java(TM) SE Runtime Environment
JVM: Java HotSpot(TM) 64-Bit Server VM
Java Version: 1.8.0_151-b12
Operating System: Mac OS X
OS Version: 10.13.6
Default Encoding: UTF-8
Language: en
Country: US
--></g></svg>