<?xml version="1.0" encoding="UTF-8" standalone="no"?><svg xmlns="http://www.w3.org/2000/svg" xmlns:xlink="http://www.w3.org/1999/xlink" contentScriptType="application/ecmascript" contentStyleType="text/css" height="222px" preserveAspectRatio="none" style="width:270px;height:222px;" version="1.1" viewBox="0 0 270 222" width="270px" zoomAndPan="magnify"><defs><filter height="300%" id="fhujed94bdyzr" width="300%" x="-1" y="-1"><feGaussianBlur result="blurOut" stdDeviation="2.0"/><feColorMatrix in="blurOut" result="blurOut2" type="matrix" values="0 0 0 0 0 0 0 0 0 0 0 0 0 0 0 0 0 0 .4 0"/><feOffset dx="4.0" dy="4.0" in="blurOut2" result="blurOut3"/><feBlend in="SourceGraphic" in2="blurOut3" mode="normal"/></filter></defs><g><!--class ResourceDto--><a target="_top" xlink:actuate="onRequest" xlink:href="ResourceDto.html" xlink:show="new" xlink:title="ResourceDto.html" xlink:type="simple"><rect fill="#FEFECE" filter="url(#fhujed94bdyzr)" height="203.4609" id="ResourceDto" style="stroke: #A80036; stroke-width: 1.5;" width="253" x="6" y="8"/><ellipse cx="91.75" cy="24" fill="#ADD1B2" rx="11" ry="11" style="stroke: #A80036; stroke-width: 1.0;"/><path d="M94.7231,29.6431 Q94.1421,29.9419 93.5029,30.0913 Q92.8638,30.2407 92.1582,30.2407 Q89.6514,30.2407 88.3315,28.5889 Q87.0117,26.937 87.0117,23.8159 Q87.0117,20.6865 88.3315,19.0347 Q89.6514,17.3828 92.1582,17.3828 Q92.8638,17.3828 93.5112,17.5322 Q94.1587,17.6816 94.7231,17.9805 L94.7231,20.7031 Q94.0923,20.1221 93.4988,19.8523 Q92.9053,19.5825 92.2744,19.5825 Q90.9297,19.5825 90.2449,20.6492 Q89.5601,21.7158 89.5601,23.8159 Q89.5601,25.9077 90.2449,26.9744 Q90.9297,28.041 92.2744,28.041 Q92.9053,28.041 93.4988,27.7712 Q94.0923,27.5015 94.7231,26.9204 Z "/><text fill="#000000" font-family="sans-serif" font-size="12" lengthAdjust="spacingAndGlyphs" textLength="73" x="112.25" y="28.5352">ResourceDto</text><line style="stroke: #A80036; stroke-width: 1.5;" x1="7" x2="258" y1="40" y2="40"/><line style="stroke: #A80036; stroke-width: 1.5;" x1="7" x2="258" y1="48" y2="48"/><ellipse cx="17" cy="59.9775" fill="#84BE84" rx="3" ry="3" style="stroke: #038048; stroke-width: 1.0;"/><text fill="#000000" font-family="sans-serif" font-size="11" lengthAdjust="spacingAndGlyphs" textLength="77" x="26" y="62.6348">ResourceDto()</text><ellipse cx="17" cy="72.9326" fill="#84BE84" rx="3" ry="3" style="stroke: #038048; stroke-width: 1.0;"/><text fill="#000000" font-family="sans-serif" font-size="11" lengthAdjust="spacingAndGlyphs" textLength="147" x="26" y="75.5898">ResourceDto(String, String)</text><ellipse cx="17" cy="85.8877" fill="#84BE84" rx="3" ry="3" style="stroke: #038048; stroke-width: 1.0;"/><text fill="#000000" font-family="sans-serif" font-size="11" lengthAdjust="spacingAndGlyphs" textLength="133" x="26" y="88.5449">ResourceDto(String, URI)</text><ellipse cx="17" cy="98.8428" fill="#84BE84" rx="3" ry="3" style="stroke: #038048; stroke-width: 1.0;"/><text fill="#000000" font-family="sans-serif" font-size="11" lengthAdjust="spacingAndGlyphs" textLength="227" x="26" y="101.5">ResourceDto(String, String, CredentialDto)</text><ellipse cx="17" cy="111.7979" fill="#84BE84" rx="3" ry="3" style="stroke: #038048; stroke-width: 1.0;"/><text fill="#000000" font-family="sans-serif" font-size="11" lengthAdjust="spacingAndGlyphs" textLength="213" x="26" y="114.4551">ResourceDto(String, URI, CredentialDto)</text><ellipse cx="17" cy="124.7529" fill="#84BE84" rx="3" ry="3" style="stroke: #038048; stroke-width: 1.0;"/><text fill="#000000" font-family="sans-serif" font-size="11" lengthAdjust="spacingAndGlyphs" textLength="160" x="26" y="127.4102">getCredential(): CredentialDto</text><ellipse cx="17" cy="137.708" fill="#84BE84" rx="3" ry="3" style="stroke: #038048; stroke-width: 1.0;"/><text fill="#000000" font-family="sans-serif" font-size="11" lengthAdjust="spacingAndGlyphs" textLength="182" x="26" y="140.3652">setCredential(CredentialDto): void</text><ellipse cx="17" cy="150.6631" fill="#84BE84" rx="3" ry="3" style="stroke: #038048; stroke-width: 1.0;"/><text fill="#000000" font-family="sans-serif" font-size="11" lengthAdjust="spacingAndGlyphs" textLength="93" x="26" y="153.3203">getName(): String</text><ellipse cx="17" cy="163.6182" fill="#84BE84" rx="3" ry="3" style="stroke: #038048; stroke-width: 1.0;"/><text fill="#000000" font-family="sans-serif" font-size="11" lengthAdjust="spacingAndGlyphs" textLength="115" x="26" y="166.2754">setName(String): void</text><ellipse cx="17" cy="176.5732" fill="#84BE84" rx="3" ry="3" style="stroke: #038048; stroke-width: 1.0;"/><text fill="#000000" font-family="sans-serif" font-size="11" lengthAdjust="spacingAndGlyphs" textLength="65" x="26" y="179.2305">getUri(): URI</text><ellipse cx="17" cy="189.5283" fill="#84BE84" rx="3" ry="3" style="stroke: #038048; stroke-width: 1.0;"/><text fill="#000000" font-family="sans-serif" font-size="11" lengthAdjust="spacingAndGlyphs" textLength="87" x="26" y="192.1855">setUri(URI): void</text><ellipse cx="17" cy="202.4834" fill="#84BE84" rx="3" ry="3" style="stroke: #038048; stroke-width: 1.0;"/><text fill="#000000" font-family="sans-serif" font-size="11" lengthAdjust="spacingAndGlyphs" textLength="101" x="26" y="205.1406">setUri(String): void</text></a><!--
@startuml

    class ResourceDto [[ResourceDto.html]] {
        +ResourceDto()
        +ResourceDto(String, String)
        +ResourceDto(String, URI)
        +ResourceDto(String, String, CredentialDto)
        +ResourceDto(String, URI, CredentialDto)
        +getCredential(): CredentialDto
        +setCredential(CredentialDto): void
        +getName(): String
        +setName(String): void
        +getUri(): URI
        +setUri(URI): void
        +setUri(String): void
    }

@enduml

PlantUML version 1.2018.08(Sun Jun 24 14:31:00 CEST 2018)
(APACHE source distribution)
Java Runtime: Java(TM) SE Runtime Environment
JVM: Java HotSpot(TM) 64-Bit Server VM
Java Version: 1.8.0_151-b12
Operating System: Mac OS X
OS Version: 10.13.6
Default Encoding: UTF-8
Language: en
Country: US
--></g></svg>