<?xml version="1.0" encoding="UTF-8" standalone="no"?><svg xmlns="http://www.w3.org/2000/svg" xmlns:xlink="http://www.w3.org/1999/xlink" contentScriptType="application/ecmascript" contentStyleType="text/css" height="131px" preserveAspectRatio="none" style="width:195px;height:131px;" version="1.1" viewBox="0 0 195 131" width="195px" zoomAndPan="magnify"><defs><filter height="300%" id="f1bl65e07can8a" width="300%" x="-1" y="-1"><feGaussianBlur result="blurOut" stdDeviation="2.0"/><feColorMatrix in="blurOut" result="blurOut2" type="matrix" values="0 0 0 0 0 0 0 0 0 0 0 0 0 0 0 0 0 0 .4 0"/><feOffset dx="4.0" dy="4.0" in="blurOut2" result="blurOut3"/><feBlend in="SourceGraphic" in2="blurOut3" mode="normal"/></filter></defs><g><!--class ResultStyleDto--><a target="_top" xlink:actuate="onRequest" xlink:href="ResultStyleDto.html" xlink:show="new" xlink:title="ResultStyleDto.html" xlink:type="simple"><rect fill="#FEFECE" filter="url(#f1bl65e07can8a)" height="112.7754" id="ResultStyleDto" style="stroke: #A80036; stroke-width: 1.5;" width="178" x="6" y="8"/><ellipse cx="50.25" cy="24" fill="#ADD1B2" rx="11" ry="11" style="stroke: #A80036; stroke-width: 1.0;"/><path d="M53.2231,29.6431 Q52.6421,29.9419 52.0029,30.0913 Q51.3638,30.2407 50.6582,30.2407 Q48.1514,30.2407 46.8315,28.5889 Q45.5117,26.937 45.5117,23.8159 Q45.5117,20.6865 46.8315,19.0347 Q48.1514,17.3828 50.6582,17.3828 Q51.3638,17.3828 52.0112,17.5322 Q52.6587,17.6816 53.2231,17.9805 L53.2231,20.7031 Q52.5923,20.1221 51.9988,19.8523 Q51.4053,19.5825 50.7744,19.5825 Q49.4297,19.5825 48.7449,20.6492 Q48.0601,21.7158 48.0601,23.8159 Q48.0601,25.9077 48.7449,26.9744 Q49.4297,28.041 50.7744,28.041 Q51.4053,28.041 51.9988,27.7712 Q52.5923,27.5015 53.2231,26.9204 Z "/><text fill="#000000" font-family="sans-serif" font-size="12" lengthAdjust="spacingAndGlyphs" textLength="81" x="70.75" y="28.5352">ResultStyleDto</text><line style="stroke: #A80036; stroke-width: 1.5;" x1="7" x2="183" y1="40" y2="40"/><polygon fill="none" points="17,46.9775,21,50.9775,17,54.9775,13,50.9775" style="stroke: #B38D22; stroke-width: 1.0;"/><text fill="#000000" font-family="sans-serif" font-size="11" lengthAdjust="spacingAndGlyphs" textLength="72" x="26" y="54.6348">resource: URI</text><line style="stroke: #A80036; stroke-width: 1.5;" x1="7" x2="183" y1="60.9551" y2="60.9551"/><ellipse cx="17" cy="72.9326" fill="#84BE84" rx="3" ry="3" style="stroke: #038048; stroke-width: 1.0;"/><text fill="#000000" font-family="sans-serif" font-size="11" lengthAdjust="spacingAndGlyphs" textLength="85" x="26" y="75.5898">ResultStyleDto()</text><ellipse cx="17" cy="85.8877" fill="#84BE84" rx="3" ry="3" style="stroke: #038048; stroke-width: 1.0;"/><text fill="#000000" font-family="sans-serif" font-size="11" lengthAdjust="spacingAndGlyphs" textLength="99" x="26" y="88.5449">getResource(): URI</text><ellipse cx="17" cy="98.8428" fill="#84BE84" rx="3" ry="3" style="stroke: #038048; stroke-width: 1.0;"/><text fill="#000000" font-family="sans-serif" font-size="11" lengthAdjust="spacingAndGlyphs" textLength="121" x="26" y="101.5">setResource(URI): void</text><ellipse cx="17" cy="111.7979" fill="#84BE84" rx="3" ry="3" style="stroke: #038048; stroke-width: 1.0;"/><text fill="#000000" font-family="sans-serif" font-size="11" lengthAdjust="spacingAndGlyphs" textLength="152" x="26" y="114.4551">createCopy(): ResultStyleDto</text></a><!--
@startuml

    class ResultStyleDto [[ResultStyleDto.html]] {
        #resource: URI
        +ResultStyleDto()
        +getResource(): URI
        +setResource(URI): void
        +createCopy(): ResultStyleDto
    }

@enduml

PlantUML version 1.2018.08(Sun Jun 24 14:31:00 CEST 2018)
(APACHE source distribution)
Java Runtime: Java(TM) SE Runtime Environment
JVM: Java HotSpot(TM) 64-Bit Server VM
Java Version: 1.8.0_151-b12
Operating System: Mac OS X
OS Version: 10.13.6
Default Encoding: UTF-8
Language: en
Country: US
--></g></svg>