<?xml version="1.0" encoding="UTF-8" standalone="no"?><svg xmlns="http://www.w3.org/2000/svg" xmlns:xlink="http://www.w3.org/1999/xlink" contentScriptType="application/ecmascript" contentStyleType="text/css" height="150px" preserveAspectRatio="none" style="width:176px;height:150px;" version="1.1" viewBox="0 0 176 150" width="176px" zoomAndPan="magnify"><defs><filter height="300%" id="fzrj3oz16f35" width="300%" x="-1" y="-1"><feGaussianBlur result="blurOut" stdDeviation="2.0"/><feColorMatrix in="blurOut" result="blurOut2" type="matrix" values="0 0 0 0 0 0 0 0 0 0 0 0 0 0 0 0 0 0 .4 0"/><feOffset dx="4.0" dy="4.0" in="blurOut2" result="blurOut3"/><feBlend in="SourceGraphic" in2="blurOut3" mode="normal"/></filter></defs><g><!--cluster WriteDaoListener--><polygon fill="#FFFFFF" filter="url(#fzrj3oz16f35)" points="14,16,144,16,151,38.4883,154,38.4883,154,138,14,138,14,16" style="stroke: #000000; stroke-width: 1.5;"/><line style="stroke: #000000; stroke-width: 1.5;" x1="14" x2="151" y1="38.4883" y2="38.4883"/><text fill="#000000" font-family="sans-serif" font-size="14" font-weight="bold" lengthAdjust="spacingAndGlyphs" textLength="124" x="18" y="31.5352">WriteDaoListener</text><!--class WriteDaoListener.EventType--><a target="_top" xlink:actuate="onRequest" xlink:href="WriteDaoListener.EventType.html" xlink:show="new" xlink:title="WriteDaoListener.EventType.html" xlink:type="simple"><rect fill="#FEFECE" filter="url(#fzrj3oz16f35)" height="86.8652" id="WriteDaoListener.EventType" style="stroke: #A80036; stroke-width: 1.5;" width="92" x="38" y="43"/><ellipse cx="53" cy="59" fill="#EB937F" rx="11" ry="11" style="stroke: #A80036; stroke-width: 1.0;"/><path d="M57.1143,65 L49.3945,65 L49.3945,52.6069 L57.1143,52.6069 L57.1143,54.7651 L51.8433,54.7651 L51.8433,57.438 L56.6162,57.438 L56.6162,59.5962 L51.8433,59.5962 L51.8433,62.8418 L57.1143,62.8418 Z "/><text fill="#000000" font-family="sans-serif" font-size="12" lengthAdjust="spacingAndGlyphs" textLength="60" x="67" y="63.5352">EventType</text><line style="stroke: #A80036; stroke-width: 1.5;" x1="39" x2="129" y1="75" y2="75"/><ellipse cx="49" cy="86.9775" fill="none" rx="3" ry="3" style="stroke: #038048; stroke-width: 1.0;"/><text fill="#000000" font-family="sans-serif" font-size="11" lengthAdjust="spacingAndGlyphs" text-decoration="underline" textLength="24" x="58" y="89.6348">ADD</text><line style="stroke: #000000; stroke-width: 1.0;" x1="58" x2="82" y1="91.6348" y2="91.6348"/><ellipse cx="49" cy="99.9326" fill="none" rx="3" ry="3" style="stroke: #038048; stroke-width: 1.0;"/><text fill="#000000" font-family="sans-serif" font-size="11" lengthAdjust="spacingAndGlyphs" text-decoration="underline" textLength="43" x="58" y="102.5898">UPDATE</text><line style="stroke: #000000; stroke-width: 1.0;" x1="58" x2="101" y1="104.5898" y2="104.5898"/><ellipse cx="49" cy="112.8877" fill="none" rx="3" ry="3" style="stroke: #038048; stroke-width: 1.0;"/><text fill="#000000" font-family="sans-serif" font-size="11" lengthAdjust="spacingAndGlyphs" text-decoration="underline" textLength="39" x="58" y="115.5449">DELETE</text><line style="stroke: #000000; stroke-width: 1.0;" x1="58" x2="97" y1="117.5449" y2="117.5449"/><line style="stroke: #A80036; stroke-width: 1.5;" x1="39" x2="129" y1="121.8652" y2="121.8652"/></a><!--
@startuml

    enum WriteDaoListener.EventType [[WriteDaoListener.EventType.html]] {
        {static} +ADD
        {static} +UPDATE
        {static} +DELETE
    }

@enduml

PlantUML version 1.2018.08(Sun Jun 24 14:31:00 CEST 2018)
(APACHE source distribution)
Java Runtime: Java(TM) SE Runtime Environment
JVM: Java HotSpot(TM) 64-Bit Server VM
Java Version: 1.8.0_151-b12
Operating System: Mac OS X
OS Version: 10.13.6
Default Encoding: UTF-8
Language: en
Country: US
--></g></svg>