<?xml version="1.0" encoding="UTF-8" standalone="no"?><svg xmlns="http://www.w3.org/2000/svg" xmlns:xlink="http://www.w3.org/1999/xlink" contentScriptType="application/ecmascript" contentStyleType="text/css" height="248px" preserveAspectRatio="none" style="width:208px;height:248px;" version="1.1" viewBox="0 0 208 248" width="208px" zoomAndPan="magnify"><defs><filter height="300%" id="fih8hea7mkizu" width="300%" x="-1" y="-1"><feGaussianBlur result="blurOut" stdDeviation="2.0"/><feColorMatrix in="blurOut" result="blurOut2" type="matrix" values="0 0 0 0 0 0 0 0 0 0 0 0 0 0 0 0 0 0 .4 0"/><feOffset dx="4.0" dy="4.0" in="blurOut2" result="blurOut3"/><feBlend in="SourceGraphic" in2="blurOut3" mode="normal"/></filter></defs><g><!--class AttachmentDto--><a target="_top" xlink:actuate="onRequest" xlink:href="AttachmentDto.html" xlink:show="new" xlink:title="AttachmentDto.html" xlink:type="simple"><rect fill="#FEFECE" filter="url(#fih8hea7mkizu)" height="229.3711" id="AttachmentDto" style="stroke: #A80036; stroke-width: 1.5;" width="191" x="6" y="8"/><ellipse cx="54.75" cy="24" fill="#ADD1B2" rx="11" ry="11" style="stroke: #A80036; stroke-width: 1.0;"/><path d="M57.7231,29.6431 Q57.1421,29.9419 56.5029,30.0913 Q55.8638,30.2407 55.1582,30.2407 Q52.6514,30.2407 51.3315,28.5889 Q50.0117,26.937 50.0117,23.8159 Q50.0117,20.6865 51.3315,19.0347 Q52.6514,17.3828 55.1582,17.3828 Q55.8638,17.3828 56.5112,17.5322 Q57.1587,17.6816 57.7231,17.9805 L57.7231,20.7031 Q57.0923,20.1221 56.4988,19.8523 Q55.9053,19.5825 55.2744,19.5825 Q53.9297,19.5825 53.2449,20.6492 Q52.5601,21.7158 52.5601,23.8159 Q52.5601,25.9077 53.2449,26.9744 Q53.9297,28.041 55.2744,28.041 Q55.9053,28.041 56.4988,27.7712 Q57.0923,27.5015 57.7231,26.9204 Z "/><text fill="#000000" font-family="sans-serif" font-size="12" lengthAdjust="spacingAndGlyphs" textLength="85" x="75.25" y="28.5352">AttachmentDto</text><line style="stroke: #A80036; stroke-width: 1.5;" x1="7" x2="196" y1="40" y2="40"/><line style="stroke: #A80036; stroke-width: 1.5;" x1="7" x2="196" y1="48" y2="48"/><ellipse cx="17" cy="59.9775" fill="#84BE84" rx="3" ry="3" style="stroke: #038048; stroke-width: 1.0;"/><text fill="#000000" font-family="sans-serif" font-size="11" lengthAdjust="spacingAndGlyphs" textLength="89" x="26" y="62.6348">AttachmentDto()</text><ellipse cx="17" cy="72.9326" fill="#84BE84" rx="3" ry="3" style="stroke: #038048; stroke-width: 1.0;"/><text fill="#000000" font-family="sans-serif" font-size="11" lengthAdjust="spacingAndGlyphs" textLength="91" x="26" y="75.5898">getLabel(): String</text><ellipse cx="17" cy="85.8877" fill="#84BE84" rx="3" ry="3" style="stroke: #038048; stroke-width: 1.0;"/><text fill="#000000" font-family="sans-serif" font-size="11" lengthAdjust="spacingAndGlyphs" textLength="113" x="26" y="88.5449">setLabel(String): void</text><ellipse cx="17" cy="98.8428" fill="#84BE84" rx="3" ry="3" style="stroke: #038048; stroke-width: 1.0;"/><text fill="#000000" font-family="sans-serif" font-size="11" lengthAdjust="spacingAndGlyphs" textLength="113" x="26" y="101.5">getEncoding(): String</text><ellipse cx="17" cy="111.7979" fill="#84BE84" rx="3" ry="3" style="stroke: #038048; stroke-width: 1.0;"/><text fill="#000000" font-family="sans-serif" font-size="11" lengthAdjust="spacingAndGlyphs" textLength="135" x="26" y="114.4551">setEncoding(String): void</text><ellipse cx="17" cy="124.7529" fill="#84BE84" rx="3" ry="3" style="stroke: #038048; stroke-width: 1.0;"/><text fill="#000000" font-family="sans-serif" font-size="11" lengthAdjust="spacingAndGlyphs" textLength="117" x="26" y="127.4102">getMimeType(): String</text><ellipse cx="17" cy="137.708" fill="#84BE84" rx="3" ry="3" style="stroke: #038048; stroke-width: 1.0;"/><text fill="#000000" font-family="sans-serif" font-size="11" lengthAdjust="spacingAndGlyphs" textLength="139" x="26" y="140.3652">setMimeType(String): void</text><ellipse cx="17" cy="150.6631" fill="#84BE84" rx="3" ry="3" style="stroke: #038048; stroke-width: 1.0;"/><text fill="#000000" font-family="sans-serif" font-size="11" lengthAdjust="spacingAndGlyphs" textLength="89" x="26" y="153.3203">getType(): String</text><ellipse cx="17" cy="163.6182" fill="#84BE84" rx="3" ry="3" style="stroke: #038048; stroke-width: 1.0;"/><text fill="#000000" font-family="sans-serif" font-size="11" lengthAdjust="spacingAndGlyphs" textLength="111" x="26" y="166.2754">setType(String): void</text><ellipse cx="17" cy="176.5732" fill="#84BE84" rx="3" ry="3" style="stroke: #038048; stroke-width: 1.0;"/><text fill="#000000" font-family="sans-serif" font-size="11" lengthAdjust="spacingAndGlyphs" textLength="133" x="26" y="179.2305">getReferencedData(): URI</text><ellipse cx="17" cy="189.5283" fill="#84BE84" rx="3" ry="3" style="stroke: #038048; stroke-width: 1.0;"/><text fill="#000000" font-family="sans-serif" font-size="11" lengthAdjust="spacingAndGlyphs" textLength="155" x="26" y="192.1855">setReferencedData(URI): void</text><ellipse cx="17" cy="202.4834" fill="#84BE84" rx="3" ry="3" style="stroke: #038048; stroke-width: 1.0;"/><text fill="#000000" font-family="sans-serif" font-size="11" lengthAdjust="spacingAndGlyphs" textLength="143" x="26" y="205.1406">getEmbeddedData(): String</text><ellipse cx="17" cy="215.4385" fill="#84BE84" rx="3" ry="3" style="stroke: #038048; stroke-width: 1.0;"/><text fill="#000000" font-family="sans-serif" font-size="11" lengthAdjust="spacingAndGlyphs" textLength="165" x="26" y="218.0957">setEmbeddedData(String): void</text><ellipse cx="17" cy="228.3936" fill="#84BE84" rx="3" ry="3" style="stroke: #038048; stroke-width: 1.0;"/><text fill="#000000" font-family="sans-serif" font-size="11" lengthAdjust="spacingAndGlyphs" textLength="156" x="26" y="231.0508">createCopy(): AttachmentDto</text></a><!--
@startuml

    class AttachmentDto [[AttachmentDto.html]] {
        +AttachmentDto()
        +getLabel(): String
        +setLabel(String): void
        +getEncoding(): String
        +setEncoding(String): void
        +getMimeType(): String
        +setMimeType(String): void
        +getType(): String
        +setType(String): void
        +getReferencedData(): URI
        +setReferencedData(URI): void
        +getEmbeddedData(): String
        +setEmbeddedData(String): void
        +createCopy(): AttachmentDto
    }

@enduml

PlantUML version 1.2018.08(Sun Jun 24 14:31:00 CEST 2018)
(APACHE source distribution)
Java Runtime: Java(TM) SE Runtime Environment
JVM: Java HotSpot(TM) 64-Bit Server VM
Java Version: 1.8.0_151-b12
Operating System: Mac OS X
OS Version: 10.13.6
Default Encoding: UTF-8
Language: en
Country: US
--></g></svg>