<?xml version="1.0" encoding="UTF-8" standalone="no"?><svg xmlns="http://www.w3.org/2000/svg" xmlns:xlink="http://www.w3.org/1999/xlink" contentScriptType="application/ecmascript" contentStyleType="text/css" height="157px" preserveAspectRatio="none" style="width:316px;height:157px;" version="1.1" viewBox="0 0 316 157" width="316px" zoomAndPan="magnify"><defs><filter height="300%" id="f147nn8dbcs1st" width="300%" x="-1" y="-1"><feGaussianBlur result="blurOut" stdDeviation="2.0"/><feColorMatrix in="blurOut" result="blurOut2" type="matrix" values="0 0 0 0 0 0 0 0 0 0 0 0 0 0 0 0 0 0 .4 0"/><feOffset dx="4.0" dy="4.0" in="blurOut2" result="blurOut3"/><feBlend in="SourceGraphic" in2="blurOut3" mode="normal"/></filter></defs><g><!--class TestCaseResultDto--><a target="_top" xlink:actuate="onRequest" xlink:href="TestCaseResultDto.html" xlink:show="new" xlink:title="TestCaseResultDto.html" xlink:type="simple"><rect fill="#FEFECE" filter="url(#f147nn8dbcs1st)" height="138.6855" id="TestCaseResultDto" style="stroke: #A80036; stroke-width: 1.5;" width="299" x="6" y="8"/><ellipse cx="97.25" cy="24" fill="#ADD1B2" rx="11" ry="11" style="stroke: #A80036; stroke-width: 1.0;"/><path d="M100.2231,29.6431 Q99.6421,29.9419 99.0029,30.0913 Q98.3638,30.2407 97.6582,30.2407 Q95.1514,30.2407 93.8315,28.5889 Q92.5117,26.937 92.5117,23.8159 Q92.5117,20.6865 93.8315,19.0347 Q95.1514,17.3828 97.6582,17.3828 Q98.3638,17.3828 99.0112,17.5322 Q99.6587,17.6816 100.2231,17.9805 L100.2231,20.7031 Q99.5923,20.1221 98.9988,19.8523 Q98.4053,19.5825 97.7744,19.5825 Q96.4297,19.5825 95.7449,20.6492 Q95.0601,21.7158 95.0601,23.8159 Q95.0601,25.9077 95.7449,26.9744 Q96.4297,28.041 97.7744,28.041 Q98.4053,28.041 98.9988,27.7712 Q99.5923,27.5015 100.2231,26.9204 Z "/><text fill="#000000" font-family="sans-serif" font-size="12" lengthAdjust="spacingAndGlyphs" textLength="108" x="117.75" y="28.5352">TestCaseResultDto</text><line style="stroke: #A80036; stroke-width: 1.5;" x1="7" x2="304" y1="40" y2="40"/><line style="stroke: #A80036; stroke-width: 1.5;" x1="7" x2="304" y1="48" y2="48"/><ellipse cx="17" cy="59.9775" fill="#84BE84" rx="3" ry="3" style="stroke: #038048; stroke-width: 1.0;"/><text fill="#000000" font-family="sans-serif" font-size="11" lengthAdjust="spacingAndGlyphs" textLength="109" x="26" y="62.6348">TestCaseResultDto()</text><ellipse cx="17" cy="72.9326" fill="#84BE84" rx="3" ry="3" style="stroke: #038048; stroke-width: 1.0;"/><text fill="#000000" font-family="sans-serif" font-size="11" lengthAdjust="spacingAndGlyphs" textLength="251" x="26" y="75.5898">getTestStepResults(): List&lt;TestStepResultDto&gt;</text><ellipse cx="17" cy="85.8877" fill="#84BE84" rx="3" ry="3" style="stroke: #038048; stroke-width: 1.0;"/><text fill="#000000" font-family="sans-serif" font-size="11" lengthAdjust="spacingAndGlyphs" textLength="273" x="26" y="88.5449">setTestStepResults(List&lt;TestStepResultDto&gt;): void</text><ellipse cx="17" cy="98.8428" fill="#84BE84" rx="3" ry="3" style="stroke: #038048; stroke-width: 1.0;"/><text fill="#000000" font-family="sans-serif" font-size="11" lengthAdjust="spacingAndGlyphs" textLength="234" x="26" y="101.5">addTestStepResult(TestStepResultDto): void</text><ellipse cx="17" cy="111.7979" fill="#84BE84" rx="3" ry="3" style="stroke: #038048; stroke-width: 1.0;"/><text fill="#000000" font-family="sans-serif" font-size="11" lengthAdjust="spacingAndGlyphs" textLength="151" x="26" y="114.4551">getArguments(): Arguments</text><ellipse cx="17" cy="124.7529" fill="#84BE84" rx="3" ry="3" style="stroke: #038048; stroke-width: 1.0;"/><text fill="#000000" font-family="sans-serif" font-size="11" lengthAdjust="spacingAndGlyphs" textLength="173" x="26" y="127.4102">setArguments(Arguments): void</text><ellipse cx="17" cy="137.708" fill="#84BE84" rx="3" ry="3" style="stroke: #038048; stroke-width: 1.0;"/><text fill="#000000" font-family="sans-serif" font-size="11" lengthAdjust="spacingAndGlyphs" textLength="176" x="26" y="140.3652">createCopy(): TestCaseResultDto</text></a><!--
@startuml

    class TestCaseResultDto [[TestCaseResultDto.html]] {
        +TestCaseResultDto()
        +getTestStepResults(): List<TestStepResultDto>
        +setTestStepResults(List<TestStepResultDto>): void
        +addTestStepResult(TestStepResultDto): void
        +getArguments(): Arguments
        +setArguments(Arguments): void
        +createCopy(): TestCaseResultDto
    }

@enduml

PlantUML version 1.2018.08(Sun Jun 24 14:31:00 CEST 2018)
(APACHE source distribution)
Java Runtime: Java(TM) SE Runtime Environment
JVM: Java HotSpot(TM) 64-Bit Server VM
Java Version: 1.8.0_151-b12
Operating System: Mac OS X
OS Version: 10.13.6
Default Encoding: UTF-8
Language: en
Country: US
--></g></svg>