<?xml version="1.0" encoding="UTF-8" standalone="no"?><svg xmlns="http://www.w3.org/2000/svg" xmlns:xlink="http://www.w3.org/1999/xlink" contentScriptType="application/ecmascript" contentStyleType="text/css" height="131px" preserveAspectRatio="none" style="width:322px;height:131px;" version="1.1" viewBox="0 0 322 131" width="322px" zoomAndPan="magnify"><defs><filter height="300%" id="f1xc9r9fccrw15" width="300%" x="-1" y="-1"><feGaussianBlur result="blurOut" stdDeviation="2.0"/><feColorMatrix in="blurOut" result="blurOut2" type="matrix" values="0 0 0 0 0 0 0 0 0 0 0 0 0 0 0 0 0 0 .4 0"/><feOffset dx="4.0" dy="4.0" in="blurOut2" result="blurOut3"/><feBlend in="SourceGraphic" in2="blurOut3" mode="normal"/></filter></defs><g><!--class TestModuleResultDto--><a target="_top" xlink:actuate="onRequest" xlink:href="TestModuleResultDto.html" xlink:show="new" xlink:title="TestModuleResultDto.html" xlink:type="simple"><rect fill="#FEFECE" filter="url(#f1xc9r9fccrw15)" height="112.7754" id="TestModuleResultDto" style="stroke: #A80036; stroke-width: 1.5;" width="305" x="6" y="8"/><ellipse cx="93.25" cy="24" fill="#ADD1B2" rx="11" ry="11" style="stroke: #A80036; stroke-width: 1.0;"/><path d="M96.2231,29.6431 Q95.6421,29.9419 95.0029,30.0913 Q94.3638,30.2407 93.6582,30.2407 Q91.1514,30.2407 89.8315,28.5889 Q88.5117,26.937 88.5117,23.8159 Q88.5117,20.6865 89.8315,19.0347 Q91.1514,17.3828 93.6582,17.3828 Q94.3638,17.3828 95.0112,17.5322 Q95.6587,17.6816 96.2231,17.9805 L96.2231,20.7031 Q95.5923,20.1221 94.9988,19.8523 Q94.4053,19.5825 93.7744,19.5825 Q92.4297,19.5825 91.7449,20.6492 Q91.0601,21.7158 91.0601,23.8159 Q91.0601,25.9077 91.7449,26.9744 Q92.4297,28.041 93.7744,28.041 Q94.4053,28.041 94.9988,27.7712 Q95.5923,27.5015 96.2231,26.9204 Z "/><text fill="#000000" font-family="sans-serif" font-size="12" lengthAdjust="spacingAndGlyphs" textLength="122" x="113.75" y="28.5352">TestModuleResultDto</text><line style="stroke: #A80036; stroke-width: 1.5;" x1="7" x2="310" y1="40" y2="40"/><line style="stroke: #A80036; stroke-width: 1.5;" x1="7" x2="310" y1="48" y2="48"/><ellipse cx="17" cy="59.9775" fill="#84BE84" rx="3" ry="3" style="stroke: #038048; stroke-width: 1.0;"/><text fill="#000000" font-family="sans-serif" font-size="11" lengthAdjust="spacingAndGlyphs" textLength="122" x="26" y="62.6348">TestModuleResultDto()</text><ellipse cx="17" cy="72.9326" fill="#84BE84" rx="3" ry="3" style="stroke: #038048; stroke-width: 1.0;"/><text fill="#000000" font-family="sans-serif" font-size="11" lengthAdjust="spacingAndGlyphs" textLength="257" x="26" y="75.5898">getTestCaseResults(): List&lt;TestCaseResultDto&gt;</text><ellipse cx="17" cy="85.8877" fill="#84BE84" rx="3" ry="3" style="stroke: #038048; stroke-width: 1.0;"/><text fill="#000000" font-family="sans-serif" font-size="11" lengthAdjust="spacingAndGlyphs" textLength="279" x="26" y="88.5449">setTestCaseResults(List&lt;TestCaseResultDto&gt;): void</text><ellipse cx="17" cy="98.8428" fill="#84BE84" rx="3" ry="3" style="stroke: #038048; stroke-width: 1.0;"/><text fill="#000000" font-family="sans-serif" font-size="11" lengthAdjust="spacingAndGlyphs" textLength="240" x="26" y="101.5">addTestCaseResult(TestCaseResultDto): void</text><ellipse cx="17" cy="111.7979" fill="#84BE84" rx="3" ry="3" style="stroke: #038048; stroke-width: 1.0;"/><text fill="#000000" font-family="sans-serif" font-size="11" lengthAdjust="spacingAndGlyphs" textLength="189" x="26" y="114.4551">createCopy(): TestModuleResultDto</text></a><!--
@startuml

    class TestModuleResultDto [[TestModuleResultDto.html]] {
        +TestModuleResultDto()
        +getTestCaseResults(): List<TestCaseResultDto>
        +setTestCaseResults(List<TestCaseResultDto>): void
        +addTestCaseResult(TestCaseResultDto): void
        +createCopy(): TestModuleResultDto
    }

@enduml

PlantUML version 1.2018.08(Sun Jun 24 14:31:00 CEST 2018)
(APACHE source distribution)
Java Runtime: Java(TM) SE Runtime Environment
JVM: Java HotSpot(TM) 64-Bit Server VM
Java Version: 1.8.0_151-b12
Operating System: Mac OS X
OS Version: 10.13.6
Default Encoding: UTF-8
Language: en
Country: US
--></g></svg>