<?xml version="1.0" encoding="UTF-8" standalone="no"?><svg xmlns="http://www.w3.org/2000/svg" xmlns:xlink="http://www.w3.org/1999/xlink" contentScriptType="application/ecmascript" contentStyleType="text/css" height="67px" preserveAspectRatio="none" style="width:167px;height:67px;" version="1.1" viewBox="0 0 167 67" width="167px" zoomAndPan="magnify"><defs><filter height="300%" id="f11719je8h07kd" width="300%" x="-1" y="-1"><feGaussianBlur result="blurOut" stdDeviation="2.0"/><feColorMatrix in="blurOut" result="blurOut2" type="matrix" values="0 0 0 0 0 0 0 0 0 0 0 0 0 0 0 0 0 0 .4 0"/><feOffset dx="4.0" dy="4.0" in="blurOut2" result="blurOut3"/><feBlend in="SourceGraphic" in2="blurOut3" mode="normal"/></filter></defs><g><!--class ComponentInitializer--><rect fill="#FEFECE" filter="url(#f11719je8h07kd)" height="48" id="ComponentInitializer" style="stroke: #A80036; stroke-width: 1.5;" width="150" x="6" y="8"/><ellipse cx="21" cy="24" fill="#E3664A" rx="11" ry="11" style="stroke: #A80036; stroke-width: 1.0;"/><path d="M23.0767,24.4761 Q23.0767,23.5381 22.6533,23.0068 Q22.23,22.4756 21.4912,22.4756 Q20.7524,22.4756 20.3333,23.0068 Q19.9141,23.5381 19.9141,24.4761 Q19.9141,25.4224 20.3333,25.9536 Q20.7524,26.4849 21.4912,26.4849 Q22.23,26.4849 22.6533,25.9536 Q23.0767,25.4224 23.0767,24.4761 Z M24.6206,27.8794 L22.9937,27.8794 L22.9937,27.1987 Q22.6782,27.6387 22.2507,27.842 Q21.8232,28.0454 21.2256,28.0454 Q19.8643,28.0454 19.03,27.0659 Q18.1958,26.0864 18.1958,24.4761 Q18.1958,22.874 19.0259,21.8987 Q19.856,20.9233 21.2256,20.9233 Q21.8149,20.9233 22.2632,21.1267 Q22.7114,21.3301 22.9937,21.7202 L22.9937,21.3799 Q22.9937,20.251 22.3752,19.6367 Q21.7568,19.0225 20.6113,19.0225 Q18.8848,19.0225 17.7932,20.5415 Q16.7017,22.0605 16.7017,24.4927 Q16.7017,27.041 17.9634,28.5476 Q19.2251,30.0542 21.3252,30.0542 Q21.9893,30.0542 22.6118,29.8591 Q23.2344,29.6641 23.8071,29.2739 L24.5708,30.7349 Q23.8984,31.1914 23.1057,31.4197 Q22.313,31.6479 21.4082,31.6479 Q18.5029,31.6479 16.7764,29.7139 Q15.0498,27.7798 15.0498,24.4927 Q15.0498,21.2803 16.6021,19.3503 Q18.1543,17.4204 20.7109,17.4204 Q22.5205,17.4204 23.5706,18.512 Q24.6206,19.6035 24.6206,21.4878 Z "/><text fill="#000000" font-family="sans-serif" font-size="12" lengthAdjust="spacingAndGlyphs" textLength="118" x="35" y="28.5352">ComponentInitializer</text><line style="stroke: #A80036; stroke-width: 1.5;" x1="7" x2="155" y1="40" y2="40"/><line style="stroke: #A80036; stroke-width: 1.5;" x1="7" x2="155" y1="48" y2="48"/><!--
@startuml

    annotation ComponentInitializer

@enduml

PlantUML version 1.2018.08(Sun Jun 24 14:31:00 CEST 2018)
(APACHE source distribution)
Java Runtime: Java(TM) SE Runtime Environment
JVM: Java HotSpot(TM) 64-Bit Server VM
Java Version: 1.8.0_151-b12
Operating System: Mac OS X
OS Version: 10.13.6
Default Encoding: UTF-8
Language: en
Country: US
--></g></svg>