<?xml version="1.0" encoding="UTF-8" standalone="no"?><svg xmlns="http://www.w3.org/2000/svg" xmlns:xlink="http://www.w3.org/1999/xlink" contentScriptType="application/ecmascript" contentStyleType="text/css" height="92px" preserveAspectRatio="none" style="width:311px;height:92px;" version="1.1" viewBox="0 0 311 92" width="311px" zoomAndPan="magnify"><defs><filter height="300%" id="f1d1jhromlnnkc" width="300%" x="-1" y="-1"><feGaussianBlur result="blurOut" stdDeviation="2.0"/><feColorMatrix in="blurOut" result="blurOut2" type="matrix" values="0 0 0 0 0 0 0 0 0 0 0 0 0 0 0 0 0 0 .4 0"/><feOffset dx="4.0" dy="4.0" in="blurOut2" result="blurOut3"/><feBlend in="SourceGraphic" in2="blurOut3" mode="normal"/></filter></defs><g><!--class TestTaskInitializationException--><a target="_top" xlink:actuate="onRequest" xlink:href="TestTaskInitializationException.html" xlink:show="new" xlink:title="TestTaskInitializationException.html" xlink:type="simple"><rect fill="#FEFECE" filter="url(#f1d1jhromlnnkc)" height="73.9102" id="TestTaskInitializationException" style="stroke: #A80036; stroke-width: 1.5;" width="294" x="6" y="8"/><ellipse cx="60.25" cy="24" fill="#ADD1B2" rx="11" ry="11" style="stroke: #A80036; stroke-width: 1.0;"/><path d="M63.2231,29.6431 Q62.6421,29.9419 62.0029,30.0913 Q61.3638,30.2407 60.6582,30.2407 Q58.1514,30.2407 56.8315,28.5889 Q55.5117,26.937 55.5117,23.8159 Q55.5117,20.6865 56.8315,19.0347 Q58.1514,17.3828 60.6582,17.3828 Q61.3638,17.3828 62.0112,17.5322 Q62.6587,17.6816 63.2231,17.9805 L63.2231,20.7031 Q62.5923,20.1221 61.9988,19.8523 Q61.4053,19.5825 60.7744,19.5825 Q59.4297,19.5825 58.7449,20.6492 Q58.0601,21.7158 58.0601,23.8159 Q58.0601,25.9077 58.7449,26.9744 Q59.4297,28.041 60.7744,28.041 Q61.4053,28.041 61.9988,27.7712 Q62.5923,27.5015 63.2231,26.9204 Z "/><text fill="#000000" font-family="sans-serif" font-size="12" lengthAdjust="spacingAndGlyphs" textLength="177" x="80.75" y="28.5352">TestTaskInitializationException</text><line style="stroke: #A80036; stroke-width: 1.5;" x1="7" x2="299" y1="40" y2="40"/><line style="stroke: #A80036; stroke-width: 1.5;" x1="7" x2="299" y1="48" y2="48"/><ellipse cx="17" cy="59.9775" fill="#84BE84" rx="3" ry="3" style="stroke: #038048; stroke-width: 1.0;"/><text fill="#000000" font-family="sans-serif" font-size="11" lengthAdjust="spacingAndGlyphs" textLength="230" x="26" y="62.6348">TestTaskInitializationException(Throwable)</text><ellipse cx="17" cy="72.9326" fill="#84BE84" rx="3" ry="3" style="stroke: #038048; stroke-width: 1.0;"/><text fill="#000000" font-family="sans-serif" font-size="11" lengthAdjust="spacingAndGlyphs" textLength="268" x="26" y="75.5898">TestTaskInitializationException(String, Throwable)</text></a><!--
@startuml

    class TestTaskInitializationException [[TestTaskInitializationException.html]] {
        +TestTaskInitializationException(Throwable)
        +TestTaskInitializationException(String, Throwable)
    }

@enduml

PlantUML version 1.2018.08(Sun Jun 24 14:31:00 CEST 2018)
(APACHE source distribution)
Java Runtime: Java(TM) SE Runtime Environment
JVM: Java HotSpot(TM) 64-Bit Server VM
Java Version: 1.8.0_151-b12
Operating System: Mac OS X
OS Version: 10.13.6
Default Encoding: UTF-8
Language: en
Country: US
--></g></svg>