<?xml version="1.0" encoding="UTF-8" standalone="no"?><svg xmlns="http://www.w3.org/2000/svg" xmlns:xlink="http://www.w3.org/1999/xlink" contentScriptType="application/ecmascript" contentStyleType="text/css" height="92px" preserveAspectRatio="none" style="width:307px;height:92px;" version="1.1" viewBox="0 0 307 92" width="307px" zoomAndPan="magnify"><defs><filter height="300%" id="flqva0eouxroi" width="300%" x="-1" y="-1"><feGaussianBlur result="blurOut" stdDeviation="2.0"/><feColorMatrix in="blurOut" result="blurOut2" type="matrix" values="0 0 0 0 0 0 0 0 0 0 0 0 0 0 0 0 0 0 .4 0"/><feOffset dx="4.0" dy="4.0" in="blurOut2" result="blurOut3"/><feBlend in="SourceGraphic" in2="blurOut3" mode="normal"/></filter></defs><g><!--class TestRunInitializationException--><a target="_top" xlink:actuate="onRequest" xlink:href="TestRunInitializationException.html" xlink:show="new" xlink:title="TestRunInitializationException.html" xlink:type="simple"><rect fill="#FEFECE" filter="url(#flqva0eouxroi)" height="73.9102" id="TestRunInitializationException" style="stroke: #A80036; stroke-width: 1.5;" width="290" x="6" y="8"/><ellipse cx="61.25" cy="24" fill="#ADD1B2" rx="11" ry="11" style="stroke: #A80036; stroke-width: 1.0;"/><path d="M64.2231,29.6431 Q63.6421,29.9419 63.0029,30.0913 Q62.3638,30.2407 61.6582,30.2407 Q59.1514,30.2407 57.8315,28.5889 Q56.5117,26.937 56.5117,23.8159 Q56.5117,20.6865 57.8315,19.0347 Q59.1514,17.3828 61.6582,17.3828 Q62.3638,17.3828 63.0112,17.5322 Q63.6587,17.6816 64.2231,17.9805 L64.2231,20.7031 Q63.5923,20.1221 62.9988,19.8523 Q62.4053,19.5825 61.7744,19.5825 Q60.4297,19.5825 59.7449,20.6492 Q59.0601,21.7158 59.0601,23.8159 Q59.0601,25.9077 59.7449,26.9744 Q60.4297,28.041 61.7744,28.041 Q62.4053,28.041 62.9988,27.7712 Q63.5923,27.5015 64.2231,26.9204 Z "/><text fill="#000000" font-family="sans-serif" font-size="12" lengthAdjust="spacingAndGlyphs" textLength="171" x="81.75" y="28.5352">TestRunInitializationException</text><line style="stroke: #A80036; stroke-width: 1.5;" x1="7" x2="295" y1="40" y2="40"/><line style="stroke: #A80036; stroke-width: 1.5;" x1="7" x2="295" y1="48" y2="48"/><ellipse cx="17" cy="59.9775" fill="#84BE84" rx="3" ry="3" style="stroke: #038048; stroke-width: 1.0;"/><text fill="#000000" font-family="sans-serif" font-size="11" lengthAdjust="spacingAndGlyphs" textLength="226" x="26" y="62.6348">TestRunInitializationException(Throwable)</text><ellipse cx="17" cy="72.9326" fill="#84BE84" rx="3" ry="3" style="stroke: #038048; stroke-width: 1.0;"/><text fill="#000000" font-family="sans-serif" font-size="11" lengthAdjust="spacingAndGlyphs" textLength="264" x="26" y="75.5898">TestRunInitializationException(String, Throwable)</text></a><!--
@startuml

    class TestRunInitializationException [[TestRunInitializationException.html]] {
        +TestRunInitializationException(Throwable)
        +TestRunInitializationException(String, Throwable)
    }

@enduml

PlantUML version 1.2018.08(Sun Jun 24 14:31:00 CEST 2018)
(APACHE source distribution)
Java Runtime: Java(TM) SE Runtime Environment
JVM: Java HotSpot(TM) 64-Bit Server VM
Java Version: 1.8.0_151-b12
Operating System: Mac OS X
OS Version: 10.13.6
Default Encoding: UTF-8
Language: en
Country: US
--></g></svg>