<?xml version="1.0" encoding="UTF-8" standalone="no"?><svg xmlns="http://www.w3.org/2000/svg" xmlns:xlink="http://www.w3.org/1999/xlink" contentScriptType="application/ecmascript" contentStyleType="text/css" height="569px" preserveAspectRatio="none" style="width:660px;height:569px;" version="1.1" viewBox="0 0 660 569" width="660px" zoomAndPan="magnify"><defs><filter height="300%" id="f1p9pk1p3vcqcv" width="300%" x="-1" y="-1"><feGaussianBlur result="blurOut" stdDeviation="2.0"/><feColorMatrix in="blurOut" result="blurOut2" type="matrix" values="0 0 0 0 0 0 0 0 0 0 0 0 0 0 0 0 0 0 .4 0"/><feOffset dx="4.0" dy="4.0" in="blurOut2" result="blurOut3"/><feBlend in="SourceGraphic" in2="blurOut3" mode="normal"/></filter></defs><g><!--cluster de.interactive_instruments.etf--><polygon fill="#FFFFFF" filter="url(#f1p9pk1p3vcqcv)" points="14,124,234,124,241,146.4883,638,146.4883,638,557,14,557,14,124" style="stroke: #000000; stroke-width: 1.5;"/><line style="stroke: #000000; stroke-width: 1.5;" x1="14" x2="241" y1="146.4883" y2="146.4883"/><text fill="#000000" font-family="sans-serif" font-size="14" font-weight="bold" lengthAdjust="spacingAndGlyphs" textLength="214" x="18" y="139.5352">de.interactive_instruments.etf</text><!--cluster java.lang--><polygon fill="#FFFFFF" filter="url(#f1p9pk1p3vcqcv)" points="114,16,183,16,190,38.4883,193,38.4883,193,99,114,99,114,16" style="stroke: #000000; stroke-width: 1.5;"/><line style="stroke: #000000; stroke-width: 1.5;" x1="114" x2="190" y1="38.4883" y2="38.4883"/><text fill="#000000" font-family="sans-serif" font-size="14" font-weight="bold" lengthAdjust="spacingAndGlyphs" textLength="63" x="118" y="31.5352">java.lang</text><!--class de.interactive_instruments.etf.EtfConstants--><a target="_top" xlink:actuate="onRequest" xlink:href="EtfConstants.html" xlink:show="new" xlink:title="EtfConstants.html" xlink:type="simple"><rect fill="#FEFECE" filter="url(#f1p9pk1p3vcqcv)" height="397.7871" id="de.interactive_instruments.etf.EtfConstants" style="stroke: #A80036; stroke-width: 1.5;" width="311" x="318.5" y="151"/><ellipse cx="434.25" cy="167" fill="#ADD1B2" rx="11" ry="11" style="stroke: #A80036; stroke-width: 1.0;"/><path d="M437.2231,172.6431 Q436.6421,172.9419 436.0029,173.0913 Q435.3638,173.2407 434.6582,173.2407 Q432.1514,173.2407 430.8315,171.5889 Q429.5117,169.937 429.5117,166.8159 Q429.5117,163.6865 430.8315,162.0347 Q432.1514,160.3828 434.6582,160.3828 Q435.3638,160.3828 436.0112,160.5322 Q436.6587,160.6816 437.2231,160.9805 L437.2231,163.7031 Q436.5923,163.1221 435.9988,162.8523 Q435.4053,162.5825 434.7744,162.5825 Q433.4297,162.5825 432.7449,163.6492 Q432.0601,164.7158 432.0601,166.8159 Q432.0601,168.9077 432.7449,169.9744 Q433.4297,171.041 434.7744,171.041 Q435.4053,171.041 435.9988,170.7712 Q436.5923,170.5015 437.2231,169.9204 Z "/><text fill="#000000" font-family="sans-serif" font-size="12" lengthAdjust="spacingAndGlyphs" textLength="71" x="454.75" y="171.5352">EtfConstants</text><line style="stroke: #A80036; stroke-width: 1.5;" x1="319.5" x2="628.5" y1="183" y2="183"/><ellipse cx="329.5" cy="194.9775" fill="none" rx="3" ry="3" style="stroke: #038048; stroke-width: 1.0;"/><text fill="#000000" font-family="sans-serif" font-size="11" lengthAdjust="spacingAndGlyphs" text-decoration="underline" textLength="117" x="338.5" y="197.6348">ETF_PK_PREFIX: String</text><line style="stroke: #000000; stroke-width: 1.0;" x1="338.5" x2="455.5" y1="199.6348" y2="199.6348"/><ellipse cx="329.5" cy="207.9326" fill="none" rx="3" ry="3" style="stroke: #038048; stroke-width: 1.0;"/><text fill="#000000" font-family="sans-serif" font-size="11" lengthAdjust="spacingAndGlyphs" text-decoration="underline" textLength="153" x="338.5" y="210.5898">ETF_TESTDOMAIN_PK: String</text><line style="stroke: #000000; stroke-width: 1.0;" x1="338.5" x2="491.5" y1="212.5898" y2="212.5898"/><ellipse cx="329.5" cy="220.8877" fill="none" rx="3" ry="3" style="stroke: #038048; stroke-width: 1.0;"/><text fill="#000000" font-family="sans-serif" font-size="11" lengthAdjust="spacingAndGlyphs" text-decoration="underline" textLength="129" x="338.5" y="223.5449">ETF_AUTHOR_PK: String</text><line style="stroke: #000000; stroke-width: 1.0;" x1="338.5" x2="467.5" y1="225.5449" y2="225.5449"/><ellipse cx="329.5" cy="233.8428" fill="none" rx="3" ry="3" style="stroke: #038048; stroke-width: 1.0;"/><text fill="#000000" font-family="sans-serif" font-size="11" lengthAdjust="spacingAndGlyphs" text-decoration="underline" textLength="155" x="338.5" y="236.5">ETF_LAST_EDITOR_PK: String</text><line style="stroke: #000000; stroke-width: 1.0;" x1="338.5" x2="493.5" y1="238.5" y2="238.5"/><ellipse cx="329.5" cy="246.7979" fill="none" rx="3" ry="3" style="stroke: #038048; stroke-width: 1.0;"/><text fill="#000000" font-family="sans-serif" font-size="11" lengthAdjust="spacingAndGlyphs" text-decoration="underline" textLength="173" x="338.5" y="249.4551">ETF_CREATION_DATE_PK: String</text><line style="stroke: #000000; stroke-width: 1.0;" x1="338.5" x2="511.5" y1="251.4551" y2="251.4551"/><ellipse cx="329.5" cy="259.7529" fill="none" rx="3" ry="3" style="stroke: #038048; stroke-width: 1.0;"/><text fill="#000000" font-family="sans-serif" font-size="11" lengthAdjust="spacingAndGlyphs" text-decoration="underline" textLength="193" x="338.5" y="262.4102">ETF_LAST_UPDATE_DATE_PK: String</text><line style="stroke: #000000; stroke-width: 1.0;" x1="338.5" x2="531.5" y1="264.4102" y2="264.4102"/><ellipse cx="329.5" cy="272.708" fill="none" rx="3" ry="3" style="stroke: #038048; stroke-width: 1.0;"/><text fill="#000000" font-family="sans-serif" font-size="11" lengthAdjust="spacingAndGlyphs" text-decoration="underline" textLength="153" x="338.5" y="275.3652">ETF_DESCRIPTION_PK: String</text><line style="stroke: #000000; stroke-width: 1.0;" x1="338.5" x2="491.5" y1="277.3652" y2="277.3652"/><ellipse cx="329.5" cy="285.6631" fill="none" rx="3" ry="3" style="stroke: #038048; stroke-width: 1.0;"/><text fill="#000000" font-family="sans-serif" font-size="11" lengthAdjust="spacingAndGlyphs" text-decoration="underline" textLength="128" x="338.5" y="288.3203">ETF_VERSION_PK: String</text><line style="stroke: #000000; stroke-width: 1.0;" x1="338.5" x2="466.5" y1="290.3203" y2="290.3203"/><ellipse cx="329.5" cy="298.6182" fill="none" rx="3" ry="3" style="stroke: #038048; stroke-width: 1.0;"/><text fill="#000000" font-family="sans-serif" font-size="11" lengthAdjust="spacingAndGlyphs" text-decoration="underline" textLength="154" x="338.5" y="301.2754">ETF_IMPL_STATUS_PK: String</text><line style="stroke: #000000; stroke-width: 1.0;" x1="338.5" x2="492.5" y1="303.2754" y2="303.2754"/><ellipse cx="329.5" cy="311.5732" fill="none" rx="3" ry="3" style="stroke: #038048; stroke-width: 1.0;"/><text fill="#000000" font-family="sans-serif" font-size="11" lengthAdjust="spacingAndGlyphs" text-decoration="underline" textLength="142" x="338.5" y="314.2305">ETF_REFERENCE_PK: String</text><line style="stroke: #000000; stroke-width: 1.0;" x1="338.5" x2="480.5" y1="316.2305" y2="316.2305"/><ellipse cx="329.5" cy="324.5283" fill="none" rx="3" ry="3" style="stroke: #038048; stroke-width: 1.0;"/><text fill="#000000" font-family="sans-serif" font-size="11" lengthAdjust="spacingAndGlyphs" text-decoration="underline" textLength="271" x="338.5" y="327.1855">ETF_SUPPORTED_TESTOBJECT_TYPE_IDS_PK: String</text><line style="stroke: #000000; stroke-width: 1.0;" x1="338.5" x2="609.5" y1="329.1855" y2="329.1855"/><ellipse cx="329.5" cy="337.4834" fill="none" rx="3" ry="3" style="stroke: #038048; stroke-width: 1.0;"/><text fill="#000000" font-family="sans-serif" font-size="11" lengthAdjust="spacingAndGlyphs" text-decoration="underline" textLength="285" x="338.5" y="340.1406">ETF_TRANSLATION_TEMPLATE_BUNDLE_ID_PK: String</text><line style="stroke: #000000; stroke-width: 1.0;" x1="338.5" x2="623.5" y1="342.1406" y2="342.1406"/><ellipse cx="329.5" cy="350.4385" fill="none" rx="3" ry="3" style="stroke: #038048; stroke-width: 1.0;"/><text fill="#000000" font-family="sans-serif" font-size="11" lengthAdjust="spacingAndGlyphs" text-decoration="underline" textLength="176" x="338.5" y="353.0957">ETF_DEPENDENCY_IDS_PK: String</text><line style="stroke: #000000; stroke-width: 1.0;" x1="338.5" x2="514.5" y1="355.0957" y2="355.0957"/><ellipse cx="329.5" cy="363.3936" fill="none" rx="3" ry="3" style="stroke: #038048; stroke-width: 1.0;"/><text fill="#000000" font-family="sans-serif" font-size="11" lengthAdjust="spacingAndGlyphs" text-decoration="underline" textLength="192" x="338.5" y="366.0508">ETF_IGNORE_PROPERTIES_PK: String</text><line style="stroke: #000000; stroke-width: 1.0;" x1="338.5" x2="530.5" y1="368.0508" y2="368.0508"/><ellipse cx="329.5" cy="376.3486" fill="none" rx="3" ry="3" style="stroke: #038048; stroke-width: 1.0;"/><text fill="#000000" font-family="sans-serif" font-size="11" lengthAdjust="spacingAndGlyphs" text-decoration="underline" textLength="184" x="338.5" y="379.0059">ETF_PROPERTY_KEYS: Set&lt;String&gt;</text><line style="stroke: #000000; stroke-width: 1.0;" x1="338.5" x2="522.5" y1="381.0059" y2="381.0059"/><ellipse cx="329.5" cy="389.3037" fill="none" rx="3" ry="3" style="stroke: #038048; stroke-width: 1.0;"/><text fill="#000000" font-family="sans-serif" font-size="11" lengthAdjust="spacingAndGlyphs" text-decoration="underline" textLength="122" x="338.5" y="391.9609">ETF_DIR_PREFIX: String</text><line style="stroke: #000000; stroke-width: 1.0;" x1="338.5" x2="460.5" y1="393.9609" y2="393.9609"/><ellipse cx="329.5" cy="402.2588" fill="none" rx="3" ry="3" style="stroke: #038048; stroke-width: 1.0;"/><text fill="#000000" font-family="sans-serif" font-size="11" lengthAdjust="spacingAndGlyphs" text-decoration="underline" textLength="162" x="338.5" y="404.916">ETF_DATASOURCE_DIR: String</text><line style="stroke: #000000; stroke-width: 1.0;" x1="338.5" x2="500.5" y1="406.916" y2="406.916"/><ellipse cx="329.5" cy="415.2139" fill="none" rx="3" ry="3" style="stroke: #038048; stroke-width: 1.0;"/><text fill="#000000" font-family="sans-serif" font-size="11" lengthAdjust="spacingAndGlyphs" text-decoration="underline" textLength="163" x="338.5" y="417.8711">ETF_ATTACHMENT_DIR: String</text><line style="stroke: #000000; stroke-width: 1.0;" x1="338.5" x2="501.5" y1="419.8711" y2="419.8711"/><ellipse cx="329.5" cy="428.1689" fill="none" rx="3" ry="3" style="stroke: #038048; stroke-width: 1.0;"/><text fill="#000000" font-family="sans-serif" font-size="11" lengthAdjust="spacingAndGlyphs" text-decoration="underline" textLength="157" x="338.5" y="430.8262">ETF_TESTDRIVERS_DIR: String</text><line style="stroke: #000000; stroke-width: 1.0;" x1="338.5" x2="495.5" y1="432.8262" y2="432.8262"/><ellipse cx="329.5" cy="441.124" fill="none" rx="3" ry="3" style="stroke: #038048; stroke-width: 1.0;"/><text fill="#000000" font-family="sans-serif" font-size="11" lengthAdjust="spacingAndGlyphs" text-decoration="underline" textLength="139" x="338.5" y="443.7813">ETF_PROJECTS_DIR: String</text><line style="stroke: #000000; stroke-width: 1.0;" x1="338.5" x2="477.5" y1="445.7813" y2="445.7813"/><ellipse cx="329.5" cy="454.0791" fill="none" rx="3" ry="3" style="stroke: #038048; stroke-width: 1.0;"/><text fill="#000000" font-family="sans-serif" font-size="11" lengthAdjust="spacingAndGlyphs" text-decoration="underline" textLength="167" x="338.5" y="456.7363">ETF_REPORTSTYLES_DIR: String</text><line style="stroke: #000000; stroke-width: 1.0;" x1="338.5" x2="505.5" y1="458.7363" y2="458.7363"/><ellipse cx="329.5" cy="467.0342" fill="none" rx="3" ry="3" style="stroke: #038048; stroke-width: 1.0;"/><text fill="#000000" font-family="sans-serif" font-size="11" lengthAdjust="spacingAndGlyphs" text-decoration="underline" textLength="130" x="338.5" y="469.6914">ETF_BACKUP_DIR: String</text><line style="stroke: #000000; stroke-width: 1.0;" x1="338.5" x2="468.5" y1="471.6914" y2="471.6914"/><ellipse cx="329.5" cy="479.9893" fill="none" rx="3" ry="3" style="stroke: #038048; stroke-width: 1.0;"/><text fill="#000000" font-family="sans-serif" font-size="11" lengthAdjust="spacingAndGlyphs" text-decoration="underline" textLength="210" x="338.5" y="482.6465">ETF_CURRENT_MODEL_VERSION: String</text><line style="stroke: #000000; stroke-width: 1.0;" x1="338.5" x2="548.5" y1="484.6465" y2="484.6465"/><ellipse cx="329.5" cy="492.9443" fill="none" rx="3" ry="3" style="stroke: #038048; stroke-width: 1.0;"/><text fill="#000000" font-family="sans-serif" font-size="11" lengthAdjust="spacingAndGlyphs" text-decoration="underline" textLength="99" x="338.5" y="495.6016">ETF_XMLNS: String</text><line style="stroke: #000000; stroke-width: 1.0;" x1="338.5" x2="437.5" y1="497.6016" y2="497.6016"/><ellipse cx="329.5" cy="505.8994" fill="none" rx="3" ry="3" style="stroke: #038048; stroke-width: 1.0;"/><text fill="#000000" font-family="sans-serif" font-size="11" lengthAdjust="spacingAndGlyphs" text-decoration="underline" textLength="265" x="338.5" y="508.5566">ETF_TESTPROJECT_PROPERTY_FILE_SUFFIX: String</text><line style="stroke: #000000; stroke-width: 1.0;" x1="338.5" x2="603.5" y1="510.5566" y2="510.5566"/><ellipse cx="329.5" cy="518.8545" fill="none" rx="3" ry="3" style="stroke: #038048; stroke-width: 1.0;"/><text fill="#000000" font-family="sans-serif" font-size="11" lengthAdjust="spacingAndGlyphs" text-decoration="underline" textLength="188" x="338.5" y="521.5117">ETF_DATA_STORAGE_NAME: String</text><line style="stroke: #000000; stroke-width: 1.0;" x1="338.5" x2="526.5" y1="523.5117" y2="523.5117"/><ellipse cx="329.5" cy="531.8096" fill="none" rx="3" ry="3" style="stroke: #038048; stroke-width: 1.0;"/><text fill="#000000" font-family="sans-serif" font-size="11" lengthAdjust="spacingAndGlyphs" text-decoration="underline" textLength="91" x="338.5" y="534.4668">ETF_ASCII: String</text><line style="stroke: #000000; stroke-width: 1.0;" x1="338.5" x2="429.5" y1="536.4668" y2="536.4668"/><line style="stroke: #A80036; stroke-width: 1.5;" x1="319.5" x2="628.5" y1="540.7871" y2="540.7871"/></a><!--class de.interactive_instruments.etf.LocalizableError--><a target="_top" xlink:actuate="onRequest" xlink:href="LocalizableError.html" xlink:show="new" xlink:title="LocalizableError.html" xlink:type="simple"><rect fill="#FEFECE" filter="url(#f1p9pk1p3vcqcv)" height="203.4609" id="de.interactive_instruments.etf.LocalizableError" style="stroke: #A80036; stroke-width: 1.5;" width="261" x="22.5" y="248.5"/><ellipse cx="102.25" cy="264.5" fill="#A9DCDF" rx="11" ry="11" style="stroke: #A80036; stroke-width: 1.0;"/><path d="M102.3633,259.8481 L101.2095,264.9199 L103.5254,264.9199 Z M100.8691,257.6069 L103.8657,257.6069 L107.2109,270 L104.7622,270 L103.9985,266.937 L100.7197,266.937 L99.9727,270 L97.5239,270 Z "/><text fill="#000000" font-family="sans-serif" font-size="12" font-style="italic" lengthAdjust="spacingAndGlyphs" textLength="93" x="122.75" y="269.0352">LocalizableError</text><line style="stroke: #A80036; stroke-width: 1.5;" x1="23.5" x2="282.5" y1="280.5" y2="280.5"/><polygon fill="none" points="33.5,287.4775,37.5,291.4775,33.5,295.4775,29.5,291.4775" style="stroke: #B38D22; stroke-width: 1.0;"/><text fill="#000000" font-family="sans-serif" font-size="11" lengthAdjust="spacingAndGlyphs" textLength="48" x="42.5" y="295.1348">id: String</text><polygon fill="none" points="33.5,300.4326,37.5,304.4326,33.5,308.4326,29.5,304.4326" style="stroke: #B38D22; stroke-width: 1.0;"/><text fill="#000000" font-family="sans-serif" font-size="11" lengthAdjust="spacingAndGlyphs" textLength="177" x="42.5" y="308.0898">arguments: Map&lt;String, Object&gt;</text><line style="stroke: #A80036; stroke-width: 1.5;" x1="23.5" x2="282.5" y1="314.4102" y2="314.4102"/><polygon fill="#FFFF44" points="33.5,321.3877,37.5,325.3877,33.5,329.3877,29.5,325.3877" style="stroke: #B38D22; stroke-width: 1.0;"/><text fill="#000000" font-family="sans-serif" font-size="11" lengthAdjust="spacingAndGlyphs" textLength="127" x="42.5" y="329.0449">LocalizableError(String)</text><polygon fill="#FFFF44" points="33.5,334.3428,37.5,338.3428,33.5,342.3428,29.5,338.3428" style="stroke: #B38D22; stroke-width: 1.0;"/><text fill="#000000" font-family="sans-serif" font-size="11" lengthAdjust="spacingAndGlyphs" textLength="186" x="42.5" y="342">LocalizableError(String, Exception)</text><polygon fill="#FFFF44" points="33.5,347.2979,37.5,351.2979,33.5,355.2979,29.5,351.2979" style="stroke: #B38D22; stroke-width: 1.0;"/><text fill="#000000" font-family="sans-serif" font-size="11" lengthAdjust="spacingAndGlyphs" textLength="235" x="42.5" y="354.9551">LocalizableError(String, Exception, Object[])</text><polygon fill="#FFFF44" points="33.5,360.2529,37.5,364.2529,33.5,368.2529,29.5,364.2529" style="stroke: #B38D22; stroke-width: 1.0;"/><text fill="#000000" font-family="sans-serif" font-size="11" lengthAdjust="spacingAndGlyphs" textLength="176" x="42.5" y="367.9102">LocalizableError(String, Object[])</text><polygon fill="#FFFF44" points="33.5,373.208,37.5,377.208,33.5,381.208,29.5,377.208" style="stroke: #B38D22; stroke-width: 1.0;"/><text fill="#000000" font-family="sans-serif" font-size="11" lengthAdjust="spacingAndGlyphs" textLength="173" x="42.5" y="380.8652">LocalizableError(String, String[])</text><polygon fill="#FFFF44" points="33.5,386.1631,37.5,390.1631,33.5,394.1631,29.5,390.1631" style="stroke: #B38D22; stroke-width: 1.0;"/><text fill="#000000" font-family="sans-serif" font-size="11" lengthAdjust="spacingAndGlyphs" textLength="148" x="42.5" y="393.8203">LocalizableError(Exception)</text><ellipse cx="33.5" cy="404.1182" fill="#84BE84" rx="3" ry="3" style="stroke: #038048; stroke-width: 1.0;"/><text fill="#000000" font-family="sans-serif" font-size="11" lengthAdjust="spacingAndGlyphs" textLength="73" x="42.5" y="406.7754">getId(): String</text><ellipse cx="33.5" cy="417.0732" fill="#84BE84" rx="3" ry="3" style="stroke: #038048; stroke-width: 1.0;"/><text fill="#000000" font-family="sans-serif" font-size="11" lengthAdjust="spacingAndGlyphs" textLength="175" x="42.5" y="419.7305">getArgumentValueArr(): Object[]</text><ellipse cx="33.5" cy="430.0283" fill="#84BE84" rx="3" ry="3" style="stroke: #038048; stroke-width: 1.0;"/><text fill="#000000" font-family="sans-serif" font-size="11" lengthAdjust="spacingAndGlyphs" textLength="227" x="42.5" y="432.6855">getArgumentValues(): Collection&lt;Object&gt;</text><ellipse cx="33.5" cy="442.9834" fill="#84BE84" rx="3" ry="3" style="stroke: #038048; stroke-width: 1.0;"/><text fill="#000000" font-family="sans-serif" font-size="11" lengthAdjust="spacingAndGlyphs" textLength="204" x="42.5" y="445.6406">getArguments(): Map&lt;String, Object&gt;</text></a><!--class java.lang.Error--><rect fill="#FEFECE" filter="url(#f1p9pk1p3vcqcv)" height="48" id="java.lang.Error" style="stroke: #A80036; stroke-width: 1.5;" width="61" x="122.5" y="43"/><ellipse cx="137.5" cy="59" fill="#ADD1B2" rx="11" ry="11" style="stroke: #A80036; stroke-width: 1.0;"/><path d="M140.4731,64.6431 Q139.8921,64.9419 139.2529,65.0913 Q138.6138,65.2407 137.9082,65.2407 Q135.4014,65.2407 134.0815,63.5889 Q132.7617,61.937 132.7617,58.8159 Q132.7617,55.6865 134.0815,54.0347 Q135.4014,52.3828 137.9082,52.3828 Q138.6138,52.3828 139.2612,52.5322 Q139.9087,52.6816 140.4731,52.9805 L140.4731,55.7031 Q139.8423,55.1221 139.2488,54.8523 Q138.6553,54.5825 138.0244,54.5825 Q136.6797,54.5825 135.9949,55.6492 Q135.3101,56.7158 135.3101,58.8159 Q135.3101,60.9077 135.9949,61.9744 Q136.6797,63.041 138.0244,63.041 Q138.6553,63.041 139.2488,62.7712 Q139.8423,62.5015 140.4731,61.9204 Z "/><text fill="#000000" font-family="sans-serif" font-size="12" lengthAdjust="spacingAndGlyphs" textLength="29" x="151.5" y="63.5352">Error</text><line style="stroke: #A80036; stroke-width: 1.5;" x1="123.5" x2="182.5" y1="75" y2="75"/><line style="stroke: #A80036; stroke-width: 1.5;" x1="123.5" x2="182.5" y1="83" y2="83"/><!--link java.lang.Error to de.interactive_instruments.etf.LocalizableError--><path d="M153,111.282 C153,147.8563 153,201.2058 153,248.1991 " fill="none" id="java.lang.Error-de.interactive_instruments.etf.LocalizableError" style="stroke: #A80036; stroke-width: 1.0;"/><polygon fill="none" points="146.0001,111.1285,153,91.1284,160.0001,111.1284,146.0001,111.1285" style="stroke: #A80036; stroke-width: 1.0;"/><!--
@startuml

    namespace de.interactive_instruments.etf {

        class EtfConstants [[EtfConstants.html]] {
            {static} +ETF_PK_PREFIX: String
            {static} +ETF_TESTDOMAIN_PK: String
            {static} +ETF_AUTHOR_PK: String
            {static} +ETF_LAST_EDITOR_PK: String
            {static} +ETF_CREATION_DATE_PK: String
            {static} +ETF_LAST_UPDATE_DATE_PK: String
            {static} +ETF_DESCRIPTION_PK: String
            {static} +ETF_VERSION_PK: String
            {static} +ETF_IMPL_STATUS_PK: String
            {static} +ETF_REFERENCE_PK: String
            {static} +ETF_SUPPORTED_TESTOBJECT_TYPE_IDS_PK: String
            {static} +ETF_TRANSLATION_TEMPLATE_BUNDLE_ID_PK: String
            {static} +ETF_DEPENDENCY_IDS_PK: String
            {static} +ETF_IGNORE_PROPERTIES_PK: String
            {static} +ETF_PROPERTY_KEYS: Set<String>
            {static} +ETF_DIR_PREFIX: String
            {static} +ETF_DATASOURCE_DIR: String
            {static} +ETF_ATTACHMENT_DIR: String
            {static} +ETF_TESTDRIVERS_DIR: String
            {static} +ETF_PROJECTS_DIR: String
            {static} +ETF_REPORTSTYLES_DIR: String
            {static} +ETF_BACKUP_DIR: String
            {static} +ETF_CURRENT_MODEL_VERSION: String
            {static} +ETF_XMLNS: String
            {static} +ETF_TESTPROJECT_PROPERTY_FILE_SUFFIX: String
            {static} +ETF_DATA_STORAGE_NAME: String
            {static} +ETF_ASCII: String
        }

        abstract class LocalizableError [[LocalizableError.html]] {
            #id: String
            #arguments: Map<String, Object>
            #LocalizableError(String)
            #LocalizableError(String, Exception)
            #LocalizableError(String, Exception, Object[])
            #LocalizableError(String, Object[])
            #LocalizableError(String, String[])
            #LocalizableError(Exception)
            +getId(): String
            +getArgumentValueArr(): Object[]
            +getArgumentValues(): Collection<Object>
            +getArguments(): Map<String, Object>
        }

        class java.lang.Error
        java.lang.Error <|- - LocalizableError

    }

@enduml

PlantUML version 1.2018.08(Sun Jun 24 14:31:00 CEST 2018)
(APACHE source distribution)
Java Runtime: Java(TM) SE Runtime Environment
JVM: Java HotSpot(TM) 64-Bit Server VM
Java Version: 1.8.0_151-b12
Operating System: Mac OS X
OS Version: 10.13.6
Default Encoding: UTF-8
Language: en
Country: US
--></g></svg>