<?xml version="1.0" encoding="UTF-8" standalone="no"?><svg xmlns="http://www.w3.org/2000/svg" xmlns:xlink="http://www.w3.org/1999/xlink" contentScriptType="application/ecmascript" contentStyleType="text/css" height="170px" preserveAspectRatio="none" style="width:451px;height:170px;" version="1.1" viewBox="0 0 451 170" width="451px" zoomAndPan="magnify"><defs><filter height="300%" id="f1umfiqpdwgtkj" width="300%" x="-1" y="-1"><feGaussianBlur result="blurOut" stdDeviation="2.0"/><feColorMatrix in="blurOut" result="blurOut2" type="matrix" values="0 0 0 0 0 0 0 0 0 0 0 0 0 0 0 0 0 0 .4 0"/><feOffset dx="4.0" dy="4.0" in="blurOut2" result="blurOut3"/><feBlend in="SourceGraphic" in2="blurOut3" mode="normal"/></filter></defs><g><!--class Arguments--><a target="_top" xlink:actuate="onRequest" xlink:href="Arguments.html" xlink:show="new" xlink:title="Arguments.html" xlink:type="simple"><rect fill="#FEFECE" filter="url(#f1umfiqpdwgtkj)" height="151.6406" id="Arguments" style="stroke: #A80036; stroke-width: 1.5;" width="434" x="6" y="8"/><ellipse cx="187.75" cy="24" fill="#ADD1B2" rx="11" ry="11" style="stroke: #A80036; stroke-width: 1.0;"/><path d="M190.7231,29.6431 Q190.1421,29.9419 189.5029,30.0913 Q188.8638,30.2407 188.1582,30.2407 Q185.6514,30.2407 184.3315,28.5889 Q183.0117,26.937 183.0117,23.8159 Q183.0117,20.6865 184.3315,19.0347 Q185.6514,17.3828 188.1582,17.3828 Q188.8638,17.3828 189.5112,17.5322 Q190.1587,17.6816 190.7231,17.9805 L190.7231,20.7031 Q190.0923,20.1221 189.4988,19.8523 Q188.9053,19.5825 188.2744,19.5825 Q186.9297,19.5825 186.2449,20.6492 Q185.5601,21.7158 185.5601,23.8159 Q185.5601,25.9077 186.2449,26.9744 Q186.9297,28.041 188.2744,28.041 Q188.9053,28.041 189.4988,27.7712 Q190.0923,27.5015 190.7231,26.9204 Z "/><text fill="#000000" font-family="sans-serif" font-size="12" lengthAdjust="spacingAndGlyphs" textLength="62" x="208.25" y="28.5352">Arguments</text><line style="stroke: #A80036; stroke-width: 1.5;" x1="7" x2="439" y1="40" y2="40"/><line style="stroke: #A80036; stroke-width: 1.5;" x1="7" x2="439" y1="48" y2="48"/><ellipse cx="17" cy="59.9775" fill="#84BE84" rx="3" ry="3" style="stroke: #038048; stroke-width: 1.0;"/><text fill="#000000" font-family="sans-serif" font-size="11" lengthAdjust="spacingAndGlyphs" textLength="150" x="26" y="62.6348">Arguments(PropertyHolder)</text><ellipse cx="17" cy="72.9326" fill="#84BE84" rx="3" ry="3" style="stroke: #038048; stroke-width: 1.0;"/><text fill="#000000" font-family="sans-serif" font-size="11" lengthAdjust="spacingAndGlyphs" textLength="68" x="26" y="75.5898">Arguments()</text><ellipse cx="17" cy="85.8877" fill="#84BE84" rx="3" ry="3" style="stroke: #038048; stroke-width: 1.0;"/><text fill="#000000" font-family="sans-serif" font-size="11" lengthAdjust="spacingAndGlyphs" textLength="178" x="26" y="88.5449">Arguments(Map&lt;String, String&gt;)</text><ellipse cx="17" cy="98.8428" fill="#84BE84" rx="3" ry="3" style="stroke: #038048; stroke-width: 1.0;"/><text fill="#000000" font-family="sans-serif" font-size="11" lengthAdjust="spacingAndGlyphs" textLength="152" x="26" y="101.5">setValue(String, String): void</text><ellipse cx="17" cy="111.7979" fill="#84BE84" rx="3" ry="3" style="stroke: #038048; stroke-width: 1.0;"/><text fill="#000000" font-family="sans-serif" font-size="11" lengthAdjust="spacingAndGlyphs" textLength="408" x="26" y="114.4551">argumentParameterSet(Parameterizable): Arguments.ArgumentParameterSet</text><ellipse cx="17" cy="124.7529" fill="#84BE84" rx="3" ry="3" style="stroke: #038048; stroke-width: 1.0;"/><text fill="#000000" font-family="sans-serif" font-size="11" lengthAdjust="spacingAndGlyphs" textLength="99" x="26" y="127.4102">isEmpty(): boolean</text><ellipse cx="17" cy="137.708" fill="#84BE84" rx="3" ry="3" style="stroke: #038048; stroke-width: 1.0;"/><text fill="#000000" font-family="sans-serif" font-size="11" lengthAdjust="spacingAndGlyphs" textLength="106" x="26" y="140.3652">value(String): String</text><ellipse cx="17" cy="150.6631" fill="#84BE84" rx="3" ry="3" style="stroke: #038048; stroke-width: 1.0;"/><text fill="#000000" font-family="sans-serif" font-size="11" lengthAdjust="spacingAndGlyphs" textLength="158" x="26" y="153.3203">values(): Map&lt;String, String&gt;</text></a><!--
@startuml

    class Arguments [[Arguments.html]] {
        +Arguments(PropertyHolder)
        +Arguments()
        +Arguments(Map<String, String>)
        +setValue(String, String): void
        +argumentParameterSet(Parameterizable): Arguments.ArgumentParameterSet
        +isEmpty(): boolean
        +value(String): String
        +values(): Map<String, String>
    }

@enduml

PlantUML version 1.2018.08(Sun Jun 24 14:31:00 CEST 2018)
(APACHE source distribution)
Java Runtime: Java(TM) SE Runtime Environment
JVM: Java HotSpot(TM) 64-Bit Server VM
Java Version: 1.8.0_151-b12
Operating System: Mac OS X
OS Version: 10.13.6
Default Encoding: UTF-8
Language: en
Country: US
--></g></svg>