<?xml version="1.0" encoding="UTF-8" standalone="no"?><svg xmlns="http://www.w3.org/2000/svg" xmlns:xlink="http://www.w3.org/1999/xlink" contentScriptType="application/ecmascript" contentStyleType="text/css" height="137px" preserveAspectRatio="none" style="width:236px;height:137px;" version="1.1" viewBox="0 0 236 137" width="236px" zoomAndPan="magnify"><defs><filter height="300%" id="f1pd020yxksruu" width="300%" x="-1" y="-1"><feGaussianBlur result="blurOut" stdDeviation="2.0"/><feColorMatrix in="blurOut" result="blurOut2" type="matrix" values="0 0 0 0 0 0 0 0 0 0 0 0 0 0 0 0 0 0 .4 0"/><feOffset dx="4.0" dy="4.0" in="blurOut2" result="blurOut3"/><feBlend in="SourceGraphic" in2="blurOut3" mode="normal"/></filter></defs><g><!--cluster Arguments--><polygon fill="#FFFFFF" filter="url(#f1pd020yxksruu)" points="14,16,99,16,106,38.4883,214,38.4883,214,125,14,125,14,16" style="stroke: #000000; stroke-width: 1.5;"/><line style="stroke: #000000; stroke-width: 1.5;" x1="14" x2="106" y1="38.4883" y2="38.4883"/><text fill="#000000" font-family="sans-serif" font-size="14" font-weight="bold" lengthAdjust="spacingAndGlyphs" textLength="79" x="18" y="31.5352">Arguments</text><!--class Arguments.ArgumentParameterSet--><a target="_top" xlink:actuate="onRequest" xlink:href="Arguments.ArgumentParameterSet.html" xlink:show="new" xlink:title="Arguments.ArgumentParameterSet.html" xlink:type="simple"><rect fill="#FEFECE" filter="url(#f1pd020yxksruu)" height="73.9102" id="Arguments.ArgumentParameterSet" style="stroke: #A80036; stroke-width: 1.5;" width="184" x="22" y="43"/><ellipse cx="45.55" cy="59" fill="#ADD1B2" rx="11" ry="11" style="stroke: #A80036; stroke-width: 1.0;"/><path d="M48.5231,64.6431 Q47.9421,64.9419 47.3029,65.0913 Q46.6638,65.2407 45.9582,65.2407 Q43.4514,65.2407 42.1315,63.5889 Q40.8117,61.937 40.8117,58.8159 Q40.8117,55.6865 42.1315,54.0347 Q43.4514,52.3828 45.9582,52.3828 Q46.6638,52.3828 47.3112,52.5322 Q47.9587,52.6816 48.5231,52.9805 L48.5231,55.7031 Q47.8923,55.1221 47.2988,54.8523 Q46.7053,54.5825 46.0744,54.5825 Q44.7297,54.5825 44.0449,55.6492 Q43.3601,56.7158 43.3601,58.8159 Q43.3601,60.9077 44.0449,61.9744 Q44.7297,63.041 46.0744,63.041 Q46.7053,63.041 47.2988,62.7712 Q47.8923,62.5015 48.5231,61.9204 Z "/><text fill="#000000" font-family="sans-serif" font-size="12" lengthAdjust="spacingAndGlyphs" textLength="133" x="61.45" y="63.5352">ArgumentParameterSet</text><line style="stroke: #A80036; stroke-width: 1.5;" x1="23" x2="205" y1="75" y2="75"/><line style="stroke: #A80036; stroke-width: 1.5;" x1="23" x2="205" y1="83" y2="83"/><ellipse cx="33" cy="94.9775" fill="#84BE84" rx="3" ry="3" style="stroke: #038048; stroke-width: 1.0;"/><text fill="#000000" font-family="sans-serif" font-size="11" lengthAdjust="spacingAndGlyphs" textLength="106" x="42" y="97.6348">value(String): String</text><ellipse cx="33" cy="107.9326" fill="#84BE84" rx="3" ry="3" style="stroke: #038048; stroke-width: 1.0;"/><text fill="#000000" font-family="sans-serif" font-size="11" lengthAdjust="spacingAndGlyphs" textLength="158" x="42" y="110.5898">values(): Map&lt;String, String&gt;</text></a><!--
@startuml

    class Arguments.ArgumentParameterSet [[Arguments.ArgumentParameterSet.html]] {
        +value(String): String
        +values(): Map<String, String>
    }

@enduml

PlantUML version 1.2018.08(Sun Jun 24 14:31:00 CEST 2018)
(APACHE source distribution)
Java Runtime: Java(TM) SE Runtime Environment
JVM: Java HotSpot(TM) 64-Bit Server VM
Java Version: 1.8.0_151-b12
Operating System: Mac OS X
OS Version: 10.13.6
Default Encoding: UTF-8
Language: en
Country: US
--></g></svg>