<?xml version="1.0" encoding="UTF-8" standalone="no"?><svg xmlns="http://www.w3.org/2000/svg" xmlns:xlink="http://www.w3.org/1999/xlink" contentScriptType="application/ecmascript" contentStyleType="text/css" height="92px" preserveAspectRatio="none" style="width:276px;height:92px;" version="1.1" viewBox="0 0 276 92" width="276px" zoomAndPan="magnify"><defs><filter height="300%" id="f126l9chep7r3" width="300%" x="-1" y="-1"><feGaussianBlur result="blurOut" stdDeviation="2.0"/><feColorMatrix in="blurOut" result="blurOut2" type="matrix" values="0 0 0 0 0 0 0 0 0 0 0 0 0 0 0 0 0 0 .4 0"/><feOffset dx="4.0" dy="4.0" in="blurOut2" result="blurOut3"/><feBlend in="SourceGraphic" in2="blurOut3" mode="normal"/></filter></defs><g><!--class IncompleteDtoException--><a target="_top" xlink:actuate="onRequest" xlink:href="IncompleteDtoException.html" xlink:show="new" xlink:title="IncompleteDtoException.html" xlink:type="simple"><rect fill="#FEFECE" filter="url(#f126l9chep7r3)" height="73.9102" id="IncompleteDtoException" style="stroke: #A80036; stroke-width: 1.5;" width="259" x="6" y="8"/><ellipse cx="61.75" cy="24" fill="#ADD1B2" rx="11" ry="11" style="stroke: #A80036; stroke-width: 1.0;"/><path d="M64.7231,29.6431 Q64.1421,29.9419 63.5029,30.0913 Q62.8638,30.2407 62.1582,30.2407 Q59.6514,30.2407 58.3315,28.5889 Q57.0117,26.937 57.0117,23.8159 Q57.0117,20.6865 58.3315,19.0347 Q59.6514,17.3828 62.1582,17.3828 Q62.8638,17.3828 63.5112,17.5322 Q64.1587,17.6816 64.7231,17.9805 L64.7231,20.7031 Q64.0923,20.1221 63.4988,19.8523 Q62.9053,19.5825 62.2744,19.5825 Q60.9297,19.5825 60.2449,20.6492 Q59.5601,21.7158 59.5601,23.8159 Q59.5601,25.9077 60.2449,26.9744 Q60.9297,28.041 62.2744,28.041 Q62.9053,28.041 63.4988,27.7712 Q64.0923,27.5015 64.7231,26.9204 Z "/><text fill="#000000" font-family="sans-serif" font-size="12" lengthAdjust="spacingAndGlyphs" textLength="139" x="82.25" y="28.5352">IncompleteDtoException</text><line style="stroke: #A80036; stroke-width: 1.5;" x1="7" x2="264" y1="40" y2="40"/><line style="stroke: #A80036; stroke-width: 1.5;" x1="7" x2="264" y1="48" y2="48"/><ellipse cx="17" cy="59.9775" fill="#84BE84" rx="3" ry="3" style="stroke: #038048; stroke-width: 1.0;"/><text fill="#000000" font-family="sans-serif" font-size="11" lengthAdjust="spacingAndGlyphs" textLength="171" x="26" y="62.6348">IncompleteDtoException(String)</text><ellipse cx="17" cy="72.9326" fill="#84BE84" rx="3" ry="3" style="stroke: #038048; stroke-width: 1.0;"/><text fill="#000000" font-family="sans-serif" font-size="11" lengthAdjust="spacingAndGlyphs" textLength="233" x="26" y="75.5898">IncompleteDtoException(String, Throwable)</text></a><!--
@startuml

    class IncompleteDtoException [[IncompleteDtoException.html]] {
        +IncompleteDtoException(String)
        +IncompleteDtoException(String, Throwable)
    }

@enduml

PlantUML version 1.2018.08(Sun Jun 24 14:31:00 CEST 2018)
(APACHE source distribution)
Java Runtime: Java(TM) SE Runtime Environment
JVM: Java HotSpot(TM) 64-Bit Server VM
Java Version: 1.8.0_151-b12
Operating System: Mac OS X
OS Version: 10.13.6
Default Encoding: UTF-8
Language: en
Country: US
--></g></svg>