<?xml version="1.0" encoding="UTF-8" standalone="no"?><svg xmlns="http://www.w3.org/2000/svg" xmlns:xlink="http://www.w3.org/1999/xlink" contentScriptType="application/ecmascript" contentStyleType="text/css" height="300px" preserveAspectRatio="none" style="width:252px;height:300px;" version="1.1" viewBox="0 0 252 300" width="252px" zoomAndPan="magnify"><defs><filter height="300%" id="f14lnvtfexlmwv" width="300%" x="-1" y="-1"><feGaussianBlur result="blurOut" stdDeviation="2.0"/><feColorMatrix in="blurOut" result="blurOut2" type="matrix" values="0 0 0 0 0 0 0 0 0 0 0 0 0 0 0 0 0 0 .4 0"/><feOffset dx="4.0" dy="4.0" in="blurOut2" result="blurOut3"/><feBlend in="SourceGraphic" in2="blurOut3" mode="normal"/></filter></defs><g><!--class DefaultEidMap--><a target="_top" xlink:actuate="onRequest" xlink:href="DefaultEidMap.html" xlink:show="new" xlink:title="DefaultEidMap.html" xlink:type="simple"><rect fill="#FEFECE" filter="url(#f14lnvtfexlmwv)" height="281.1914" id="DefaultEidMap" style="stroke: #A80036; stroke-width: 1.5;" width="232" x="6" y="8"/><ellipse cx="69.75" cy="24" fill="#ADD1B2" rx="11" ry="11" style="stroke: #A80036; stroke-width: 1.0;"/><path d="M72.7231,29.6431 Q72.1421,29.9419 71.5029,30.0913 Q70.8638,30.2407 70.1582,30.2407 Q67.6514,30.2407 66.3315,28.5889 Q65.0117,26.937 65.0117,23.8159 Q65.0117,20.6865 66.3315,19.0347 Q67.6514,17.3828 70.1582,17.3828 Q70.8638,17.3828 71.5112,17.5322 Q72.1587,17.6816 72.7231,17.9805 L72.7231,20.7031 Q72.0923,20.1221 71.4988,19.8523 Q70.9053,19.5825 70.2744,19.5825 Q68.9297,19.5825 68.2449,20.6492 Q67.5601,21.7158 67.5601,23.8159 Q67.5601,25.9077 68.2449,26.9744 Q68.9297,28.041 70.2744,28.041 Q70.9053,28.041 71.4988,27.7712 Q72.0923,27.5015 72.7231,26.9204 Z "/><text fill="#000000" font-family="sans-serif" font-size="12" lengthAdjust="spacingAndGlyphs" textLength="84" x="90.25" y="28.5352">DefaultEidMap</text><rect fill="#FFFFFF" height="16.1328" style="stroke: #000000; stroke-width: 1.0; stroke-dasharray: 2.0,2.0;" width="10" x="231" y="5"/><text fill="#000000" font-family="sans-serif" font-size="12" font-style="italic" lengthAdjust="spacingAndGlyphs" textLength="8" x="232" y="17.6016">V</text><line style="stroke: #A80036; stroke-width: 1.5;" x1="7" x2="237" y1="40" y2="40"/><line style="stroke: #A80036; stroke-width: 1.5;" x1="7" x2="237" y1="48" y2="48"/><ellipse cx="17" cy="59.9775" fill="#84BE84" rx="3" ry="3" style="stroke: #038048; stroke-width: 1.0;"/><text fill="#000000" font-family="sans-serif" font-size="11" lengthAdjust="spacingAndGlyphs" textLength="84" x="26" y="62.6348">DefaultEidMap()</text><ellipse cx="17" cy="72.9326" fill="#84BE84" rx="3" ry="3" style="stroke: #038048; stroke-width: 1.0;"/><text fill="#000000" font-family="sans-serif" font-size="11" lengthAdjust="spacingAndGlyphs" textLength="154" x="26" y="75.5898">DefaultEidMap(Map&lt;EID, V&gt;)</text><ellipse cx="17" cy="85.8877" fill="#84BE84" rx="3" ry="3" style="stroke: #038048; stroke-width: 1.0;"/><text fill="#000000" font-family="sans-serif" font-size="11" lengthAdjust="spacingAndGlyphs" textLength="147" x="26" y="88.5449">unmodifiable(): EidMap&lt;V&gt;</text><ellipse cx="17" cy="98.8428" fill="#84BE84" rx="3" ry="3" style="stroke: #038048; stroke-width: 1.0;"/><text fill="#000000" font-family="sans-serif" font-size="11" lengthAdjust="spacingAndGlyphs" textLength="138" x="26" y="101.5">createCopy(): EidMap&lt;V&gt;</text><ellipse cx="17" cy="111.7979" fill="#84BE84" rx="3" ry="3" style="stroke: #038048; stroke-width: 1.0;"/><text fill="#000000" font-family="sans-serif" font-size="11" lengthAdjust="spacingAndGlyphs" textLength="185" x="26" y="114.4551">getAll(Collection&lt;?&gt;): EidMap&lt;V&gt;</text><ellipse cx="17" cy="124.7529" fill="#84BE84" rx="3" ry="3" style="stroke: #038048; stroke-width: 1.0;"/><text fill="#000000" font-family="sans-serif" font-size="11" lengthAdjust="spacingAndGlyphs" textLength="168" x="26" y="127.4102">removeAll(Collection&lt;?&gt;): void</text><ellipse cx="17" cy="137.708" fill="#84BE84" rx="3" ry="3" style="stroke: #038048; stroke-width: 1.0;"/><text fill="#000000" font-family="sans-serif" font-size="11" lengthAdjust="spacingAndGlyphs" textLength="49" x="26" y="140.3652">size(): int</text><ellipse cx="17" cy="150.6631" fill="#84BE84" rx="3" ry="3" style="stroke: #038048; stroke-width: 1.0;"/><text fill="#000000" font-family="sans-serif" font-size="11" lengthAdjust="spacingAndGlyphs" textLength="99" x="26" y="153.3203">isEmpty(): boolean</text><ellipse cx="17" cy="163.6182" fill="#84BE84" rx="3" ry="3" style="stroke: #038048; stroke-width: 1.0;"/><text fill="#000000" font-family="sans-serif" font-size="11" lengthAdjust="spacingAndGlyphs" textLength="206" x="26" y="166.2754">_internalContainsKey(Object): boolean</text><ellipse cx="17" cy="176.5732" fill="#84BE84" rx="3" ry="3" style="stroke: #038048; stroke-width: 1.0;"/><text fill="#000000" font-family="sans-serif" font-size="11" lengthAdjust="spacingAndGlyphs" textLength="167" x="26" y="179.2305">containsValue(Object): boolean</text><ellipse cx="17" cy="189.5283" fill="#84BE84" rx="3" ry="3" style="stroke: #038048; stroke-width: 1.0;"/><text fill="#000000" font-family="sans-serif" font-size="11" lengthAdjust="spacingAndGlyphs" textLength="69" x="26" y="192.1855">put(EID, V): V</text><ellipse cx="17" cy="202.4834" fill="#84BE84" rx="3" ry="3" style="stroke: #038048; stroke-width: 1.0;"/><text fill="#000000" font-family="sans-serif" font-size="11" lengthAdjust="spacingAndGlyphs" textLength="145" x="26" y="205.1406">_internalRemove(Object): V</text><ellipse cx="17" cy="215.4385" fill="#84BE84" rx="3" ry="3" style="stroke: #038048; stroke-width: 1.0;"/><text fill="#000000" font-family="sans-serif" font-size="11" lengthAdjust="spacingAndGlyphs" textLength="125" x="26" y="218.0957">putAll(Map&lt;?, ?&gt;): void</text><ellipse cx="17" cy="228.3936" fill="#84BE84" rx="3" ry="3" style="stroke: #038048; stroke-width: 1.0;"/><text fill="#000000" font-family="sans-serif" font-size="11" lengthAdjust="spacingAndGlyphs" textLength="63" x="26" y="231.0508">clear(): void</text><ellipse cx="17" cy="241.3486" fill="#84BE84" rx="3" ry="3" style="stroke: #038048; stroke-width: 1.0;"/><text fill="#000000" font-family="sans-serif" font-size="11" lengthAdjust="spacingAndGlyphs" textLength="99" x="26" y="244.0059">keySet(): Set&lt;EID&gt;</text><ellipse cx="17" cy="254.3037" fill="#84BE84" rx="3" ry="3" style="stroke: #038048; stroke-width: 1.0;"/><text fill="#000000" font-family="sans-serif" font-size="11" lengthAdjust="spacingAndGlyphs" textLength="127" x="26" y="256.9609">values(): Collection&lt;V&gt;</text><ellipse cx="17" cy="267.2588" fill="#84BE84" rx="3" ry="3" style="stroke: #038048; stroke-width: 1.0;"/><text fill="#000000" font-family="sans-serif" font-size="11" lengthAdjust="spacingAndGlyphs" textLength="193" x="26" y="269.916">entrySet(): Set&lt;Map.Entry&lt;EID, V&gt;&gt;</text><ellipse cx="17" cy="280.2139" fill="#84BE84" rx="3" ry="3" style="stroke: #038048; stroke-width: 1.0;"/><text fill="#000000" font-family="sans-serif" font-size="11" lengthAdjust="spacingAndGlyphs" textLength="121" x="26" y="282.8711">_internalGet(Object): V</text></a><!--
@startuml

    class DefaultEidMap<V> [[DefaultEidMap.html]] {
        +DefaultEidMap()
        +DefaultEidMap(Map<EID, V>)
        +unmodifiable(): EidMap<V>
        +createCopy(): EidMap<V>
        +getAll(Collection<?>): EidMap<V>
        +removeAll(Collection<?>): void
        +size(): int
        +isEmpty(): boolean
        +_internalContainsKey(Object): boolean
        +containsValue(Object): boolean
        +put(EID, V): V
        +_internalRemove(Object): V
        +putAll(Map<?, ?>): void
        +clear(): void
        +keySet(): Set<EID>
        +values(): Collection<V>
        +entrySet(): Set<Map.Entry<EID, V>>
        +_internalGet(Object): V
    }

@enduml

PlantUML version 1.2018.08(Sun Jun 24 14:31:00 CEST 2018)
(APACHE source distribution)
Java Runtime: Java(TM) SE Runtime Environment
JVM: Java HotSpot(TM) 64-Bit Server VM
Java Version: 1.8.0_151-b12
Operating System: Mac OS X
OS Version: 10.13.6
Default Encoding: UTF-8
Language: en
Country: US
--></g></svg>