<?xml version="1.0" encoding="UTF-8" standalone="no"?><svg xmlns="http://www.w3.org/2000/svg" xmlns:xlink="http://www.w3.org/1999/xlink" contentScriptType="application/ecmascript" contentStyleType="text/css" height="331px" preserveAspectRatio="none" style="width:324px;height:331px;" version="1.1" viewBox="0 0 324 331" width="324px" zoomAndPan="magnify"><defs><filter height="300%" id="f14s4m82hu8qk6" width="300%" x="-1" y="-1"><feGaussianBlur result="blurOut" stdDeviation="2.0"/><feColorMatrix in="blurOut" result="blurOut2" type="matrix" values="0 0 0 0 0 0 0 0 0 0 0 0 0 0 0 0 0 0 .4 0"/><feOffset dx="4.0" dy="4.0" in="blurOut2" result="blurOut3"/><feBlend in="SourceGraphic" in2="blurOut3" mode="normal"/></filter></defs><g><!--cluster ParameterSet--><polygon fill="#FFFFFF" filter="url(#f14s4m82hu8qk6)" points="14,16,115,16,122,38.4883,302,38.4883,302,319,14,319,14,16" style="stroke: #000000; stroke-width: 1.5;"/><line style="stroke: #000000; stroke-width: 1.5;" x1="14" x2="122" y1="38.4883" y2="38.4883"/><text fill="#000000" font-family="sans-serif" font-size="14" font-weight="bold" lengthAdjust="spacingAndGlyphs" textLength="95" x="18" y="31.5352">ParameterSet</text><!--class ParameterSet.MutableParameter--><a target="_top" xlink:actuate="onRequest" xlink:href="ParameterSet.MutableParameter.html" xlink:show="new" xlink:title="ParameterSet.MutableParameter.html" xlink:type="simple"><rect fill="#FEFECE" filter="url(#f14s4m82hu8qk6)" height="268.2363" id="ParameterSet.MutableParameter" style="stroke: #A80036; stroke-width: 1.5;" width="272" x="22" y="43"/><ellipse cx="100.75" cy="59" fill="#ADD1B2" rx="11" ry="11" style="stroke: #A80036; stroke-width: 1.0;"/><path d="M103.7231,64.6431 Q103.1421,64.9419 102.5029,65.0913 Q101.8638,65.2407 101.1582,65.2407 Q98.6514,65.2407 97.3315,63.5889 Q96.0117,61.937 96.0117,58.8159 Q96.0117,55.6865 97.3315,54.0347 Q98.6514,52.3828 101.1582,52.3828 Q101.8638,52.3828 102.5112,52.5322 Q103.1587,52.6816 103.7231,52.9805 L103.7231,55.7031 Q103.0923,55.1221 102.4988,54.8523 Q101.9053,54.5825 101.2744,54.5825 Q99.9297,54.5825 99.2449,55.6492 Q98.5601,56.7158 98.5601,58.8159 Q98.5601,60.9077 99.2449,61.9744 Q99.9297,63.041 101.2744,63.041 Q101.9053,63.041 102.4988,62.7712 Q103.0923,62.5015 103.7231,61.9204 Z "/><text fill="#000000" font-family="sans-serif" font-size="12" lengthAdjust="spacingAndGlyphs" textLength="106" x="121.25" y="63.5352">MutableParameter</text><line style="stroke: #A80036; stroke-width: 1.5;" x1="23" x2="293" y1="75" y2="75"/><line style="stroke: #A80036; stroke-width: 1.5;" x1="23" x2="293" y1="83" y2="83"/><ellipse cx="33" cy="94.9775" fill="#84BE84" rx="3" ry="3" style="stroke: #038048; stroke-width: 1.0;"/><text fill="#000000" font-family="sans-serif" font-size="11" lengthAdjust="spacingAndGlyphs" textLength="104" x="42" y="97.6348">MutableParameter()</text><ellipse cx="33" cy="107.9326" fill="#84BE84" rx="3" ry="3" style="stroke: #038048; stroke-width: 1.0;"/><text fill="#000000" font-family="sans-serif" font-size="11" lengthAdjust="spacingAndGlyphs" textLength="246" x="42" y="110.5898">MutableParameter(Parameterizable.Parameter)</text><ellipse cx="33" cy="120.8877" fill="#84BE84" rx="3" ry="3" style="stroke: #038048; stroke-width: 1.0;"/><text fill="#000000" font-family="sans-serif" font-size="11" lengthAdjust="spacingAndGlyphs" textLength="174" x="42" y="123.5449">MutableParameter(String, String)</text><ellipse cx="33" cy="133.8428" fill="#84BE84" rx="3" ry="3" style="stroke: #038048; stroke-width: 1.0;"/><text fill="#000000" font-family="sans-serif" font-size="11" lengthAdjust="spacingAndGlyphs" textLength="115" x="42" y="136.5">setName(String): void</text><ellipse cx="33" cy="146.7979" fill="#84BE84" rx="3" ry="3" style="stroke: #038048; stroke-width: 1.0;"/><text fill="#000000" font-family="sans-serif" font-size="11" lengthAdjust="spacingAndGlyphs" textLength="152" x="42" y="149.4551">setDefaultValue(String): void</text><ellipse cx="33" cy="159.7529" fill="#84BE84" rx="3" ry="3" style="stroke: #038048; stroke-width: 1.0;"/><text fill="#000000" font-family="sans-serif" font-size="11" lengthAdjust="spacingAndGlyphs" textLength="147" x="42" y="162.4102">setDescription(String): void</text><ellipse cx="33" cy="172.708" fill="#84BE84" rx="3" ry="3" style="stroke: #038048; stroke-width: 1.0;"/><text fill="#000000" font-family="sans-serif" font-size="11" lengthAdjust="spacingAndGlyphs" textLength="162" x="42" y="175.3652">setAllowedValues(String): void</text><ellipse cx="33" cy="185.6631" fill="#84BE84" rx="3" ry="3" style="stroke: #038048; stroke-width: 1.0;"/><text fill="#000000" font-family="sans-serif" font-size="11" lengthAdjust="spacingAndGlyphs" textLength="111" x="42" y="188.3203">setType(String): void</text><ellipse cx="33" cy="198.6182" fill="#84BE84" rx="3" ry="3" style="stroke: #038048; stroke-width: 1.0;"/><text fill="#000000" font-family="sans-serif" font-size="11" lengthAdjust="spacingAndGlyphs" textLength="144" x="42" y="201.2754">setRequired(boolean): void</text><ellipse cx="33" cy="211.5732" fill="#84BE84" rx="3" ry="3" style="stroke: #038048; stroke-width: 1.0;"/><text fill="#000000" font-family="sans-serif" font-size="11" lengthAdjust="spacingAndGlyphs" textLength="226" x="42" y="214.2305">setExcludingParameter(Set&lt;String&gt;): void</text><ellipse cx="33" cy="224.5283" fill="#84BE84" rx="3" ry="3" style="stroke: #038048; stroke-width: 1.0;"/><text fill="#000000" font-family="sans-serif" font-size="11" lengthAdjust="spacingAndGlyphs" textLength="93" x="42" y="227.1855">getName(): String</text><ellipse cx="33" cy="237.4834" fill="#84BE84" rx="3" ry="3" style="stroke: #038048; stroke-width: 1.0;"/><text fill="#000000" font-family="sans-serif" font-size="11" lengthAdjust="spacingAndGlyphs" textLength="130" x="42" y="240.1406">getDefaultValue(): String</text><ellipse cx="33" cy="250.4385" fill="#84BE84" rx="3" ry="3" style="stroke: #038048; stroke-width: 1.0;"/><text fill="#000000" font-family="sans-serif" font-size="11" lengthAdjust="spacingAndGlyphs" textLength="125" x="42" y="253.0957">getDescription(): String</text><ellipse cx="33" cy="263.3936" fill="#84BE84" rx="3" ry="3" style="stroke: #038048; stroke-width: 1.0;"/><text fill="#000000" font-family="sans-serif" font-size="11" lengthAdjust="spacingAndGlyphs" textLength="140" x="42" y="266.0508">getAllowedValues(): String</text><ellipse cx="33" cy="276.3486" fill="#84BE84" rx="3" ry="3" style="stroke: #038048; stroke-width: 1.0;"/><text fill="#000000" font-family="sans-serif" font-size="11" lengthAdjust="spacingAndGlyphs" textLength="89" x="42" y="279.0059">getType(): String</text><ellipse cx="33" cy="289.3037" fill="#84BE84" rx="3" ry="3" style="stroke: #038048; stroke-width: 1.0;"/><text fill="#000000" font-family="sans-serif" font-size="11" lengthAdjust="spacingAndGlyphs" textLength="114" x="42" y="291.9609">isRequired(): boolean</text><ellipse cx="33" cy="302.2588" fill="#84BE84" rx="3" ry="3" style="stroke: #038048; stroke-width: 1.0;"/><text fill="#000000" font-family="sans-serif" font-size="11" lengthAdjust="spacingAndGlyphs" textLength="204" x="42" y="304.916">getExcludingParameter(): Set&lt;String&gt;</text></a><!--
@startuml

    class ParameterSet.MutableParameter [[ParameterSet.MutableParameter.html]] {
        +MutableParameter()
        +MutableParameter(Parameterizable.Parameter)
        +MutableParameter(String, String)
        +setName(String): void
        +setDefaultValue(String): void
        +setDescription(String): void
        +setAllowedValues(String): void
        +setType(String): void
        +setRequired(boolean): void
        +setExcludingParameter(Set<String>): void
        +getName(): String
        +getDefaultValue(): String
        +getDescription(): String
        +getAllowedValues(): String
        +getType(): String
        +isRequired(): boolean
        +getExcludingParameter(): Set<String>
    }

@enduml

PlantUML version 1.2018.08(Sun Jun 24 14:31:00 CEST 2018)
(APACHE source distribution)
Java Runtime: Java(TM) SE Runtime Environment
JVM: Java HotSpot(TM) 64-Bit Server VM
Java Version: 1.8.0_151-b12
Operating System: Mac OS X
OS Version: 10.13.6
Default Encoding: UTF-8
Language: en
Country: US
--></g></svg>