<?xml version="1.0" encoding="UTF-8" standalone="no"?><svg xmlns="http://www.w3.org/2000/svg" xmlns:xlink="http://www.w3.org/1999/xlink" contentScriptType="application/ecmascript" contentStyleType="text/css" height="183px" preserveAspectRatio="none" style="width:348px;height:183px;" version="1.1" viewBox="0 0 348 183" width="348px" zoomAndPan="magnify"><defs><filter height="300%" id="f1hq36achmza19" width="300%" x="-1" y="-1"><feGaussianBlur result="blurOut" stdDeviation="2.0"/><feColorMatrix in="blurOut" result="blurOut2" type="matrix" values="0 0 0 0 0 0 0 0 0 0 0 0 0 0 0 0 0 0 .4 0"/><feOffset dx="4.0" dy="4.0" in="blurOut2" result="blurOut3"/><feBlend in="SourceGraphic" in2="blurOut3" mode="normal"/></filter></defs><g><!--class ParameterSet--><a target="_top" xlink:actuate="onRequest" xlink:href="ParameterSet.html" xlink:show="new" xlink:title="ParameterSet.html" xlink:type="simple"><rect fill="#FEFECE" filter="url(#f1hq36achmza19)" height="164.5957" id="ParameterSet" style="stroke: #A80036; stroke-width: 1.5;" width="331" x="6" y="8"/><ellipse cx="128.75" cy="24" fill="#ADD1B2" rx="11" ry="11" style="stroke: #A80036; stroke-width: 1.0;"/><path d="M131.7231,29.6431 Q131.1421,29.9419 130.5029,30.0913 Q129.8638,30.2407 129.1582,30.2407 Q126.6514,30.2407 125.3315,28.5889 Q124.0117,26.937 124.0117,23.8159 Q124.0117,20.6865 125.3315,19.0347 Q126.6514,17.3828 129.1582,17.3828 Q129.8638,17.3828 130.5112,17.5322 Q131.1587,17.6816 131.7231,17.9805 L131.7231,20.7031 Q131.0923,20.1221 130.4988,19.8523 Q129.9053,19.5825 129.2744,19.5825 Q127.9297,19.5825 127.2449,20.6492 Q126.5601,21.7158 126.5601,23.8159 Q126.5601,25.9077 127.2449,26.9744 Q127.9297,28.041 129.2744,28.041 Q129.9053,28.041 130.4988,27.7712 Q131.0923,27.5015 131.7231,26.9204 Z "/><text fill="#000000" font-family="sans-serif" font-size="12" lengthAdjust="spacingAndGlyphs" textLength="77" x="149.25" y="28.5352">ParameterSet</text><line style="stroke: #A80036; stroke-width: 1.5;" x1="7" x2="336" y1="40" y2="40"/><line style="stroke: #A80036; stroke-width: 1.5;" x1="7" x2="336" y1="48" y2="48"/><ellipse cx="17" cy="59.9775" fill="#84BE84" rx="3" ry="3" style="stroke: #038048; stroke-width: 1.0;"/><text fill="#000000" font-family="sans-serif" font-size="11" lengthAdjust="spacingAndGlyphs" textLength="78" x="26" y="62.6348">ParameterSet()</text><ellipse cx="17" cy="72.9326" fill="#84BE84" rx="3" ry="3" style="stroke: #038048; stroke-width: 1.0;"/><text fill="#000000" font-family="sans-serif" font-size="11" lengthAdjust="spacingAndGlyphs" textLength="148" x="26" y="75.5898">ParameterSet(ParameterSet)</text><ellipse cx="17" cy="85.8877" fill="#84BE84" rx="3" ry="3" style="stroke: #038048; stroke-width: 1.0;"/><text fill="#000000" font-family="sans-serif" font-size="11" lengthAdjust="spacingAndGlyphs" textLength="261" x="26" y="88.5449">asNameDefaultValuePairs(): Collection&lt;String[]&gt;</text><ellipse cx="17" cy="98.8428" fill="#84BE84" rx="3" ry="3" style="stroke: #038048; stroke-width: 1.0;"/><text fill="#000000" font-family="sans-serif" font-size="11" lengthAdjust="spacingAndGlyphs" textLength="152" x="26" y="101.5">getParamTypeName(): String</text><ellipse cx="17" cy="111.7979" fill="#84BE84" rx="3" ry="3" style="stroke: #038048; stroke-width: 1.0;"/><text fill="#000000" font-family="sans-serif" font-size="11" lengthAdjust="spacingAndGlyphs" textLength="305" x="26" y="114.4551">getParameters(): Collection&lt;Parameterizable.Parameter&gt;</text><ellipse cx="17" cy="124.7529" fill="#84BE84" rx="3" ry="3" style="stroke: #038048; stroke-width: 1.0;"/><text fill="#000000" font-family="sans-serif" font-size="11" lengthAdjust="spacingAndGlyphs" textLength="259" x="26" y="127.4102">getParameter(String): Parameterizable.Parameter</text><ellipse cx="17" cy="137.708" fill="#84BE84" rx="3" ry="3" style="stroke: #038048; stroke-width: 1.0;"/><text fill="#000000" font-family="sans-serif" font-size="11" lengthAdjust="spacingAndGlyphs" textLength="181" x="26" y="140.3652">addParameter(String, String): void</text><ellipse cx="17" cy="150.6631" fill="#84BE84" rx="3" ry="3" style="stroke: #038048; stroke-width: 1.0;"/><text fill="#000000" font-family="sans-serif" font-size="11" lengthAdjust="spacingAndGlyphs" textLength="253" x="26" y="153.3203">addParameter(Parameterizable.Parameter): void</text><ellipse cx="17" cy="163.6182" fill="#84BE84" rx="3" ry="3" style="stroke: #038048; stroke-width: 1.0;"/><text fill="#000000" font-family="sans-serif" font-size="11" lengthAdjust="spacingAndGlyphs" textLength="99" x="26" y="166.2754">isEmpty(): boolean</text></a><!--
@startuml

    class ParameterSet [[ParameterSet.html]] {
        +ParameterSet()
        +ParameterSet(ParameterSet)
        +asNameDefaultValuePairs(): Collection<String[]>
        +getParamTypeName(): String
        +getParameters(): Collection<Parameterizable.Parameter>
        +getParameter(String): Parameterizable.Parameter
        +addParameter(String, String): void
        +addParameter(Parameterizable.Parameter): void
        +isEmpty(): boolean
    }

@enduml

PlantUML version 1.2018.08(Sun Jun 24 14:31:00 CEST 2018)
(APACHE source distribution)
Java Runtime: Java(TM) SE Runtime Environment
JVM: Java HotSpot(TM) 64-Bit Server VM
Java Version: 1.8.0_151-b12
Operating System: Mac OS X
OS Version: 10.13.6
Default Encoding: UTF-8
Language: en
Country: US
--></g></svg>