<?xml version="1.0" encoding="UTF-8" standalone="no"?><svg xmlns="http://www.w3.org/2000/svg" xmlns:xlink="http://www.w3.org/1999/xlink" contentScriptType="application/ecmascript" contentStyleType="text/css" height="516px" preserveAspectRatio="none" style="width:559px;height:516px;" version="1.1" viewBox="0 0 559 516" width="559px" zoomAndPan="magnify"><defs><filter height="300%" id="f1v6ax5qa4aapr" width="300%" x="-1" y="-1"><feGaussianBlur result="blurOut" stdDeviation="2.0"/><feColorMatrix in="blurOut" result="blurOut2" type="matrix" values="0 0 0 0 0 0 0 0 0 0 0 0 0 0 0 0 0 0 .4 0"/><feOffset dx="4.0" dy="4.0" in="blurOut2" result="blurOut3"/><feBlend in="SourceGraphic" in2="blurOut3" mode="normal"/></filter></defs><g><!--cluster de.interactive_instruments.etf.dal.dto.report--><polygon fill="#FFFFFF" filter="url(#f1v6ax5qa4aapr)" points="14,130,333,130,340,152.4883,537,152.4883,537,504,14,504,14,130" style="stroke: #000000; stroke-width: 1.5;"/><line style="stroke: #000000; stroke-width: 1.5;" x1="14" x2="340" y1="152.4883" y2="152.4883"/><text fill="#000000" font-family="sans-serif" font-size="14" font-weight="bold" lengthAdjust="spacingAndGlyphs" textLength="313" x="18" y="145.5352">de.interactive_instruments.etf.dal.dto.report</text><!--cluster de.interactive_instruments.etf.dal.dto--><polygon fill="#FFFFFF" filter="url(#f1v6ax5qa4aapr)" points="136,16,408,16,415,38.4883,469,38.4883,469,99,136,99,136,16" style="stroke: #000000; stroke-width: 1.5;"/><line style="stroke: #000000; stroke-width: 1.5;" x1="136" x2="415" y1="38.4883" y2="38.4883"/><text fill="#000000" font-family="sans-serif" font-size="14" font-weight="bold" lengthAdjust="spacingAndGlyphs" textLength="266" x="140" y="31.5352">de.interactive_instruments.etf.dal.dto</text><!--class de.interactive_instruments.etf.dal.dto.report.StatisticalReportTableDto--><a target="_top" xlink:actuate="onRequest" xlink:href="StatisticalReportTableDto.html" xlink:show="new" xlink:title="StatisticalReportTableDto.html" xlink:type="simple"><rect fill="#FEFECE" filter="url(#f1v6ax5qa4aapr)" height="73.9102" id="de.interactive_instruments.etf.dal.dto.report.StatisticalReportTableDto" style="stroke: #A80036; stroke-width: 1.5;" width="236" x="84" y="157"/><ellipse cx="125.55" cy="173" fill="#ADD1B2" rx="11" ry="11" style="stroke: #A80036; stroke-width: 1.0;"/><path d="M128.5231,178.6431 Q127.9421,178.9419 127.3029,179.0913 Q126.6638,179.2407 125.9582,179.2407 Q123.4514,179.2407 122.1315,177.5889 Q120.8117,175.937 120.8117,172.8159 Q120.8117,169.6865 122.1315,168.0347 Q123.4514,166.3828 125.9582,166.3828 Q126.6638,166.3828 127.3112,166.5322 Q127.9587,166.6816 128.5231,166.9805 L128.5231,169.7031 Q127.8923,169.1221 127.2988,168.8523 Q126.7053,168.5825 126.0744,168.5825 Q124.7297,168.5825 124.0449,169.6492 Q123.3601,170.7158 123.3601,172.8159 Q123.3601,174.9077 124.0449,175.9744 Q124.7297,177.041 126.0744,177.041 Q126.7053,177.041 127.2988,176.7712 Q127.8923,176.5015 128.5231,175.9204 Z "/><text fill="#000000" font-family="sans-serif" font-size="12" lengthAdjust="spacingAndGlyphs" textLength="145" x="145.45" y="177.5352">StatisticalReportTableDto</text><line style="stroke: #A80036; stroke-width: 1.5;" x1="85" x2="319" y1="189" y2="189"/><line style="stroke: #A80036; stroke-width: 1.5;" x1="85" x2="319" y1="197" y2="197"/><ellipse cx="95" cy="208.9775" fill="#84BE84" rx="3" ry="3" style="stroke: #038048; stroke-width: 1.0;"/><text fill="#000000" font-family="sans-serif" font-size="11" lengthAdjust="spacingAndGlyphs" textLength="143" x="104" y="211.6348">StatisticalReportTableDto()</text><ellipse cx="95" cy="221.9326" fill="#84BE84" rx="3" ry="3" style="stroke: #038048; stroke-width: 1.0;"/><text fill="#000000" font-family="sans-serif" font-size="11" lengthAdjust="spacingAndGlyphs" textLength="210" x="104" y="224.5898">createCopy(): StatisticalReportTableDto</text></a><!--class de.interactive_instruments.etf.dal.dto.report.StatisticalReportTableDto.Entry--><a target="_top" xlink:actuate="onRequest" xlink:href="StatisticalReportTableDto.Entry.html" xlink:show="new" xlink:title="StatisticalReportTableDto.Entry.html" xlink:type="simple"><rect fill="#FEFECE" filter="url(#f1v6ax5qa4aapr)" height="60.9551" id="de.interactive_instruments.etf.dal.dto.report.StatisticalReportTableDto.Entry" style="stroke: #A80036; stroke-width: 1.5;" width="210" x="22" y="402.5"/><ellipse cx="37" cy="418.5" fill="#ADD1B2" rx="11" ry="11" style="stroke: #A80036; stroke-width: 1.0;"/><path d="M39.9731,424.1431 Q39.3921,424.4419 38.7529,424.5913 Q38.1138,424.7407 37.4082,424.7407 Q34.9014,424.7407 33.5815,423.0889 Q32.2617,421.437 32.2617,418.3159 Q32.2617,415.1865 33.5815,413.5347 Q34.9014,411.8828 37.4082,411.8828 Q38.1138,411.8828 38.7612,412.0322 Q39.4087,412.1816 39.9731,412.4805 L39.9731,415.2031 Q39.3423,414.6221 38.7488,414.3523 Q38.1553,414.0825 37.5244,414.0825 Q36.1797,414.0825 35.4949,415.1492 Q34.8101,416.2158 34.8101,418.3159 Q34.8101,420.4077 35.4949,421.4744 Q36.1797,422.541 37.5244,422.541 Q38.1553,422.541 38.7488,422.2712 Q39.3423,422.0015 39.9731,421.4204 Z "/><text fill="#000000" font-family="sans-serif" font-size="12" lengthAdjust="spacingAndGlyphs" textLength="178" x="51" y="423.0352">StatisticalReportTableDto.Entry</text><line style="stroke: #A80036; stroke-width: 1.5;" x1="23" x2="231" y1="434.5" y2="434.5"/><line style="stroke: #A80036; stroke-width: 1.5;" x1="23" x2="231" y1="442.5" y2="442.5"/><ellipse cx="33" cy="454.4775" fill="#84BE84" rx="3" ry="3" style="stroke: #038048; stroke-width: 1.0;"/><text fill="#000000" font-family="sans-serif" font-size="11" lengthAdjust="spacingAndGlyphs" textLength="79" x="42" y="457.1348">Entry(Object[])</text></a><!--class de.interactive_instruments.etf.dal.dto.report.StatisticalReportTableTypeDto--><a target="_top" xlink:actuate="onRequest" xlink:href="StatisticalReportTableTypeDto.html" xlink:show="new" xlink:title="StatisticalReportTableTypeDto.html" xlink:type="simple"><rect fill="#FEFECE" filter="url(#f1v6ax5qa4aapr)" height="125.7305" id="de.interactive_instruments.etf.dal.dto.report.StatisticalReportTableTypeDto" style="stroke: #A80036; stroke-width: 1.5;" width="262" x="267" y="370"/><ellipse cx="307.2" cy="386" fill="#ADD1B2" rx="11" ry="11" style="stroke: #A80036; stroke-width: 1.0;"/><path d="M310.1731,391.6431 Q309.5921,391.9419 308.9529,392.0913 Q308.3138,392.2407 307.6082,392.2407 Q305.1014,392.2407 303.7815,390.5889 Q302.4617,388.937 302.4617,385.8159 Q302.4617,382.6865 303.7815,381.0347 Q305.1014,379.3828 307.6082,379.3828 Q308.3138,379.3828 308.9612,379.5322 Q309.6087,379.6816 310.1731,379.9805 L310.1731,382.7031 Q309.5423,382.1221 308.9488,381.8523 Q308.3553,381.5825 307.7244,381.5825 Q306.3797,381.5825 305.6949,382.6492 Q305.0101,383.7158 305.0101,385.8159 Q305.0101,387.9077 305.6949,388.9744 Q306.3797,390.041 307.7244,390.041 Q308.3553,390.041 308.9488,389.7712 Q309.5423,389.5015 310.1731,388.9204 Z "/><text fill="#000000" font-family="sans-serif" font-size="12" lengthAdjust="spacingAndGlyphs" textLength="174" x="326.8" y="390.5352">StatisticalReportTableTypeDto</text><line style="stroke: #A80036; stroke-width: 1.5;" x1="268" x2="528" y1="402" y2="402"/><line style="stroke: #A80036; stroke-width: 1.5;" x1="268" x2="528" y1="410" y2="410"/><ellipse cx="278" cy="421.9775" fill="#84BE84" rx="3" ry="3" style="stroke: #038048; stroke-width: 1.0;"/><text fill="#000000" font-family="sans-serif" font-size="11" lengthAdjust="spacingAndGlyphs" textLength="169" x="287" y="424.6348">StatisticalReportTableTypeDto()</text><ellipse cx="278" cy="434.9326" fill="#84BE84" rx="3" ry="3" style="stroke: #038048; stroke-width: 1.0;"/><text fill="#000000" font-family="sans-serif" font-size="11" lengthAdjust="spacingAndGlyphs" textLength="214" x="287" y="437.5898">getColumnHeaderLabels(): List&lt;String&gt;</text><ellipse cx="278" cy="447.8877" fill="#84BE84" rx="3" ry="3" style="stroke: #038048; stroke-width: 1.0;"/><text fill="#000000" font-family="sans-serif" font-size="11" lengthAdjust="spacingAndGlyphs" textLength="236" x="287" y="450.5449">setColumnHeaderLabels(List&lt;String&gt;): void</text><ellipse cx="278" cy="460.8428" fill="#84BE84" rx="3" ry="3" style="stroke: #038048; stroke-width: 1.0;"/><text fill="#000000" font-family="sans-serif" font-size="11" lengthAdjust="spacingAndGlyphs" textLength="208" x="287" y="463.5">getColumnExpressions(): List&lt;String&gt;</text><ellipse cx="278" cy="473.7979" fill="#84BE84" rx="3" ry="3" style="stroke: #038048; stroke-width: 1.0;"/><text fill="#000000" font-family="sans-serif" font-size="11" lengthAdjust="spacingAndGlyphs" textLength="230" x="287" y="476.4551">setColumnExpressions(List&lt;String&gt;): void</text><ellipse cx="278" cy="486.7529" fill="#84BE84" rx="3" ry="3" style="stroke: #038048; stroke-width: 1.0;"/><text fill="#000000" font-family="sans-serif" font-size="11" lengthAdjust="spacingAndGlyphs" textLength="236" x="287" y="489.4102">createCopy(): StatisticalReportTableTypeDto</text></a><!--class de.interactive_instruments.etf.dal.dto.MetaDataItemDto--><rect fill="#FEFECE" filter="url(#f1v6ax5qa4aapr)" height="48" id="de.interactive_instruments.etf.dal.dto.MetaDataItemDto" style="stroke: #A80036; stroke-width: 1.5;" width="144" x="144" y="43"/><ellipse cx="159" cy="59" fill="#A9DCDF" rx="11" ry="11" style="stroke: #A80036; stroke-width: 1.0;"/><path d="M159.1133,54.3481 L157.9595,59.4199 L160.2754,59.4199 Z M157.6191,52.1069 L160.6157,52.1069 L163.9609,64.5 L161.5122,64.5 L160.7485,61.437 L157.4697,61.437 L156.7227,64.5 L154.2739,64.5 Z "/><text fill="#000000" font-family="sans-serif" font-size="12" font-style="italic" lengthAdjust="spacingAndGlyphs" textLength="100" x="173" y="63.5352">MetaDataItemDto</text><rect fill="#FFFFFF" height="16.1328" style="stroke: #000000; stroke-width: 1.0; stroke-dasharray: 2.0,2.0;" width="10" x="281" y="40"/><text fill="#000000" font-family="sans-serif" font-size="12" font-style="italic" lengthAdjust="spacingAndGlyphs" textLength="8" x="282" y="52.6016">T</text><line style="stroke: #A80036; stroke-width: 1.5;" x1="145" x2="287" y1="75" y2="75"/><line style="stroke: #A80036; stroke-width: 1.5;" x1="145" x2="287" y1="83" y2="83"/><!--class de.interactive_instruments.etf.dal.dto.RepositoryItemDto--><rect fill="#FEFECE" filter="url(#f1v6ax5qa4aapr)" height="48" id="de.interactive_instruments.etf.dal.dto.RepositoryItemDto" style="stroke: #A80036; stroke-width: 1.5;" width="138" x="323" y="43"/><ellipse cx="338" cy="59" fill="#A9DCDF" rx="11" ry="11" style="stroke: #A80036; stroke-width: 1.0;"/><path d="M338.1133,54.3481 L336.9595,59.4199 L339.2754,59.4199 Z M336.6191,52.1069 L339.6157,52.1069 L342.9609,64.5 L340.5122,64.5 L339.7485,61.437 L336.4697,61.437 L335.7227,64.5 L333.2739,64.5 Z "/><text fill="#000000" font-family="sans-serif" font-size="12" font-style="italic" lengthAdjust="spacingAndGlyphs" textLength="106" x="352" y="63.5352">RepositoryItemDto</text><line style="stroke: #A80036; stroke-width: 1.5;" x1="324" x2="460" y1="75" y2="75"/><line style="stroke: #A80036; stroke-width: 1.5;" x1="324" x2="460" y1="83" y2="83"/><!--link de.interactive_instruments.etf.dal.dto.MetaDataItemDto to de.interactive_instruments.etf.dal.dto.report.StatisticalReportTableDto--><path d="M211.1316,111.1638 C209.4864,126.0872 207.6677,142.5858 206.0892,156.9049 " fill="none" id="de.interactive_instruments.etf.dal.dto.MetaDataItemDto-de.interactive_instruments.etf.dal.dto.report.StatisticalReportTableDto" style="stroke: #A80036; stroke-width: 1.0;"/><polygon fill="none" points="204.1844,110.2992,213.3338,91.1867,218.1001,111.8333,204.1844,110.2992" style="stroke: #A80036; stroke-width: 1.0;"/><!--link de.interactive_instruments.etf.dal.dto.report.StatisticalReportTableDto to de.interactive_instruments.etf.dal.dto.report.StatisticalReportTableDto.Entry--><path d="M175.2865,244.9902 C168.2667,259.8547 161.2106,276.3212 156,292 C143.6651,329.1158 135.5736,373.5465 131.1471,402.4776 " fill="none" id="de.interactive_instruments.etf.dal.dto.report.StatisticalReportTableDto-de.interactive_instruments.etf.dal.dto.report.StatisticalReportTableDto.Entry" style="stroke: #A80036; stroke-width: 1.0;"/><ellipse cx="178.4439" cy="238.5011" fill="#FFFFFF" rx="8" ry="8" style="stroke: #A80036; stroke-width: 1.0;"/><line style="stroke: #A80036; stroke-width: 1.0;" x1="174.9435" x2="181.9442" y1="245.6947" y2="231.3075"/><line style="stroke: #A80036; stroke-width: 1.0;" x1="171.2503" x2="185.6374" y1="235.0007" y2="242.0014"/><!--link de.interactive_instruments.etf.dal.dto.report.StatisticalReportTableDto to de.interactive_instruments.etf.dal.dto.report.StatisticalReportTableDto.Entry--><path d="M190.3635,231.0815 C176.1407,276.4049 152.24,352.5685 138.2127,397.2688 " fill="none" id="de.interactive_instruments.etf.dal.dto.report.StatisticalReportTableDto-de.interactive_instruments.etf.dal.dto.report.StatisticalReportTableDto.Entry" style="stroke: #A80036; stroke-width: 1.0;"/><polygon fill="#A80036" points="136.636,402.2933,143.1473,394.904,138.1331,397.5227,135.5144,392.5085,136.636,402.2933" style="stroke: #A80036; stroke-width: 1.0;"/><text fill="#000000" font-family="sans-serif" font-size="13" lengthAdjust="spacingAndGlyphs" textLength="43" x="171" y="305.5684">entries</text><text fill="#000000" font-family="sans-serif" font-size="13" lengthAdjust="spacingAndGlyphs" textLength="6" x="132.0876" y="391.5428">*</text><!--link de.interactive_instruments.etf.dal.dto.RepositoryItemDto to de.interactive_instruments.etf.dal.dto.report.StatisticalReportTableTypeDto--><path d="M392.7271,111.3521 C393.7848,175.8719 395.7532,295.9437 396.9628,369.7307 " fill="none" id="de.interactive_instruments.etf.dal.dto.RepositoryItemDto-de.interactive_instruments.etf.dal.dto.report.StatisticalReportTableTypeDto" style="stroke: #A80036; stroke-width: 1.0;"/><polygon fill="none" points="385.7225,111.1264,392.3937,91.0143,399.7207,110.8968,385.7225,111.1264" style="stroke: #A80036; stroke-width: 1.0;"/><!--link de.interactive_instruments.etf.dal.dto.report.StatisticalReportTableDto to de.interactive_instruments.etf.dal.dto.report.StatisticalReportTableTypeDto--><path d="M232.4099,231.0815 C261.8436,266.9726 307.1373,322.2032 342.9186,365.8344 " fill="none" id="de.interactive_instruments.etf.dal.dto.report.StatisticalReportTableDto-de.interactive_instruments.etf.dal.dto.report.StatisticalReportTableTypeDto" style="stroke: #A80036; stroke-width: 1.0;"/><polygon fill="#A80036" points="346.1316,369.7524,343.5174,360.2568,342.961,365.8862,337.3316,365.3298,346.1316,369.7524" style="stroke: #A80036; stroke-width: 1.0;"/><text fill="#000000" font-family="sans-serif" font-size="13" lengthAdjust="spacingAndGlyphs" textLength="27" x="296" y="305.5684">type</text><!--
@startuml

    namespace de.interactive_instruments.etf.dal.dto.report {

        class StatisticalReportTableDto [[StatisticalReportTableDto.html]] {
            +StatisticalReportTableDto()
            +createCopy(): StatisticalReportTableDto
        }

        class de.interactive_instruments.etf.dal.dto.report.StatisticalReportTableDto.Entry [[StatisticalReportTableDto.Entry.html]] {
            +Entry(Object[])
        }

        class StatisticalReportTableTypeDto [[StatisticalReportTableTypeDto.html]] {
            +StatisticalReportTableTypeDto()
            +getColumnHeaderLabels(): List<String>
            +setColumnHeaderLabels(List<String>): void
            +getColumnExpressions(): List<String>
            +setColumnExpressions(List<String>): void
            +createCopy(): StatisticalReportTableTypeDto
        }

        abstract class de.interactive_instruments.etf.dal.dto.MetaDataItemDto<T>
        de.interactive_instruments.etf.dal.dto.MetaDataItemDto <|- - StatisticalReportTableDto

        StatisticalReportTableDto +- - de.interactive_instruments.etf.dal.dto.report.StatisticalReportTableDto.Entry

        abstract class de.interactive_instruments.etf.dal.dto.RepositoryItemDto
        de.interactive_instruments.etf.dal.dto.RepositoryItemDto <|- - StatisticalReportTableTypeDto

        StatisticalReportTableDto - -> StatisticalReportTableTypeDto: type

        StatisticalReportTableDto - -> "*" de.interactive_instruments.etf.dal.dto.report.StatisticalReportTableDto.Entry: entries

    }

@enduml

PlantUML version 1.2018.08(Sun Jun 24 14:31:00 CEST 2018)
(APACHE source distribution)
Java Runtime: Java(TM) SE Runtime Environment
JVM: Java HotSpot(TM) 64-Bit Server VM
Java Version: 1.8.0_151-b12
Operating System: Mac OS X
OS Version: 10.13.6
Default Encoding: UTF-8
Language: en
Country: US
--></g></svg>