<?xml version="1.0" encoding="UTF-8" standalone="no"?><svg xmlns="http://www.w3.org/2000/svg" xmlns:xlink="http://www.w3.org/1999/xlink" contentScriptType="application/ecmascript" contentStyleType="text/css" height="144px" preserveAspectRatio="none" style="width:279px;height:144px;" version="1.1" viewBox="0 0 279 144" width="279px" zoomAndPan="magnify"><defs><filter height="300%" id="fumpcss0selns" width="300%" x="-1" y="-1"><feGaussianBlur result="blurOut" stdDeviation="2.0"/><feColorMatrix in="blurOut" result="blurOut2" type="matrix" values="0 0 0 0 0 0 0 0 0 0 0 0 0 0 0 0 0 0 .4 0"/><feOffset dx="4.0" dy="4.0" in="blurOut2" result="blurOut3"/><feBlend in="SourceGraphic" in2="blurOut3" mode="normal"/></filter></defs><g><!--class StatisticalReportTableTypeDto--><a target="_top" xlink:actuate="onRequest" xlink:href="StatisticalReportTableTypeDto.html" xlink:show="new" xlink:title="StatisticalReportTableTypeDto.html" xlink:type="simple"><rect fill="#FEFECE" filter="url(#fumpcss0selns)" height="125.7305" id="StatisticalReportTableTypeDto" style="stroke: #A80036; stroke-width: 1.5;" width="262" x="6" y="8"/><ellipse cx="46.2" cy="24" fill="#ADD1B2" rx="11" ry="11" style="stroke: #A80036; stroke-width: 1.0;"/><path d="M49.1731,29.6431 Q48.5921,29.9419 47.9529,30.0913 Q47.3138,30.2407 46.6082,30.2407 Q44.1014,30.2407 42.7815,28.5889 Q41.4617,26.937 41.4617,23.8159 Q41.4617,20.6865 42.7815,19.0347 Q44.1014,17.3828 46.6082,17.3828 Q47.3138,17.3828 47.9612,17.5322 Q48.6087,17.6816 49.1731,17.9805 L49.1731,20.7031 Q48.5423,20.1221 47.9488,19.8523 Q47.3553,19.5825 46.7244,19.5825 Q45.3797,19.5825 44.6949,20.6492 Q44.0101,21.7158 44.0101,23.8159 Q44.0101,25.9077 44.6949,26.9744 Q45.3797,28.041 46.7244,28.041 Q47.3553,28.041 47.9488,27.7712 Q48.5423,27.5015 49.1731,26.9204 Z "/><text fill="#000000" font-family="sans-serif" font-size="12" lengthAdjust="spacingAndGlyphs" textLength="174" x="65.8" y="28.5352">StatisticalReportTableTypeDto</text><line style="stroke: #A80036; stroke-width: 1.5;" x1="7" x2="267" y1="40" y2="40"/><line style="stroke: #A80036; stroke-width: 1.5;" x1="7" x2="267" y1="48" y2="48"/><ellipse cx="17" cy="59.9775" fill="#84BE84" rx="3" ry="3" style="stroke: #038048; stroke-width: 1.0;"/><text fill="#000000" font-family="sans-serif" font-size="11" lengthAdjust="spacingAndGlyphs" textLength="169" x="26" y="62.6348">StatisticalReportTableTypeDto()</text><ellipse cx="17" cy="72.9326" fill="#84BE84" rx="3" ry="3" style="stroke: #038048; stroke-width: 1.0;"/><text fill="#000000" font-family="sans-serif" font-size="11" lengthAdjust="spacingAndGlyphs" textLength="214" x="26" y="75.5898">getColumnHeaderLabels(): List&lt;String&gt;</text><ellipse cx="17" cy="85.8877" fill="#84BE84" rx="3" ry="3" style="stroke: #038048; stroke-width: 1.0;"/><text fill="#000000" font-family="sans-serif" font-size="11" lengthAdjust="spacingAndGlyphs" textLength="236" x="26" y="88.5449">setColumnHeaderLabels(List&lt;String&gt;): void</text><ellipse cx="17" cy="98.8428" fill="#84BE84" rx="3" ry="3" style="stroke: #038048; stroke-width: 1.0;"/><text fill="#000000" font-family="sans-serif" font-size="11" lengthAdjust="spacingAndGlyphs" textLength="208" x="26" y="101.5">getColumnExpressions(): List&lt;String&gt;</text><ellipse cx="17" cy="111.7979" fill="#84BE84" rx="3" ry="3" style="stroke: #038048; stroke-width: 1.0;"/><text fill="#000000" font-family="sans-serif" font-size="11" lengthAdjust="spacingAndGlyphs" textLength="230" x="26" y="114.4551">setColumnExpressions(List&lt;String&gt;): void</text><ellipse cx="17" cy="124.7529" fill="#84BE84" rx="3" ry="3" style="stroke: #038048; stroke-width: 1.0;"/><text fill="#000000" font-family="sans-serif" font-size="11" lengthAdjust="spacingAndGlyphs" textLength="236" x="26" y="127.4102">createCopy(): StatisticalReportTableTypeDto</text></a><!--
@startuml

    class StatisticalReportTableTypeDto [[StatisticalReportTableTypeDto.html]] {
        +StatisticalReportTableTypeDto()
        +getColumnHeaderLabels(): List<String>
        +setColumnHeaderLabels(List<String>): void
        +getColumnExpressions(): List<String>
        +setColumnExpressions(List<String>): void
        +createCopy(): StatisticalReportTableTypeDto
    }

@enduml

PlantUML version 1.2018.08(Sun Jun 24 14:31:00 CEST 2018)
(APACHE source distribution)
Java Runtime: Java(TM) SE Runtime Environment
JVM: Java HotSpot(TM) 64-Bit Server VM
Java Version: 1.8.0_151-b12
Operating System: Mac OS X
OS Version: 10.13.6
Default Encoding: UTF-8
Language: en
Country: US
--></g></svg>