<?xml version="1.0" encoding="UTF-8" standalone="no"?><svg xmlns="http://www.w3.org/2000/svg" xmlns:xlink="http://www.w3.org/1999/xlink" contentScriptType="application/ecmascript" contentStyleType="text/css" height="124px" preserveAspectRatio="none" style="width:238px;height:124px;" version="1.1" viewBox="0 0 238 124" width="238px" zoomAndPan="magnify"><defs><filter height="300%" id="f10r8hh93xqot7" width="300%" x="-1" y="-1"><feGaussianBlur result="blurOut" stdDeviation="2.0"/><feColorMatrix in="blurOut" result="blurOut2" type="matrix" values="0 0 0 0 0 0 0 0 0 0 0 0 0 0 0 0 0 0 .4 0"/><feOffset dx="4.0" dy="4.0" in="blurOut2" result="blurOut3"/><feBlend in="SourceGraphic" in2="blurOut3" mode="normal"/></filter></defs><g><!--cluster StatisticalReportTableDto--><polygon fill="#FFFFFF" filter="url(#f10r8hh93xqot7)" points="14,16,206,16,213,38.4883,216,38.4883,216,112,14,112,14,16" style="stroke: #000000; stroke-width: 1.5;"/><line style="stroke: #000000; stroke-width: 1.5;" x1="14" x2="213" y1="38.4883" y2="38.4883"/><text fill="#000000" font-family="sans-serif" font-size="14" font-weight="bold" lengthAdjust="spacingAndGlyphs" textLength="186" x="18" y="31.5352">StatisticalReportTableDto</text><!--class StatisticalReportTableDto.Entry--><a target="_top" xlink:actuate="onRequest" xlink:href="StatisticalReportTableDto.Entry.html" xlink:show="new" xlink:title="StatisticalReportTableDto.Entry.html" xlink:type="simple"><rect fill="#FEFECE" filter="url(#f10r8hh93xqot7)" height="60.9551" id="StatisticalReportTableDto.Entry" style="stroke: #A80036; stroke-width: 1.5;" width="105" x="62.5" y="43"/><ellipse cx="97.3" cy="59" fill="#ADD1B2" rx="11" ry="11" style="stroke: #A80036; stroke-width: 1.0;"/><path d="M100.2731,64.6431 Q99.6921,64.9419 99.0529,65.0913 Q98.4138,65.2407 97.7082,65.2407 Q95.2014,65.2407 93.8815,63.5889 Q92.5617,61.937 92.5617,58.8159 Q92.5617,55.6865 93.8815,54.0347 Q95.2014,52.3828 97.7082,52.3828 Q98.4138,52.3828 99.0612,52.5322 Q99.7087,52.6816 100.2731,52.9805 L100.2731,55.7031 Q99.6423,55.1221 99.0488,54.8523 Q98.4553,54.5825 97.8244,54.5825 Q96.4797,54.5825 95.7949,55.6492 Q95.1101,56.7158 95.1101,58.8159 Q95.1101,60.9077 95.7949,61.9744 Q96.4797,63.041 97.8244,63.041 Q98.4553,63.041 99.0488,62.7712 Q99.6423,62.5015 100.2731,61.9204 Z "/><text fill="#000000" font-family="sans-serif" font-size="12" lengthAdjust="spacingAndGlyphs" textLength="29" x="115.7" y="63.5352">Entry</text><line style="stroke: #A80036; stroke-width: 1.5;" x1="63.5" x2="166.5" y1="75" y2="75"/><line style="stroke: #A80036; stroke-width: 1.5;" x1="63.5" x2="166.5" y1="83" y2="83"/><ellipse cx="73.5" cy="94.9775" fill="#84BE84" rx="3" ry="3" style="stroke: #038048; stroke-width: 1.0;"/><text fill="#000000" font-family="sans-serif" font-size="11" lengthAdjust="spacingAndGlyphs" textLength="79" x="82.5" y="97.6348">Entry(Object[])</text></a><!--
@startuml

    class StatisticalReportTableDto.Entry [[StatisticalReportTableDto.Entry.html]] {
        +Entry(Object[])
    }

@enduml

PlantUML version 1.2018.08(Sun Jun 24 14:31:00 CEST 2018)
(APACHE source distribution)
Java Runtime: Java(TM) SE Runtime Environment
JVM: Java HotSpot(TM) 64-Bit Server VM
Java Version: 1.8.0_151-b12
Operating System: Mac OS X
OS Version: 10.13.6
Default Encoding: UTF-8
Language: en
Country: US
--></g></svg>