<?xml version="1.0" encoding="UTF-8" standalone="no"?><svg xmlns="http://www.w3.org/2000/svg" xmlns:xlink="http://www.w3.org/1999/xlink" contentScriptType="application/ecmascript" contentStyleType="text/css" height="313px" preserveAspectRatio="none" style="width:311px;height:313px;" version="1.1" viewBox="0 0 311 313" width="311px" zoomAndPan="magnify"><defs><filter height="300%" id="f143ascci0097g" width="300%" x="-1" y="-1"><feGaussianBlur result="blurOut" stdDeviation="2.0"/><feColorMatrix in="blurOut" result="blurOut2" type="matrix" values="0 0 0 0 0 0 0 0 0 0 0 0 0 0 0 0 0 0 .4 0"/><feOffset dx="4.0" dy="4.0" in="blurOut2" result="blurOut3"/><feBlend in="SourceGraphic" in2="blurOut3" mode="normal"/></filter></defs><g><!--class CachedRemoteResource--><a target="_top" xlink:actuate="onRequest" xlink:href="CachedRemoteResource.html" xlink:show="new" xlink:title="CachedRemoteResource.html" xlink:type="simple"><rect fill="#FEFECE" filter="url(#f143ascci0097g)" height="294.1465" id="CachedRemoteResource" style="stroke: #A80036; stroke-width: 1.5;" width="294" x="6" y="8"/><ellipse cx="78.75" cy="24" fill="#ADD1B2" rx="11" ry="11" style="stroke: #A80036; stroke-width: 1.0;"/><path d="M81.7231,29.6431 Q81.1421,29.9419 80.5029,30.0913 Q79.8638,30.2407 79.1582,30.2407 Q76.6514,30.2407 75.3315,28.5889 Q74.0117,26.937 74.0117,23.8159 Q74.0117,20.6865 75.3315,19.0347 Q76.6514,17.3828 79.1582,17.3828 Q79.8638,17.3828 80.5112,17.5322 Q81.1587,17.6816 81.7231,17.9805 L81.7231,20.7031 Q81.0923,20.1221 80.4988,19.8523 Q79.9053,19.5825 79.2744,19.5825 Q77.9297,19.5825 77.2449,20.6492 Q76.5601,21.7158 76.5601,23.8159 Q76.5601,25.9077 77.2449,26.9744 Q77.9297,28.041 79.2744,28.041 Q79.9053,28.041 80.4988,27.7712 Q81.0923,27.5015 81.7231,26.9204 Z "/><text fill="#000000" font-family="sans-serif" font-size="12" lengthAdjust="spacingAndGlyphs" textLength="140" x="99.25" y="28.5352">CachedRemoteResource</text><line style="stroke: #A80036; stroke-width: 1.5;" x1="7" x2="299" y1="40" y2="40"/><polygon fill="none" points="17,46.9775,21,50.9775,17,54.9775,13,50.9775" style="stroke: #B38D22; stroke-width: 1.0;"/><text fill="#000000" font-family="sans-serif" font-size="11" lengthAdjust="spacingAndGlyphs" textLength="142" x="26" y="54.6348">wrapped: RemoteResource</text><line style="stroke: #A80036; stroke-width: 1.5;" x1="7" x2="299" y1="60.9551" y2="60.9551"/><polygon fill="#FFFF44" points="17,67.9326,21,71.9326,17,75.9326,13,71.9326" style="stroke: #B38D22; stroke-width: 1.0;"/><text fill="#000000" font-family="sans-serif" font-size="11" lengthAdjust="spacingAndGlyphs" textLength="268" x="26" y="75.5898">CachedRemoteResource(CachedRemoteResource)</text><ellipse cx="17" cy="85.8877" fill="#84BE84" rx="3" ry="3" style="stroke: #038048; stroke-width: 1.0;"/><text fill="#000000" font-family="sans-serif" font-size="11" lengthAdjust="spacingAndGlyphs" textLength="123" x="26" y="88.5449">getFromCache(): byte[]</text><ellipse cx="17" cy="98.8428" fill="#84BE84" rx="3" ry="3" style="stroke: #038048; stroke-width: 1.0;"/><text fill="#000000" font-family="sans-serif" font-size="11" lengthAdjust="spacingAndGlyphs" textLength="137" x="26" y="101.5">getFromCache(int): byte[]</text><ellipse cx="17" cy="111.7979" fill="#84BE84" rx="3" ry="3" style="stroke: #038048; stroke-width: 1.0;"/><text fill="#000000" font-family="sans-serif" font-size="11" lengthAdjust="spacingAndGlyphs" textLength="87" x="26" y="114.4551">recache(): byte[]</text><ellipse cx="17" cy="124.7529" fill="#84BE84" rx="3" ry="3" style="stroke: #038048; stroke-width: 1.0;"/><text fill="#000000" font-family="sans-serif" font-size="11" lengthAdjust="spacingAndGlyphs" textLength="101" x="26" y="127.4102">recache(int): byte[]</text><ellipse cx="17" cy="137.708" fill="#84BE84" rx="3" ry="3" style="stroke: #038048; stroke-width: 1.0;"/><text fill="#000000" font-family="sans-serif" font-size="11" lengthAdjust="spacingAndGlyphs" textLength="143" x="26" y="140.3652">openStream(): InputStream</text><ellipse cx="17" cy="150.6631" fill="#84BE84" rx="3" ry="3" style="stroke: #038048; stroke-width: 1.0;"/><text fill="#000000" font-family="sans-serif" font-size="11" lengthAdjust="spacingAndGlyphs" textLength="93" x="26" y="153.3203">getName(): String</text><ellipse cx="17" cy="163.6182" fill="#84BE84" rx="3" ry="3" style="stroke: #038048; stroke-width: 1.0;"/><text fill="#000000" font-family="sans-serif" font-size="11" lengthAdjust="spacingAndGlyphs" textLength="65" x="26" y="166.2754">getUri(): URI</text><ellipse cx="17" cy="176.5732" fill="#84BE84" rx="3" ry="3" style="stroke: #038048; stroke-width: 1.0;"/><text fill="#000000" font-family="sans-serif" font-size="11" lengthAdjust="spacingAndGlyphs" textLength="135" x="26" y="179.2305">getContentLength(): long</text><ellipse cx="17" cy="189.5283" fill="#84BE84" rx="3" ry="3" style="stroke: #038048; stroke-width: 1.0;"/><text fill="#000000" font-family="sans-serif" font-size="11" lengthAdjust="spacingAndGlyphs" textLength="90" x="26" y="192.1855">getBytes(): byte[]</text><ellipse cx="17" cy="202.4834" fill="#84BE84" rx="3" ry="3" style="stroke: #038048; stroke-width: 1.0;"/><text fill="#000000" font-family="sans-serif" font-size="11" lengthAdjust="spacingAndGlyphs" textLength="89" x="26" y="205.1406">exists(): boolean</text><ellipse cx="17" cy="215.4385" fill="#84BE84" rx="3" ry="3" style="stroke: #038048; stroke-width: 1.0;"/><text fill="#000000" font-family="sans-serif" font-size="11" lengthAdjust="spacingAndGlyphs" textLength="157" x="26" y="218.0957">openStream(int): InputStream</text><ellipse cx="17" cy="228.3936" fill="#84BE84" rx="3" ry="3" style="stroke: #038048; stroke-width: 1.0;"/><text fill="#000000" font-family="sans-serif" font-size="11" lengthAdjust="spacingAndGlyphs" textLength="104" x="26" y="231.0508">getBytes(int): byte[]</text><ellipse cx="17" cy="241.3486" fill="#84BE84" rx="3" ry="3" style="stroke: #038048; stroke-width: 1.0;"/><text fill="#000000" font-family="sans-serif" font-size="11" lengthAdjust="spacingAndGlyphs" textLength="245" x="26" y="244.0059">getModificationCheck(): UriModificationCheck</text><ellipse cx="17" cy="254.3037" fill="#84BE84" rx="3" ry="3" style="stroke: #038048; stroke-width: 1.0;"/><text fill="#000000" font-family="sans-serif" font-size="11" lengthAdjust="spacingAndGlyphs" textLength="216" x="26" y="256.9609">isModificationCheckInitialized(): boolean</text><ellipse cx="17" cy="267.2588" fill="#84BE84" rx="3" ry="3" style="stroke: #038048; stroke-width: 1.0;"/><text fill="#000000" font-family="sans-serif" font-size="11" lengthAdjust="spacingAndGlyphs" textLength="152" x="26" y="269.916">recacheIfModified(): boolean</text><ellipse cx="17" cy="280.2139" fill="#84BE84" rx="3" ry="3" style="stroke: #038048; stroke-width: 1.0;"/><text fill="#000000" font-family="sans-serif" font-size="11" lengthAdjust="spacingAndGlyphs" textLength="75" x="26" y="282.8711">release(): void</text><ellipse cx="17" cy="293.1689" fill="#84BE84" rx="3" ry="3" style="stroke: #038048; stroke-width: 1.0;"/><text fill="#000000" font-family="sans-serif" font-size="11" lengthAdjust="spacingAndGlyphs" textLength="205" x="26" y="295.8262">createCopy(): CachedRemoteResource</text></a><!--
@startuml

    class CachedRemoteResource [[CachedRemoteResource.html]] {
        #wrapped: RemoteResource
        #CachedRemoteResource(CachedRemoteResource)
        +getFromCache(): byte[]
        +getFromCache(int): byte[]
        +recache(): byte[]
        +recache(int): byte[]
        +openStream(): InputStream
        +getName(): String
        +getUri(): URI
        +getContentLength(): long
        +getBytes(): byte[]
        +exists(): boolean
        +openStream(int): InputStream
        +getBytes(int): byte[]
        +getModificationCheck(): UriModificationCheck
        +isModificationCheckInitialized(): boolean
        +recacheIfModified(): boolean
        +release(): void
        +createCopy(): CachedRemoteResource
    }

@enduml

PlantUML version 1.2018.08(Sun Jun 24 14:31:00 CEST 2018)
(APACHE source distribution)
Java Runtime: Java(TM) SE Runtime Environment
JVM: Java HotSpot(TM) 64-Bit Server VM
Java Version: 1.8.0_151-b12
Operating System: Mac OS X
OS Version: 10.13.6
Default Encoding: UTF-8
Language: en
Country: US
--></g></svg>