<?xml version="1.0" encoding="UTF-8" standalone="no"?><svg xmlns="http://www.w3.org/2000/svg" xmlns:xlink="http://www.w3.org/1999/xlink" contentScriptType="application/ecmascript" contentStyleType="text/css" height="261px" preserveAspectRatio="none" style="width:307px;height:261px;" version="1.1" viewBox="0 0 307 261" width="307px" zoomAndPan="magnify"><defs><filter height="300%" id="f14380hzl515yi" width="300%" x="-1" y="-1"><feGaussianBlur result="blurOut" stdDeviation="2.0"/><feColorMatrix in="blurOut" result="blurOut2" type="matrix" values="0 0 0 0 0 0 0 0 0 0 0 0 0 0 0 0 0 0 .4 0"/><feOffset dx="4.0" dy="4.0" in="blurOut2" result="blurOut3"/><feBlend in="SourceGraphic" in2="blurOut3" mode="normal"/></filter></defs><g><!--class SecuredRemoteResource--><a target="_top" xlink:actuate="onRequest" xlink:href="SecuredRemoteResource.html" xlink:show="new" xlink:title="SecuredRemoteResource.html" xlink:type="simple"><rect fill="#FEFECE" filter="url(#f14380hzl515yi)" height="242.3262" id="SecuredRemoteResource" style="stroke: #A80036; stroke-width: 1.5;" width="290" x="6" y="8"/><ellipse cx="75.25" cy="24" fill="#ADD1B2" rx="11" ry="11" style="stroke: #A80036; stroke-width: 1.0;"/><path d="M78.2231,29.6431 Q77.6421,29.9419 77.0029,30.0913 Q76.3638,30.2407 75.6582,30.2407 Q73.1514,30.2407 71.8315,28.5889 Q70.5117,26.937 70.5117,23.8159 Q70.5117,20.6865 71.8315,19.0347 Q73.1514,17.3828 75.6582,17.3828 Q76.3638,17.3828 77.0112,17.5322 Q77.6587,17.6816 78.2231,17.9805 L78.2231,20.7031 Q77.5923,20.1221 76.9988,19.8523 Q76.4053,19.5825 75.7744,19.5825 Q74.4297,19.5825 73.7449,20.6492 Q73.0601,21.7158 73.0601,23.8159 Q73.0601,25.9077 73.7449,26.9744 Q74.4297,28.041 75.7744,28.041 Q76.4053,28.041 76.9988,27.7712 Q77.5923,27.5015 78.2231,26.9204 Z "/><text fill="#000000" font-family="sans-serif" font-size="12" lengthAdjust="spacingAndGlyphs" textLength="143" x="95.75" y="28.5352">SecuredRemoteResource</text><line style="stroke: #A80036; stroke-width: 1.5;" x1="7" x2="295" y1="40" y2="40"/><polygon fill="none" points="17,46.9775,21,50.9775,17,54.9775,13,50.9775" style="stroke: #B38D22; stroke-width: 1.0;"/><text fill="#000000" font-family="sans-serif" font-size="11" lengthAdjust="spacingAndGlyphs" textLength="39" x="26" y="54.6348">uri: URI</text><line style="stroke: #A80036; stroke-width: 1.5;" x1="7" x2="295" y1="60.9551" y2="60.9551"/><ellipse cx="17" cy="72.9326" fill="#84BE84" rx="3" ry="3" style="stroke: #038048; stroke-width: 1.0;"/><text fill="#000000" font-family="sans-serif" font-size="11" lengthAdjust="spacingAndGlyphs" textLength="264" x="26" y="75.5898">SecuredRemoteResource(String, Credentials, URI)</text><ellipse cx="17" cy="85.8877" fill="#84BE84" rx="3" ry="3" style="stroke: #038048; stroke-width: 1.0;"/><text fill="#000000" font-family="sans-serif" font-size="11" lengthAdjust="spacingAndGlyphs" textLength="191" x="26" y="88.5449">SecuredRemoteResource(Resource)</text><ellipse cx="17" cy="98.8428" fill="#84BE84" rx="3" ry="3" style="stroke: #038048; stroke-width: 1.0;"/><text fill="#000000" font-family="sans-serif" font-size="11" lengthAdjust="spacingAndGlyphs" textLength="216" x="26" y="101.5">isModificationCheckInitialized(): boolean</text><ellipse cx="17" cy="111.7979" fill="#84BE84" rx="3" ry="3" style="stroke: #038048; stroke-width: 1.0;"/><text fill="#000000" font-family="sans-serif" font-size="11" lengthAdjust="spacingAndGlyphs" textLength="93" x="26" y="114.4551">getName(): String</text><ellipse cx="17" cy="124.7529" fill="#84BE84" rx="3" ry="3" style="stroke: #038048; stroke-width: 1.0;"/><text fill="#000000" font-family="sans-serif" font-size="11" lengthAdjust="spacingAndGlyphs" textLength="65" x="26" y="127.4102">getUri(): URI</text><ellipse cx="17" cy="137.708" fill="#84BE84" rx="3" ry="3" style="stroke: #038048; stroke-width: 1.0;"/><text fill="#000000" font-family="sans-serif" font-size="11" lengthAdjust="spacingAndGlyphs" textLength="135" x="26" y="140.3652">getContentLength(): long</text><ellipse cx="17" cy="150.6631" fill="#84BE84" rx="3" ry="3" style="stroke: #038048; stroke-width: 1.0;"/><text fill="#000000" font-family="sans-serif" font-size="11" lengthAdjust="spacingAndGlyphs" textLength="143" x="26" y="153.3203">openStream(): InputStream</text><ellipse cx="17" cy="163.6182" fill="#84BE84" rx="3" ry="3" style="stroke: #038048; stroke-width: 1.0;"/><text fill="#000000" font-family="sans-serif" font-size="11" lengthAdjust="spacingAndGlyphs" textLength="157" x="26" y="166.2754">openStream(int): InputStream</text><ellipse cx="17" cy="176.5732" fill="#84BE84" rx="3" ry="3" style="stroke: #038048; stroke-width: 1.0;"/><text fill="#000000" font-family="sans-serif" font-size="11" lengthAdjust="spacingAndGlyphs" textLength="90" x="26" y="179.2305">getBytes(): byte[]</text><ellipse cx="17" cy="189.5283" fill="#84BE84" rx="3" ry="3" style="stroke: #038048; stroke-width: 1.0;"/><text fill="#000000" font-family="sans-serif" font-size="11" lengthAdjust="spacingAndGlyphs" textLength="104" x="26" y="192.1855">getBytes(int): byte[]</text><ellipse cx="17" cy="202.4834" fill="#84BE84" rx="3" ry="3" style="stroke: #038048; stroke-width: 1.0;"/><text fill="#000000" font-family="sans-serif" font-size="11" lengthAdjust="spacingAndGlyphs" textLength="89" x="26" y="205.1406">exists(): boolean</text><ellipse cx="17" cy="215.4385" fill="#84BE84" rx="3" ry="3" style="stroke: #038048; stroke-width: 1.0;"/><text fill="#000000" font-family="sans-serif" font-size="11" lengthAdjust="spacingAndGlyphs" textLength="245" x="26" y="218.0957">getModificationCheck(): UriModificationCheck</text><ellipse cx="17" cy="228.3936" fill="#84BE84" rx="3" ry="3" style="stroke: #038048; stroke-width: 1.0;"/><text fill="#000000" font-family="sans-serif" font-size="11" lengthAdjust="spacingAndGlyphs" textLength="75" x="26" y="231.0508">release(): void</text><ellipse cx="17" cy="241.3486" fill="#84BE84" rx="3" ry="3" style="stroke: #038048; stroke-width: 1.0;"/><text fill="#000000" font-family="sans-serif" font-size="11" lengthAdjust="spacingAndGlyphs" textLength="208" x="26" y="244.0059">createCopy(): SecuredRemoteResource</text></a><!--
@startuml

    class SecuredRemoteResource [[SecuredRemoteResource.html]] {
        #uri: URI
        +SecuredRemoteResource(String, Credentials, URI)
        +SecuredRemoteResource(Resource)
        +isModificationCheckInitialized(): boolean
        +getName(): String
        +getUri(): URI
        +getContentLength(): long
        +openStream(): InputStream
        +openStream(int): InputStream
        +getBytes(): byte[]
        +getBytes(int): byte[]
        +exists(): boolean
        +getModificationCheck(): UriModificationCheck
        +release(): void
        +createCopy(): SecuredRemoteResource
    }

@enduml

PlantUML version 1.2018.08(Sun Jun 24 14:31:00 CEST 2018)
(APACHE source distribution)
Java Runtime: Java(TM) SE Runtime Environment
JVM: Java HotSpot(TM) 64-Bit Server VM
Java Version: 1.8.0_151-b12
Operating System: Mac OS X
OS Version: 10.13.6
Default Encoding: UTF-8
Language: en
Country: US
--></g></svg>