<?xml version="1.0" encoding="UTF-8" standalone="no"?><svg xmlns="http://www.w3.org/2000/svg" xmlns:xlink="http://www.w3.org/1999/xlink" contentScriptType="application/ecmascript" contentStyleType="text/css" height="274px" preserveAspectRatio="none" style="width:288px;height:274px;" version="1.1" viewBox="0 0 288 274" width="288px" zoomAndPan="magnify"><defs><filter height="300%" id="fdf1d68qpjk5l" width="300%" x="-1" y="-1"><feGaussianBlur result="blurOut" stdDeviation="2.0"/><feColorMatrix in="blurOut" result="blurOut2" type="matrix" values="0 0 0 0 0 0 0 0 0 0 0 0 0 0 0 0 0 0 .4 0"/><feOffset dx="4.0" dy="4.0" in="blurOut2" result="blurOut3"/><feBlend in="SourceGraphic" in2="blurOut3" mode="normal"/></filter></defs><g><!--class StdRemoteResource--><a target="_top" xlink:actuate="onRequest" xlink:href="StdRemoteResource.html" xlink:show="new" xlink:title="StdRemoteResource.html" xlink:type="simple"><rect fill="#FEFECE" filter="url(#fdf1d68qpjk5l)" height="255.2813" id="StdRemoteResource" style="stroke: #A80036; stroke-width: 1.5;" width="271" x="6" y="8"/><ellipse cx="79.75" cy="24" fill="#ADD1B2" rx="11" ry="11" style="stroke: #A80036; stroke-width: 1.0;"/><path d="M82.7231,29.6431 Q82.1421,29.9419 81.5029,30.0913 Q80.8638,30.2407 80.1582,30.2407 Q77.6514,30.2407 76.3315,28.5889 Q75.0117,26.937 75.0117,23.8159 Q75.0117,20.6865 76.3315,19.0347 Q77.6514,17.3828 80.1582,17.3828 Q80.8638,17.3828 81.5112,17.5322 Q82.1587,17.6816 82.7231,17.9805 L82.7231,20.7031 Q82.0923,20.1221 81.4988,19.8523 Q80.9053,19.5825 80.2744,19.5825 Q78.9297,19.5825 78.2449,20.6492 Q77.5601,21.7158 77.5601,23.8159 Q77.5601,25.9077 78.2449,26.9744 Q78.9297,28.041 80.2744,28.041 Q80.9053,28.041 81.4988,27.7712 Q82.0923,27.5015 82.7231,26.9204 Z "/><text fill="#000000" font-family="sans-serif" font-size="12" lengthAdjust="spacingAndGlyphs" textLength="115" x="100.25" y="28.5352">StdRemoteResource</text><line style="stroke: #A80036; stroke-width: 1.5;" x1="7" x2="276" y1="40" y2="40"/><line style="stroke: #A80036; stroke-width: 1.5;" x1="7" x2="276" y1="48" y2="48"/><ellipse cx="17" cy="59.9775" fill="#84BE84" rx="3" ry="3" style="stroke: #038048; stroke-width: 1.0;"/><text fill="#000000" font-family="sans-serif" font-size="11" lengthAdjust="spacingAndGlyphs" textLength="171" x="26" y="62.6348">StdRemoteResource(String, URI)</text><ellipse cx="17" cy="72.9326" fill="#84BE84" rx="3" ry="3" style="stroke: #038048; stroke-width: 1.0;"/><text fill="#000000" font-family="sans-serif" font-size="11" lengthAdjust="spacingAndGlyphs" textLength="185" x="26" y="75.5898">StdRemoteResource(String, String)</text><ellipse cx="17" cy="85.8877" fill="#84BE84" rx="3" ry="3" style="stroke: #038048; stroke-width: 1.0;"/><text fill="#000000" font-family="sans-serif" font-size="11" lengthAdjust="spacingAndGlyphs" textLength="165" x="26" y="88.5449">StdRemoteResource(Resource)</text><ellipse cx="17" cy="98.8428" fill="#84BE84" rx="3" ry="3" style="stroke: #038048; stroke-width: 1.0;"/><text fill="#000000" font-family="sans-serif" font-size="11" lengthAdjust="spacingAndGlyphs" textLength="222" x="26" y="101.5">StdRemoteResource(StdRemoteResource)</text><ellipse cx="17" cy="111.7979" fill="#84BE84" rx="3" ry="3" style="stroke: #038048; stroke-width: 1.0;"/><text fill="#000000" font-family="sans-serif" font-size="11" lengthAdjust="spacingAndGlyphs" textLength="93" x="26" y="114.4551">getName(): String</text><ellipse cx="17" cy="124.7529" fill="#84BE84" rx="3" ry="3" style="stroke: #038048; stroke-width: 1.0;"/><text fill="#000000" font-family="sans-serif" font-size="11" lengthAdjust="spacingAndGlyphs" textLength="65" x="26" y="127.4102">getUri(): URI</text><ellipse cx="17" cy="137.708" fill="#84BE84" rx="3" ry="3" style="stroke: #038048; stroke-width: 1.0;"/><text fill="#000000" font-family="sans-serif" font-size="11" lengthAdjust="spacingAndGlyphs" textLength="135" x="26" y="140.3652">getContentLength(): long</text><ellipse cx="17" cy="150.6631" fill="#84BE84" rx="3" ry="3" style="stroke: #038048; stroke-width: 1.0;"/><text fill="#000000" font-family="sans-serif" font-size="11" lengthAdjust="spacingAndGlyphs" textLength="143" x="26" y="153.3203">openStream(): InputStream</text><ellipse cx="17" cy="163.6182" fill="#84BE84" rx="3" ry="3" style="stroke: #038048; stroke-width: 1.0;"/><text fill="#000000" font-family="sans-serif" font-size="11" lengthAdjust="spacingAndGlyphs" textLength="157" x="26" y="166.2754">openStream(int): InputStream</text><ellipse cx="17" cy="176.5732" fill="#84BE84" rx="3" ry="3" style="stroke: #038048; stroke-width: 1.0;"/><text fill="#000000" font-family="sans-serif" font-size="11" lengthAdjust="spacingAndGlyphs" textLength="90" x="26" y="179.2305">getBytes(): byte[]</text><ellipse cx="17" cy="189.5283" fill="#84BE84" rx="3" ry="3" style="stroke: #038048; stroke-width: 1.0;"/><text fill="#000000" font-family="sans-serif" font-size="11" lengthAdjust="spacingAndGlyphs" textLength="104" x="26" y="192.1855">getBytes(int): byte[]</text><ellipse cx="17" cy="202.4834" fill="#84BE84" rx="3" ry="3" style="stroke: #038048; stroke-width: 1.0;"/><text fill="#000000" font-family="sans-serif" font-size="11" lengthAdjust="spacingAndGlyphs" textLength="89" x="26" y="205.1406">exists(): boolean</text><ellipse cx="17" cy="215.4385" fill="#84BE84" rx="3" ry="3" style="stroke: #038048; stroke-width: 1.0;"/><text fill="#000000" font-family="sans-serif" font-size="11" lengthAdjust="spacingAndGlyphs" textLength="245" x="26" y="218.0957">getModificationCheck(): UriModificationCheck</text><ellipse cx="17" cy="228.3936" fill="#84BE84" rx="3" ry="3" style="stroke: #038048; stroke-width: 1.0;"/><text fill="#000000" font-family="sans-serif" font-size="11" lengthAdjust="spacingAndGlyphs" textLength="216" x="26" y="231.0508">isModificationCheckInitialized(): boolean</text><ellipse cx="17" cy="241.3486" fill="#84BE84" rx="3" ry="3" style="stroke: #038048; stroke-width: 1.0;"/><text fill="#000000" font-family="sans-serif" font-size="11" lengthAdjust="spacingAndGlyphs" textLength="75" x="26" y="244.0059">release(): void</text><ellipse cx="17" cy="254.3037" fill="#84BE84" rx="3" ry="3" style="stroke: #038048; stroke-width: 1.0;"/><text fill="#000000" font-family="sans-serif" font-size="11" lengthAdjust="spacingAndGlyphs" textLength="182" x="26" y="256.9609">createCopy(): StdRemoteResource</text></a><!--
@startuml

    class StdRemoteResource [[StdRemoteResource.html]] {
        +StdRemoteResource(String, URI)
        +StdRemoteResource(String, String)
        +StdRemoteResource(Resource)
        +StdRemoteResource(StdRemoteResource)
        +getName(): String
        +getUri(): URI
        +getContentLength(): long
        +openStream(): InputStream
        +openStream(int): InputStream
        +getBytes(): byte[]
        +getBytes(int): byte[]
        +exists(): boolean
        +getModificationCheck(): UriModificationCheck
        +isModificationCheckInitialized(): boolean
        +release(): void
        +createCopy(): StdRemoteResource
    }

@enduml

PlantUML version 1.2018.08(Sun Jun 24 14:31:00 CEST 2018)
(APACHE source distribution)
Java Runtime: Java(TM) SE Runtime Environment
JVM: Java HotSpot(TM) 64-Bit Server VM
Java Version: 1.8.0_151-b12
Operating System: Mac OS X
OS Version: 10.13.6
Default Encoding: UTF-8
Language: en
Country: US
--></g></svg>