<?xml version="1.0" encoding="UTF-8" standalone="no"?><svg xmlns="http://www.w3.org/2000/svg" xmlns:xlink="http://www.w3.org/1999/xlink" contentScriptType="application/ecmascript" contentStyleType="text/css" height="79px" preserveAspectRatio="none" style="width:183px;height:79px;" version="1.1" viewBox="0 0 183 79" width="183px" zoomAndPan="magnify"><defs><filter height="300%" id="fbb3e1a1crj3w" width="300%" x="-1" y="-1"><feGaussianBlur result="blurOut" stdDeviation="2.0"/><feColorMatrix in="blurOut" result="blurOut2" type="matrix" values="0 0 0 0 0 0 0 0 0 0 0 0 0 0 0 0 0 0 .4 0"/><feOffset dx="4.0" dy="4.0" in="blurOut2" result="blurOut3"/><feBlend in="SourceGraphic" in2="blurOut3" mode="normal"/></filter></defs><g><!--class IllegalEidException--><a target="_top" xlink:actuate="onRequest" xlink:href="IllegalEidException.html" xlink:show="new" xlink:title="IllegalEidException.html" xlink:type="simple"><rect fill="#FEFECE" filter="url(#fbb3e1a1crj3w)" height="60.9551" id="IllegalEidException" style="stroke: #A80036; stroke-width: 1.5;" width="166" x="6" y="8"/><ellipse cx="33.15" cy="24" fill="#ADD1B2" rx="11" ry="11" style="stroke: #A80036; stroke-width: 1.0;"/><path d="M36.1231,29.6431 Q35.5421,29.9419 34.9029,30.0913 Q34.2638,30.2407 33.5582,30.2407 Q31.0514,30.2407 29.7315,28.5889 Q28.4117,26.937 28.4117,23.8159 Q28.4117,20.6865 29.7315,19.0347 Q31.0514,17.3828 33.5582,17.3828 Q34.2638,17.3828 34.9112,17.5322 Q35.5587,17.6816 36.1231,17.9805 L36.1231,20.7031 Q35.4923,20.1221 34.8988,19.8523 Q34.3053,19.5825 33.6744,19.5825 Q32.3297,19.5825 31.6449,20.6492 Q30.9601,21.7158 30.9601,23.8159 Q30.9601,25.9077 31.6449,26.9744 Q32.3297,28.041 33.6744,28.041 Q34.3053,28.041 34.8988,27.7712 Q35.4923,27.5015 36.1231,26.9204 Z "/><text fill="#000000" font-family="sans-serif" font-size="12" lengthAdjust="spacingAndGlyphs" textLength="107" x="49.85" y="28.5352">IllegalEidException</text><line style="stroke: #A80036; stroke-width: 1.5;" x1="7" x2="171" y1="40" y2="40"/><line style="stroke: #A80036; stroke-width: 1.5;" x1="7" x2="171" y1="48" y2="48"/><ellipse cx="17" cy="59.9775" fill="#84BE84" rx="3" ry="3" style="stroke: #038048; stroke-width: 1.0;"/><text fill="#000000" font-family="sans-serif" font-size="11" lengthAdjust="spacingAndGlyphs" textLength="140" x="26" y="62.6348">IllegalEidException(String)</text></a><!--
@startuml

    class IllegalEidException [[IllegalEidException.html]] {
        +IllegalEidException(String)
    }

@enduml

PlantUML version 1.2018.08(Sun Jun 24 14:31:00 CEST 2018)
(APACHE source distribution)
Java Runtime: Java(TM) SE Runtime Environment
JVM: Java HotSpot(TM) 64-Bit Server VM
Java Version: 1.8.0_151-b12
Operating System: Mac OS X
OS Version: 10.13.6
Default Encoding: UTF-8
Language: en
Country: US
--></g></svg>