<?xml version="1.0" encoding="UTF-8" standalone="no"?><svg xmlns="http://www.w3.org/2000/svg" xmlns:xlink="http://www.w3.org/1999/xlink" contentScriptType="application/ecmascript" contentStyleType="text/css" height="232px" preserveAspectRatio="none" style="width:728px;height:232px;" version="1.1" viewBox="0 0 728 232" width="728px" zoomAndPan="magnify"><defs><filter height="300%" id="ffvo9qd9lmeuz" width="300%" x="-1" y="-1"><feGaussianBlur result="blurOut" stdDeviation="2.0"/><feColorMatrix in="blurOut" result="blurOut2" type="matrix" values="0 0 0 0 0 0 0 0 0 0 0 0 0 0 0 0 0 0 .4 0"/><feOffset dx="4.0" dy="4.0" in="blurOut2" result="blurOut3"/><feBlend in="SourceGraphic" in2="blurOut3" mode="normal"/></filter></defs><g><!--cluster de.interactive_instruments.etf.model.exceptions--><polygon fill="#FFFFFF" filter="url(#ffvo9qd9lmeuz)" points="14,124,362,124,369,146.4883,706,146.4883,706,220,14,220,14,124" style="stroke: #000000; stroke-width: 1.5;"/><line style="stroke: #000000; stroke-width: 1.5;" x1="14" x2="369" y1="146.4883" y2="146.4883"/><text fill="#000000" font-family="sans-serif" font-size="14" font-weight="bold" lengthAdjust="spacingAndGlyphs" textLength="342" x="18" y="139.5352">de.interactive_instruments.etf.model.exceptions</text><!--cluster java.lang--><polygon fill="#FFFFFF" filter="url(#ffvo9qd9lmeuz)" points="336,16,405,16,412,38.4883,653,38.4883,653,99,336,99,336,16" style="stroke: #000000; stroke-width: 1.5;"/><line style="stroke: #000000; stroke-width: 1.5;" x1="336" x2="412" y1="38.4883" y2="38.4883"/><text fill="#000000" font-family="sans-serif" font-size="14" font-weight="bold" lengthAdjust="spacingAndGlyphs" textLength="63" x="340" y="31.5352">java.lang</text><!--class de.interactive_instruments.etf.model.exceptions.IllegalEidException--><a target="_top" xlink:actuate="onRequest" xlink:href="IllegalEidException.html" xlink:show="new" xlink:title="IllegalEidException.html" xlink:type="simple"><rect fill="#FEFECE" filter="url(#ffvo9qd9lmeuz)" height="60.9551" id="de.interactive_instruments.etf.model.exceptions.IllegalEidException" style="stroke: #A80036; stroke-width: 1.5;" width="166" x="532" y="151"/><ellipse cx="559.15" cy="167" fill="#ADD1B2" rx="11" ry="11" style="stroke: #A80036; stroke-width: 1.0;"/><path d="M562.1231,172.6431 Q561.5421,172.9419 560.9029,173.0913 Q560.2638,173.2407 559.5582,173.2407 Q557.0514,173.2407 555.7315,171.5889 Q554.4117,169.937 554.4117,166.8159 Q554.4117,163.6865 555.7315,162.0347 Q557.0514,160.3828 559.5582,160.3828 Q560.2638,160.3828 560.9112,160.5322 Q561.5587,160.6816 562.1231,160.9805 L562.1231,163.7031 Q561.4923,163.1221 560.8988,162.8523 Q560.3053,162.5825 559.6744,162.5825 Q558.3297,162.5825 557.6449,163.6492 Q556.9601,164.7158 556.9601,166.8159 Q556.9601,168.9077 557.6449,169.9744 Q558.3297,171.041 559.6744,171.041 Q560.3053,171.041 560.8988,170.7712 Q561.4923,170.5015 562.1231,169.9204 Z "/><text fill="#000000" font-family="sans-serif" font-size="12" lengthAdjust="spacingAndGlyphs" textLength="107" x="575.85" y="171.5352">IllegalEidException</text><line style="stroke: #A80036; stroke-width: 1.5;" x1="533" x2="697" y1="183" y2="183"/><line style="stroke: #A80036; stroke-width: 1.5;" x1="533" x2="697" y1="191" y2="191"/><ellipse cx="543" cy="202.9775" fill="#84BE84" rx="3" ry="3" style="stroke: #038048; stroke-width: 1.0;"/><text fill="#000000" font-family="sans-serif" font-size="11" lengthAdjust="spacingAndGlyphs" textLength="140" x="552" y="205.6348">IllegalEidException(String)</text></a><!--class de.interactive_instruments.etf.model.exceptions.TestStepNotFoundException--><a target="_top" xlink:actuate="onRequest" xlink:href="TestStepNotFoundException.html" xlink:show="new" xlink:title="TestStepNotFoundException.html" xlink:type="simple"><rect fill="#FEFECE" filter="url(#ffvo9qd9lmeuz)" height="60.9551" id="de.interactive_instruments.etf.model.exceptions.TestStepNotFoundException" style="stroke: #A80036; stroke-width: 1.5;" width="218" x="279" y="151"/><ellipse cx="305.25" cy="167" fill="#ADD1B2" rx="11" ry="11" style="stroke: #A80036; stroke-width: 1.0;"/><path d="M308.2231,172.6431 Q307.6421,172.9419 307.0029,173.0913 Q306.3638,173.2407 305.6582,173.2407 Q303.1514,173.2407 301.8315,171.5889 Q300.5117,169.937 300.5117,166.8159 Q300.5117,163.6865 301.8315,162.0347 Q303.1514,160.3828 305.6582,160.3828 Q306.3638,160.3828 307.0112,160.5322 Q307.6587,160.6816 308.2231,160.9805 L308.2231,163.7031 Q307.5923,163.1221 306.9988,162.8523 Q306.4053,162.5825 305.7744,162.5825 Q304.4297,162.5825 303.7449,163.6492 Q303.0601,164.7158 303.0601,166.8159 Q303.0601,168.9077 303.7449,169.9744 Q304.4297,171.041 305.7744,171.041 Q306.4053,171.041 306.9988,170.7712 Q307.5923,170.5015 308.2231,169.9204 Z "/><text fill="#000000" font-family="sans-serif" font-size="12" lengthAdjust="spacingAndGlyphs" textLength="161" x="321.75" y="171.5352">TestStepNotFoundException</text><line style="stroke: #A80036; stroke-width: 1.5;" x1="280" x2="496" y1="183" y2="183"/><line style="stroke: #A80036; stroke-width: 1.5;" x1="280" x2="496" y1="191" y2="191"/><ellipse cx="290" cy="202.9775" fill="#84BE84" rx="3" ry="3" style="stroke: #038048; stroke-width: 1.0;"/><text fill="#000000" font-family="sans-serif" font-size="11" lengthAdjust="spacingAndGlyphs" textLength="192" x="299" y="205.6348">TestStepNotFoundException(String)</text></a><!--class de.interactive_instruments.etf.model.exceptions.TestCaseNotFoundException--><a target="_top" xlink:actuate="onRequest" xlink:href="TestCaseNotFoundException.html" xlink:show="new" xlink:title="TestCaseNotFoundException.html" xlink:type="simple"><rect fill="#FEFECE" filter="url(#ffvo9qd9lmeuz)" height="60.9551" id="de.interactive_instruments.etf.model.exceptions.TestCaseNotFoundException" style="stroke: #A80036; stroke-width: 1.5;" width="221" x="22.5" y="151"/><ellipse cx="48.75" cy="167" fill="#ADD1B2" rx="11" ry="11" style="stroke: #A80036; stroke-width: 1.0;"/><path d="M51.7231,172.6431 Q51.1421,172.9419 50.5029,173.0913 Q49.8638,173.2407 49.1582,173.2407 Q46.6514,173.2407 45.3315,171.5889 Q44.0117,169.937 44.0117,166.8159 Q44.0117,163.6865 45.3315,162.0347 Q46.6514,160.3828 49.1582,160.3828 Q49.8638,160.3828 50.5112,160.5322 Q51.1587,160.6816 51.7231,160.9805 L51.7231,163.7031 Q51.0923,163.1221 50.4988,162.8523 Q49.9053,162.5825 49.2744,162.5825 Q47.9297,162.5825 47.2449,163.6492 Q46.5601,164.7158 46.5601,166.8159 Q46.5601,168.9077 47.2449,169.9744 Q47.9297,171.041 49.2744,171.041 Q49.9053,171.041 50.4988,170.7712 Q51.0923,170.5015 51.7231,169.9204 Z "/><text fill="#000000" font-family="sans-serif" font-size="12" lengthAdjust="spacingAndGlyphs" textLength="164" x="65.25" y="171.5352">TestCaseNotFoundException</text><line style="stroke: #A80036; stroke-width: 1.5;" x1="23.5" x2="242.5" y1="183" y2="183"/><line style="stroke: #A80036; stroke-width: 1.5;" x1="23.5" x2="242.5" y1="191" y2="191"/><ellipse cx="33.5" cy="202.9775" fill="#84BE84" rx="3" ry="3" style="stroke: #038048; stroke-width: 1.0;"/><text fill="#000000" font-family="sans-serif" font-size="11" lengthAdjust="spacingAndGlyphs" textLength="195" x="42.5" y="205.6348">TestCaseNotFoundException(String)</text></a><!--class java.lang.IllegalArgumentException--><rect fill="#FEFECE" filter="url(#ffvo9qd9lmeuz)" height="48" id="java.lang.IllegalArgumentException" style="stroke: #A80036; stroke-width: 1.5;" width="177" x="467.5" y="43"/><ellipse cx="482.5" cy="59" fill="#ADD1B2" rx="11" ry="11" style="stroke: #A80036; stroke-width: 1.0;"/><path d="M485.4731,64.6431 Q484.8921,64.9419 484.2529,65.0913 Q483.6138,65.2407 482.9082,65.2407 Q480.4014,65.2407 479.0815,63.5889 Q477.7617,61.937 477.7617,58.8159 Q477.7617,55.6865 479.0815,54.0347 Q480.4014,52.3828 482.9082,52.3828 Q483.6138,52.3828 484.2612,52.5322 Q484.9087,52.6816 485.4731,52.9805 L485.4731,55.7031 Q484.8423,55.1221 484.2488,54.8523 Q483.6553,54.5825 483.0244,54.5825 Q481.6797,54.5825 480.9949,55.6492 Q480.3101,56.7158 480.3101,58.8159 Q480.3101,60.9077 480.9949,61.9744 Q481.6797,63.041 483.0244,63.041 Q483.6553,63.041 484.2488,62.7712 Q484.8423,62.5015 485.4731,61.9204 Z "/><text fill="#000000" font-family="sans-serif" font-size="12" lengthAdjust="spacingAndGlyphs" textLength="145" x="496.5" y="63.5352">IllegalArgumentException</text><line style="stroke: #A80036; stroke-width: 1.5;" x1="468.5" x2="643.5" y1="75" y2="75"/><line style="stroke: #A80036; stroke-width: 1.5;" x1="468.5" x2="643.5" y1="83" y2="83"/><!--class java.lang.Exception--><rect fill="#FEFECE" filter="url(#ffvo9qd9lmeuz)" height="48" id="java.lang.Exception" style="stroke: #A80036; stroke-width: 1.5;" width="88" x="344" y="43"/><ellipse cx="359" cy="59" fill="#ADD1B2" rx="11" ry="11" style="stroke: #A80036; stroke-width: 1.0;"/><path d="M361.9731,64.6431 Q361.3921,64.9419 360.7529,65.0913 Q360.1138,65.2407 359.4082,65.2407 Q356.9014,65.2407 355.5815,63.5889 Q354.2617,61.937 354.2617,58.8159 Q354.2617,55.6865 355.5815,54.0347 Q356.9014,52.3828 359.4082,52.3828 Q360.1138,52.3828 360.7612,52.5322 Q361.4087,52.6816 361.9731,52.9805 L361.9731,55.7031 Q361.3423,55.1221 360.7488,54.8523 Q360.1553,54.5825 359.5244,54.5825 Q358.1797,54.5825 357.4949,55.6492 Q356.8101,56.7158 356.8101,58.8159 Q356.8101,60.9077 357.4949,61.9744 Q358.1797,63.041 359.5244,63.041 Q360.1553,63.041 360.7488,62.7712 Q361.3423,62.5015 361.9731,61.9204 Z "/><text fill="#000000" font-family="sans-serif" font-size="12" lengthAdjust="spacingAndGlyphs" textLength="56" x="373" y="63.5352">Exception</text><line style="stroke: #A80036; stroke-width: 1.5;" x1="345" x2="431" y1="75" y2="75"/><line style="stroke: #A80036; stroke-width: 1.5;" x1="345" x2="431" y1="83" y2="83"/><!--link java.lang.IllegalArgumentException to de.interactive_instruments.etf.model.exceptions.IllegalEidException--><path d="M577.5691,108.8587 C584.7544,122.803 592.6177,138.0632 599.2745,150.9818 " fill="none" id="java.lang.IllegalArgumentException-de.interactive_instruments.etf.model.exceptions.IllegalEidException" style="stroke: #A80036; stroke-width: 1.0;"/><polygon fill="none" points="571.3069,111.9879,568.3683,91.003,583.7519,105.5751,571.3069,111.9879" style="stroke: #A80036; stroke-width: 1.0;"/><!--link java.lang.Exception to de.interactive_instruments.etf.model.exceptions.TestStepNotFoundException--><path d="M388,111.2477 C388,124.5296 388,138.7972 388,150.9818 " fill="none" id="java.lang.Exception-de.interactive_instruments.etf.model.exceptions.TestStepNotFoundException" style="stroke: #A80036; stroke-width: 1.0;"/><polygon fill="none" points="381.0001,111.003,388,91.003,395.0001,111.0029,381.0001,111.003" style="stroke: #A80036; stroke-width: 1.0;"/><!--link java.lang.Exception to de.interactive_instruments.etf.model.exceptions.TestCaseNotFoundException--><path d="M325.4698,95.0773 C287.7555,112.0118 239.6913,133.5935 201.0291,150.9536 " fill="none" id="java.lang.Exception-de.interactive_instruments.etf.model.exceptions.TestCaseNotFoundException" style="stroke: #A80036; stroke-width: 1.0;"/><polygon fill="none" points="322.761,88.6203,343.8735,86.8137,328.4957,101.3919,322.761,88.6203" style="stroke: #A80036; stroke-width: 1.0;"/><!--
@startuml

    namespace de.interactive_instruments.etf.model.exceptions {

        class IllegalEidException [[IllegalEidException.html]] {
            +IllegalEidException(String)
        }

        class TestStepNotFoundException [[TestStepNotFoundException.html]] {
            +TestStepNotFoundException(String)
        }

        class TestCaseNotFoundException [[TestCaseNotFoundException.html]] {
            +TestCaseNotFoundException(String)
        }

        class java.lang.IllegalArgumentException
        java.lang.IllegalArgumentException <|- - IllegalEidException

        class java.lang.Exception
        java.lang.Exception <|- - TestStepNotFoundException

        java.lang.Exception <|- - TestCaseNotFoundException

    }

@enduml

PlantUML version 1.2018.08(Sun Jun 24 14:31:00 CEST 2018)
(APACHE source distribution)
Java Runtime: Java(TM) SE Runtime Environment
JVM: Java HotSpot(TM) 64-Bit Server VM
Java Version: 1.8.0_151-b12
Operating System: Mac OS X
OS Version: 10.13.6
Default Encoding: UTF-8
Language: en
Country: US
--></g></svg>