<?xml version="1.0" encoding="UTF-8" standalone="no"?><svg xmlns="http://www.w3.org/2000/svg" xmlns:xlink="http://www.w3.org/1999/xlink" contentScriptType="application/ecmascript" contentStyleType="text/css" height="79px" preserveAspectRatio="none" style="width:238px;height:79px;" version="1.1" viewBox="0 0 238 79" width="238px" zoomAndPan="magnify"><defs><filter height="300%" id="ffyay9e0hezkt" width="300%" x="-1" y="-1"><feGaussianBlur result="blurOut" stdDeviation="2.0"/><feColorMatrix in="blurOut" result="blurOut2" type="matrix" values="0 0 0 0 0 0 0 0 0 0 0 0 0 0 0 0 0 0 .4 0"/><feOffset dx="4.0" dy="4.0" in="blurOut2" result="blurOut3"/><feBlend in="SourceGraphic" in2="blurOut3" mode="normal"/></filter></defs><g><!--class TestCaseNotFoundException--><a target="_top" xlink:actuate="onRequest" xlink:href="TestCaseNotFoundException.html" xlink:show="new" xlink:title="TestCaseNotFoundException.html" xlink:type="simple"><rect fill="#FEFECE" filter="url(#ffyay9e0hezkt)" height="60.9551" id="TestCaseNotFoundException" style="stroke: #A80036; stroke-width: 1.5;" width="221" x="6" y="8"/><ellipse cx="32.25" cy="24" fill="#ADD1B2" rx="11" ry="11" style="stroke: #A80036; stroke-width: 1.0;"/><path d="M35.2231,29.6431 Q34.6421,29.9419 34.0029,30.0913 Q33.3638,30.2407 32.6582,30.2407 Q30.1514,30.2407 28.8315,28.5889 Q27.5117,26.937 27.5117,23.8159 Q27.5117,20.6865 28.8315,19.0347 Q30.1514,17.3828 32.6582,17.3828 Q33.3638,17.3828 34.0112,17.5322 Q34.6587,17.6816 35.2231,17.9805 L35.2231,20.7031 Q34.5923,20.1221 33.9988,19.8523 Q33.4053,19.5825 32.7744,19.5825 Q31.4297,19.5825 30.7449,20.6492 Q30.0601,21.7158 30.0601,23.8159 Q30.0601,25.9077 30.7449,26.9744 Q31.4297,28.041 32.7744,28.041 Q33.4053,28.041 33.9988,27.7712 Q34.5923,27.5015 35.2231,26.9204 Z "/><text fill="#000000" font-family="sans-serif" font-size="12" lengthAdjust="spacingAndGlyphs" textLength="164" x="48.75" y="28.5352">TestCaseNotFoundException</text><line style="stroke: #A80036; stroke-width: 1.5;" x1="7" x2="226" y1="40" y2="40"/><line style="stroke: #A80036; stroke-width: 1.5;" x1="7" x2="226" y1="48" y2="48"/><ellipse cx="17" cy="59.9775" fill="#84BE84" rx="3" ry="3" style="stroke: #038048; stroke-width: 1.0;"/><text fill="#000000" font-family="sans-serif" font-size="11" lengthAdjust="spacingAndGlyphs" textLength="195" x="26" y="62.6348">TestCaseNotFoundException(String)</text></a><!--
@startuml

    class TestCaseNotFoundException [[TestCaseNotFoundException.html]] {
        +TestCaseNotFoundException(String)
    }

@enduml

PlantUML version 1.2018.08(Sun Jun 24 14:31:00 CEST 2018)
(APACHE source distribution)
Java Runtime: Java(TM) SE Runtime Environment
JVM: Java HotSpot(TM) 64-Bit Server VM
Java Version: 1.8.0_151-b12
Operating System: Mac OS X
OS Version: 10.13.6
Default Encoding: UTF-8
Language: en
Country: US
--></g></svg>