<?xml version="1.0" encoding="UTF-8" standalone="no"?><svg xmlns="http://www.w3.org/2000/svg" xmlns:xlink="http://www.w3.org/1999/xlink" contentScriptType="application/ecmascript" contentStyleType="text/css" height="284px" preserveAspectRatio="none" style="width:792px;height:284px;" version="1.1" viewBox="0 0 792 284" width="792px" zoomAndPan="magnify"><defs><filter height="300%" id="fptaa8x4ophh3" width="300%" x="-1" y="-1"><feGaussianBlur result="blurOut" stdDeviation="2.0"/><feColorMatrix in="blurOut" result="blurOut2" type="matrix" values="0 0 0 0 0 0 0 0 0 0 0 0 0 0 0 0 0 0 .4 0"/><feOffset dx="4.0" dy="4.0" in="blurOut2" result="blurOut3"/><feBlend in="SourceGraphic" in2="blurOut3" mode="normal"/></filter></defs><g><!--cluster de.interactive_instruments.etf.component--><polygon fill="#FFFFFF" filter="url(#fptaa8x4ophh3)" points="14,124,317,124,324,146.4883,770,146.4883,770,272,14,272,14,124" style="stroke: #000000; stroke-width: 1.5;"/><line style="stroke: #000000; stroke-width: 1.5;" x1="14" x2="324" y1="146.4883" y2="146.4883"/><text fill="#000000" font-family="sans-serif" font-size="14" font-weight="bold" lengthAdjust="spacingAndGlyphs" textLength="297" x="18" y="139.5352">de.interactive_instruments.etf.component</text><!--cluster java.lang--><polygon fill="#FFFFFF" filter="url(#fptaa8x4ophh3)" points="87,16,156,16,163,38.4883,197,38.4883,197,99,87,99,87,16" style="stroke: #000000; stroke-width: 1.5;"/><line style="stroke: #000000; stroke-width: 1.5;" x1="87" x2="163" y1="38.4883" y2="38.4883"/><text fill="#000000" font-family="sans-serif" font-size="14" font-weight="bold" lengthAdjust="spacingAndGlyphs" textLength="63" x="91" y="31.5352">java.lang</text><!--cluster de.interactive_instruments.exceptions--><polygon fill="#FFFFFF" filter="url(#fptaa8x4ophh3)" points="452,16,729,16,736,38.4883,739,38.4883,739,99,452,99,452,16" style="stroke: #000000; stroke-width: 1.5;"/><line style="stroke: #000000; stroke-width: 1.5;" x1="452" x2="736" y1="38.4883" y2="38.4883"/><text fill="#000000" font-family="sans-serif" font-size="14" font-weight="bold" lengthAdjust="spacingAndGlyphs" textLength="271" x="456" y="31.5352">de.interactive_instruments.exceptions</text><!--class de.interactive_instruments.etf.component.ComponentNotLoadedException--><a target="_top" xlink:actuate="onRequest" xlink:href="ComponentNotLoadedException.html" xlink:show="new" xlink:title="ComponentNotLoadedException.html" xlink:type="simple"><rect fill="#FEFECE" filter="url(#fptaa8x4ophh3)" height="60.9551" id="de.interactive_instruments.etf.component.ComponentNotLoadedException" style="stroke: #A80036; stroke-width: 1.5;" width="240" x="22" y="177"/><ellipse cx="47.35" cy="193" fill="#ADD1B2" rx="11" ry="11" style="stroke: #A80036; stroke-width: 1.0;"/><path d="M50.3231,198.6431 Q49.7421,198.9419 49.1029,199.0913 Q48.4638,199.2407 47.7582,199.2407 Q45.2514,199.2407 43.9315,197.5889 Q42.6117,195.937 42.6117,192.8159 Q42.6117,189.6865 43.9315,188.0347 Q45.2514,186.3828 47.7582,186.3828 Q48.4638,186.3828 49.1112,186.5322 Q49.7587,186.6816 50.3231,186.9805 L50.3231,189.7031 Q49.6923,189.1221 49.0988,188.8523 Q48.5053,188.5825 47.8744,188.5825 Q46.5297,188.5825 45.8449,189.6492 Q45.1601,190.7158 45.1601,192.8159 Q45.1601,194.9077 45.8449,195.9744 Q46.5297,197.041 47.8744,197.041 Q48.5053,197.041 49.0988,196.7712 Q49.6923,196.5015 50.3231,195.9204 Z "/><text fill="#000000" font-family="sans-serif" font-size="12" lengthAdjust="spacingAndGlyphs" textLength="185" x="63.65" y="197.5352">ComponentNotLoadedException</text><line style="stroke: #A80036; stroke-width: 1.5;" x1="23" x2="261" y1="209" y2="209"/><line style="stroke: #A80036; stroke-width: 1.5;" x1="23" x2="261" y1="217" y2="217"/><ellipse cx="33" cy="228.9775" fill="#84BE84" rx="3" ry="3" style="stroke: #038048; stroke-width: 1.0;"/><text fill="#000000" font-family="sans-serif" font-size="11" lengthAdjust="spacingAndGlyphs" textLength="214" x="42" y="231.6348">ComponentNotLoadedException(String)</text></a><!--class de.interactive_instruments.etf.component.ComponentInfo--><a target="_top" xlink:actuate="onRequest" xlink:href="ComponentInfo.html" xlink:show="new" xlink:title="ComponentInfo.html" xlink:type="simple"><rect fill="#FEFECE" filter="url(#fptaa8x4ophh3)" height="112.7754" id="de.interactive_instruments.etf.component.ComponentInfo" style="stroke: #A80036; stroke-width: 1.5;" width="151" x="297.5" y="151"/><ellipse cx="326.9" cy="167" fill="#B4A7E5" rx="11" ry="11" style="stroke: #A80036; stroke-width: 1.0;"/><path d="M322.8277,162.7651 L322.8277,160.6069 L330.2071,160.6069 L330.2071,162.7651 L327.7418,162.7651 L327.7418,170.8418 L330.2071,170.8418 L330.2071,173 L322.8277,173 L322.8277,170.8418 L325.2931,170.8418 L325.2931,162.7651 Z "/><text fill="#000000" font-family="sans-serif" font-size="12" font-style="italic" lengthAdjust="spacingAndGlyphs" textLength="87" x="344.1" y="171.5352">ComponentInfo</text><line style="stroke: #A80036; stroke-width: 1.5;" x1="298.5" x2="447.5" y1="183" y2="183"/><line style="stroke: #A80036; stroke-width: 1.5;" x1="298.5" x2="447.5" y1="191" y2="191"/><ellipse cx="308.5" cy="202.9775" fill="#84BE84" rx="3" ry="3" style="stroke: #038048; stroke-width: 1.0;"/><text fill="#000000" font-family="sans-serif" font-size="11" font-style="italic" lengthAdjust="spacingAndGlyphs" textLength="58" x="317.5" y="205.6348">getId(): EID</text><ellipse cx="308.5" cy="215.9326" fill="#84BE84" rx="3" ry="3" style="stroke: #038048; stroke-width: 1.0;"/><text fill="#000000" font-family="sans-serif" font-size="11" font-style="italic" lengthAdjust="spacingAndGlyphs" textLength="93" x="317.5" y="218.5898">getName(): String</text><ellipse cx="308.5" cy="228.8877" fill="#84BE84" rx="3" ry="3" style="stroke: #038048; stroke-width: 1.0;"/><text fill="#000000" font-family="sans-serif" font-size="11" font-style="italic" lengthAdjust="spacingAndGlyphs" textLength="104" x="317.5" y="231.5449">getVersion(): String</text><ellipse cx="308.5" cy="241.8428" fill="#84BE84" rx="3" ry="3" style="stroke: #038048; stroke-width: 1.0;"/><text fill="#000000" font-family="sans-serif" font-size="11" font-style="italic" lengthAdjust="spacingAndGlyphs" textLength="102" x="317.5" y="244.5">getVendor(): String</text><ellipse cx="308.5" cy="254.7979" fill="#84BE84" rx="3" ry="3" style="stroke: #038048; stroke-width: 1.0;"/><text fill="#000000" font-family="sans-serif" font-size="11" font-style="italic" lengthAdjust="spacingAndGlyphs" textLength="125" x="317.5" y="257.4551">getDescription(): String</text></a><!--class de.interactive_instruments.etf.component.ComponentLoadingException--><a target="_top" xlink:actuate="onRequest" xlink:href="ComponentLoadingException.html" xlink:show="new" xlink:title="ComponentLoadingException.html" xlink:type="simple"><rect fill="#FEFECE" filter="url(#fptaa8x4ophh3)" height="86.8652" id="de.interactive_instruments.etf.component.ComponentLoadingException" style="stroke: #A80036; stroke-width: 1.5;" width="278" x="484" y="164"/><ellipse cx="535.25" cy="180" fill="#ADD1B2" rx="11" ry="11" style="stroke: #A80036; stroke-width: 1.0;"/><path d="M538.2231,185.6431 Q537.6421,185.9419 537.0029,186.0913 Q536.3638,186.2407 535.6582,186.2407 Q533.1514,186.2407 531.8315,184.5889 Q530.5117,182.937 530.5117,179.8159 Q530.5117,176.6865 531.8315,175.0347 Q533.1514,173.3828 535.6582,173.3828 Q536.3638,173.3828 537.0112,173.5322 Q537.6587,173.6816 538.2231,173.9805 L538.2231,176.7031 Q537.5923,176.1221 536.9988,175.8523 Q536.4053,175.5825 535.7744,175.5825 Q534.4297,175.5825 533.7449,176.6492 Q533.0601,177.7158 533.0601,179.8159 Q533.0601,181.9077 533.7449,182.9744 Q534.4297,184.041 535.7744,184.041 Q536.4053,184.041 536.9988,183.7712 Q537.5923,183.5015 538.2231,182.9204 Z "/><text fill="#000000" font-family="sans-serif" font-size="12" lengthAdjust="spacingAndGlyphs" textLength="167" x="555.75" y="184.5352">ComponentLoadingException</text><line style="stroke: #A80036; stroke-width: 1.5;" x1="485" x2="761" y1="196" y2="196"/><line style="stroke: #A80036; stroke-width: 1.5;" x1="485" x2="761" y1="204" y2="204"/><ellipse cx="495" cy="215.9775" fill="#84BE84" rx="3" ry="3" style="stroke: #038048; stroke-width: 1.0;"/><text fill="#000000" font-family="sans-serif" font-size="11" lengthAdjust="spacingAndGlyphs" textLength="249" x="504" y="218.6348">ComponentLoadingException(Path, Exception)</text><ellipse cx="495" cy="228.9326" fill="#84BE84" rx="3" ry="3" style="stroke: #038048; stroke-width: 1.0;"/><text fill="#000000" font-family="sans-serif" font-size="11" lengthAdjust="spacingAndGlyphs" textLength="252" x="504" y="231.5898">ComponentLoadingException(Path, Throwable)</text><ellipse cx="495" cy="241.8877" fill="#84BE84" rx="3" ry="3" style="stroke: #038048; stroke-width: 1.0;"/><text fill="#000000" font-family="sans-serif" font-size="11" lengthAdjust="spacingAndGlyphs" textLength="199" x="504" y="244.5449">ComponentLoadingException(String)</text></a><!--class java.lang.Throwable--><rect fill="#FEFECE" filter="url(#fptaa8x4ophh3)" height="48" id="java.lang.Throwable" style="stroke: #A80036; stroke-width: 1.5;" width="93" x="95.5" y="43"/><ellipse cx="110.5" cy="59" fill="#ADD1B2" rx="11" ry="11" style="stroke: #A80036; stroke-width: 1.0;"/><path d="M113.4731,64.6431 Q112.8921,64.9419 112.2529,65.0913 Q111.6138,65.2407 110.9082,65.2407 Q108.4014,65.2407 107.0815,63.5889 Q105.7617,61.937 105.7617,58.8159 Q105.7617,55.6865 107.0815,54.0347 Q108.4014,52.3828 110.9082,52.3828 Q111.6138,52.3828 112.2612,52.5322 Q112.9087,52.6816 113.4731,52.9805 L113.4731,55.7031 Q112.8423,55.1221 112.2488,54.8523 Q111.6553,54.5825 111.0244,54.5825 Q109.6797,54.5825 108.9949,55.6492 Q108.3101,56.7158 108.3101,58.8159 Q108.3101,60.9077 108.9949,61.9744 Q109.6797,63.041 111.0244,63.041 Q111.6553,63.041 112.2488,62.7712 Q112.8423,62.5015 113.4731,61.9204 Z "/><text fill="#000000" font-family="sans-serif" font-size="12" lengthAdjust="spacingAndGlyphs" textLength="61" x="124.5" y="63.5352">Throwable</text><line style="stroke: #A80036; stroke-width: 1.5;" x1="96.5" x2="187.5" y1="75" y2="75"/><line style="stroke: #A80036; stroke-width: 1.5;" x1="96.5" x2="187.5" y1="83" y2="83"/><!--class de.interactive_instruments.exceptions.InitializationException--><rect fill="#FEFECE" filter="url(#fptaa8x4ophh3)" height="48" id="de.interactive_instruments.exceptions.InitializationException" style="stroke: #A80036; stroke-width: 1.5;" width="156" x="545" y="43"/><ellipse cx="560" cy="59" fill="#ADD1B2" rx="11" ry="11" style="stroke: #A80036; stroke-width: 1.0;"/><path d="M562.9731,64.6431 Q562.3921,64.9419 561.7529,65.0913 Q561.1138,65.2407 560.4082,65.2407 Q557.9014,65.2407 556.5815,63.5889 Q555.2617,61.937 555.2617,58.8159 Q555.2617,55.6865 556.5815,54.0347 Q557.9014,52.3828 560.4082,52.3828 Q561.1138,52.3828 561.7612,52.5322 Q562.4087,52.6816 562.9731,52.9805 L562.9731,55.7031 Q562.3423,55.1221 561.7488,54.8523 Q561.1553,54.5825 560.5244,54.5825 Q559.1797,54.5825 558.4949,55.6492 Q557.8101,56.7158 557.8101,58.8159 Q557.8101,60.9077 558.4949,61.9744 Q559.1797,63.041 560.5244,63.041 Q561.1553,63.041 561.7488,62.7712 Q562.3423,62.5015 562.9731,61.9204 Z "/><text fill="#000000" font-family="sans-serif" font-size="12" lengthAdjust="spacingAndGlyphs" textLength="124" x="574" y="63.5352">InitializationException</text><line style="stroke: #A80036; stroke-width: 1.5;" x1="546" x2="700" y1="75" y2="75"/><line style="stroke: #A80036; stroke-width: 1.5;" x1="546" x2="700" y1="83" y2="83"/><!--link java.lang.Throwable to de.interactive_instruments.etf.component.ComponentNotLoadedException--><path d="M142,111.2474 C142,132.5645 142,157.601 142,176.7956 " fill="none" id="java.lang.Throwable-de.interactive_instruments.etf.component.ComponentNotLoadedException" style="stroke: #A80036; stroke-width: 1.0;"/><polygon fill="none" points="135.0001,111.1528,142,91.1528,149.0001,111.1528,135.0001,111.1528" style="stroke: #A80036; stroke-width: 1.0;"/><!--link de.interactive_instruments.exceptions.InitializationException to de.interactive_instruments.etf.component.ComponentLoadingException--><path d="M623,111.1675 C623,127.9628 623,147.0762 623,163.8256 " fill="none" id="de.interactive_instruments.exceptions.InitializationException-de.interactive_instruments.etf.component.ComponentLoadingException" style="stroke: #A80036; stroke-width: 1.0;"/><polygon fill="none" points="616.0001,111.1528,623,91.1528,630.0001,111.1528,616.0001,111.1528" style="stroke: #A80036; stroke-width: 1.0;"/><!--
@startuml

    namespace de.interactive_instruments.etf.component {

        class ComponentNotLoadedException [[ComponentNotLoadedException.html]] {
            +ComponentNotLoadedException(String)
        }

        interface ComponentInfo [[ComponentInfo.html]] {
            {abstract} +getId(): EID
            {abstract} +getName(): String
            {abstract} +getVersion(): String
            {abstract} +getVendor(): String
            {abstract} +getDescription(): String
        }

        class ComponentLoadingException [[ComponentLoadingException.html]] {
            +ComponentLoadingException(Path, Exception)
            +ComponentLoadingException(Path, Throwable)
            +ComponentLoadingException(String)
        }

        class java.lang.Throwable
        java.lang.Throwable <|- - ComponentNotLoadedException

        class de.interactive_instruments.exceptions.InitializationException
        de.interactive_instruments.exceptions.InitializationException <|- - ComponentLoadingException

    }

@enduml

PlantUML version 1.2018.08(Sun Jun 24 14:31:00 CEST 2018)
(APACHE source distribution)
Java Runtime: Java(TM) SE Runtime Environment
JVM: Java HotSpot(TM) 64-Bit Server VM
Java Version: 1.8.0_151-b12
Operating System: Mac OS X
OS Version: 10.13.6
Default Encoding: UTF-8
Language: en
Country: US
--></g></svg>